{"glyphs":{"0":{"ha":875,"x_min":3,"x_max":872,"o":"m 172 833 l 797 833 q 847 875 839 833 q 813 917 854 917 l 188 917 q 139 875 146 917 q 172 833 131 833 m 192 938 l 817 938 q 865 979 858 938 q 831 1021 872 1021 l 206 1021 q 157 979 164 1021 q 192 938 150 938 m 44 104 l 669 104 q 718 146 711 104 q 683 188 725 188 l 58 188 q 10 146 17 188 q 44 104 3 104 m 63 208 l 688 208 q 736 250 729 208 q 703 292 744 292 l 78 292 q 28 250 36 292 q 63 208 21 208 m 65 458 q 99 417 57 417 l 307 417 q 357 458 349 417 q 322 500 364 500 l 114 500 q 65 458 72 500 m 83 563 q 118 521 76 521 l 326 521 q 375 563 368 521 q 340 604 382 604 l 132 604 q 83 563 90 604 m 136 625 l 344 625 q 393 667 386 625 q 360 708 401 708 l 151 708 q 101 667 110 708 q 136 625 94 625 m 482 458 q 515 417 474 417 l 724 417 q 774 458 765 417 q 739 500 781 500 l 531 500 q 482 458 489 500 m 500 563 q 535 521 493 521 l 743 521 q 792 563 785 521 q 757 604 799 604 l 549 604 q 500 563 507 604 m 553 625 l 761 625 q 810 667 803 625 q 776 708 818 708 l 568 708 q 518 667 526 708 q 553 625 511 625 m 119 771 q 154 729 113 729 l 363 729 q 411 771 404 729 q 378 813 419 813 l 169 813 q 119 771 128 813 m 571 729 l 779 729 q 828 771 821 729 q 794 813 836 813 l 586 813 q 536 771 544 813 q 571 729 529 729 m 47 354 q 81 313 39 313 l 289 313 q 339 354 331 313 q 304 396 346 396 l 96 396 q 47 354 54 396 m 497 313 l 706 313 q 756 354 747 313 q 721 396 763 396 l 513 396 q 464 354 471 396 q 497 313 456 313 m 279 1083 q 314 1042 272 1042 l 731 1042 q 779 1083 772 1042 q 744 1125 786 1125 l 328 1125 q 279 1083 286 1125 m 96 42 q 131 0 89 0 l 547 0 q 596 42 589 0 q 561 83 603 83 l 144 83 q 96 42 103 83 z "},"1":{"ha":667,"x_min":-15,"x_max":578,"o":"m 169 458 q 203 417 161 417 l 411 417 q 461 458 453 417 q 426 500 468 500 l 218 500 q 169 458 176 500 m 188 563 q 222 521 181 521 l 431 521 q 479 563 472 521 q 444 604 486 604 l 236 604 q 188 563 194 604 m 240 625 l 449 625 q 497 667 490 625 q 464 708 506 708 l 256 708 q 206 667 214 708 q 240 625 199 625 m 139 875 q 172 833 131 833 l 485 833 q 535 875 526 833 q 500 917 542 917 l 188 917 q 139 875 146 917 m 261 979 q 296 938 254 938 l 504 938 q 553 979 546 938 q 518 1021 560 1021 l 310 1021 q 261 979 268 1021 m 418 1042 l 522 1042 q 571 1083 564 1042 q 536 1125 578 1125 l 432 1125 q 383 1083 390 1125 q 418 1042 376 1042 m 224 771 q 258 729 217 729 l 467 729 q 515 771 508 729 q 482 813 524 813 l 274 813 q 224 771 232 813 m 185 313 l 393 313 q 443 354 435 313 q 408 396 450 396 l 200 396 q 151 354 158 396 q 185 313 143 313 m -8 42 q 26 0 -15 0 l 443 0 q 492 42 485 0 q 457 83 499 83 l 40 83 q -8 42 -1 83 m 44 104 l 461 104 q 510 146 503 104 q 475 188 517 188 l 58 188 q 10 146 17 188 q 44 104 3 104 m 28 250 q 63 208 21 208 l 479 208 q 528 250 521 208 q 494 292 536 292 l 78 292 q 28 250 36 292 z "},"2":{"ha":875,"x_min":-15,"x_max":872,"o":"m 669 104 l 44 104 q 10 146 3 104 q 58 188 17 188 l 683 188 q 718 146 725 188 q 669 104 711 104 m 688 208 l 63 208 q 28 250 21 208 q 78 292 36 292 l 703 292 q 736 250 744 292 q 688 208 729 208 m 797 833 l 172 833 q 139 875 131 833 q 188 917 146 917 l 813 917 q 847 875 854 917 q 797 833 839 833 m 817 938 l 192 938 q 157 979 150 938 q 206 1021 164 1021 l 831 1021 q 865 979 872 1021 q 817 938 858 938 m 339 354 q 289 313 331 313 l 81 313 q 47 354 39 313 q 96 396 54 396 l 304 396 q 339 354 346 396 m 828 771 q 779 729 821 729 l 571 729 q 536 771 529 729 q 586 813 544 813 l 794 813 q 828 771 836 813 m 810 667 q 761 625 803 625 l 240 625 q 206 667 199 625 q 256 708 214 708 l 776 708 q 810 667 818 708 m 679 458 q 629 417 671 417 l 99 417 q 65 458 57 417 q 114 500 72 500 l 644 500 q 679 458 686 500 m 700 42 q 651 0 693 0 l 26 0 q -8 42 -15 0 q 40 83 -1 83 l 665 83 q 700 42 707 83 m 779 1083 q 731 1042 772 1042 l 210 1042 q 175 1083 168 1042 q 224 1125 182 1125 l 744 1125 q 779 1083 786 1125 m 792 563 q 743 521 785 521 l 118 521 q 83 563 76 521 q 132 604 90 604 l 757 604 q 792 563 799 604 z "},"3":{"ha":875,"x_min":-15,"x_max":872,"o":"m 797 833 l 172 833 q 139 875 131 833 q 188 917 146 917 l 813 917 q 847 875 854 917 q 797 833 839 833 m 817 938 l 192 938 q 157 979 150 938 q 206 1021 164 1021 l 831 1021 q 865 979 872 1021 q 817 938 858 938 m 761 625 l 240 625 q 206 667 199 625 q 256 708 214 708 l 776 708 q 810 667 818 708 q 761 625 803 625 m 639 521 l 222 521 q 188 563 181 521 q 236 604 194 604 l 653 604 q 688 563 694 604 q 639 521 681 521 m 724 417 l 203 417 q 169 458 161 417 q 218 500 176 500 l 739 500 q 774 458 781 500 q 724 417 765 417 m 688 208 l 63 208 q 28 250 21 208 q 78 292 36 292 l 703 292 q 736 250 744 292 q 688 208 729 208 m 669 104 l 44 104 q 10 146 3 104 q 58 188 17 188 l 683 188 q 718 146 725 188 q 669 104 711 104 m 756 354 q 706 313 747 313 l 497 313 q 464 354 456 313 q 513 396 471 396 l 721 396 q 756 354 763 396 m 779 729 l 571 729 q 536 771 529 729 q 586 813 544 813 l 794 813 q 828 771 836 813 q 779 729 821 729 m 596 42 q 547 0 589 0 l 26 0 q -8 42 -15 0 q 40 83 -1 83 l 561 83 q 596 42 603 83 m 779 1083 q 731 1042 772 1042 l 210 1042 q 175 1083 168 1042 q 224 1125 182 1125 l 744 1125 q 779 1083 786 1125 z "},"4":{"ha":875,"x_min":76,"x_max":890,"o":"m 136 625 l 761 625 q 810 667 803 625 q 776 708 818 708 l 151 708 q 101 667 110 708 q 136 625 94 625 m 118 521 l 743 521 q 792 563 785 521 q 757 604 799 604 l 132 604 q 83 563 90 604 q 118 521 76 521 m 203 417 l 724 417 q 774 458 765 417 q 739 500 781 500 l 218 500 q 169 458 176 500 q 203 417 161 417 m 119 771 q 154 729 113 729 l 363 729 q 411 771 404 729 q 378 813 419 813 l 169 813 q 119 771 128 813 m 139 875 q 172 833 131 833 l 381 833 q 431 875 422 833 q 396 917 438 917 l 188 917 q 139 875 146 917 m 192 938 l 400 938 q 449 979 442 938 q 414 1021 456 1021 l 206 1021 q 157 979 164 1021 q 192 938 150 938 m 536 771 q 571 729 529 729 l 779 729 q 828 771 821 729 q 794 813 836 813 l 586 813 q 536 771 544 813 m 556 875 q 589 833 547 833 l 797 833 q 847 875 839 833 q 813 917 854 917 l 604 917 q 556 875 563 917 m 608 938 l 817 938 q 865 979 858 938 q 831 1021 872 1021 l 622 1021 q 574 979 581 1021 q 608 938 567 938 m 279 1083 q 314 1042 272 1042 l 418 1042 q 467 1083 460 1042 q 432 1125 474 1125 l 328 1125 q 279 1083 286 1125 m 626 1042 l 835 1042 q 883 1083 876 1042 q 849 1125 890 1125 l 640 1125 q 592 1083 599 1125 q 626 1042 585 1042 m 408 42 q 443 0 401 0 l 651 0 q 700 42 693 0 q 665 83 707 83 l 457 83 q 408 42 415 83 m 426 146 q 461 104 419 104 l 669 104 q 718 146 711 104 q 683 188 725 188 l 475 188 q 426 146 433 188 m 479 208 l 688 208 q 736 250 729 208 q 703 292 744 292 l 494 292 q 444 250 453 292 q 479 208 438 208 m 497 313 l 706 313 q 756 354 747 313 q 721 396 763 396 l 513 396 q 464 354 471 396 q 497 313 456 313 z "},"5":{"ha":875,"x_min":-15,"x_max":890,"o":"m 44 104 l 669 104 q 718 146 711 104 q 683 188 725 188 l 58 188 q 10 146 17 188 q 44 104 3 104 m 63 208 l 688 208 q 736 250 729 208 q 703 292 744 292 l 78 292 q 28 250 36 292 q 63 208 21 208 m 172 833 l 797 833 q 847 875 839 833 q 813 917 854 917 l 188 917 q 139 875 146 917 q 172 833 131 833 m 192 938 l 817 938 q 865 979 858 938 q 831 1021 872 1021 l 206 1021 q 157 979 164 1021 q 192 938 150 938 m 464 354 q 497 313 456 313 l 706 313 q 756 354 747 313 q 721 396 763 396 l 513 396 q 464 354 471 396 m 119 771 q 154 729 113 729 l 363 729 q 411 771 404 729 q 378 813 419 813 l 169 813 q 119 771 128 813 m 101 667 q 136 625 94 625 l 657 625 q 706 667 699 625 q 672 708 714 708 l 151 708 q 101 667 110 708 m 160 458 q 193 417 151 417 l 724 417 q 774 458 765 417 q 739 500 781 500 l 208 500 q 160 458 167 500 m -8 42 q 26 0 -15 0 l 547 0 q 596 42 589 0 q 561 83 603 83 l 40 83 q -8 42 -1 83 m 196 1083 q 231 1042 189 1042 l 835 1042 q 883 1083 876 1042 q 849 1125 890 1125 l 244 1125 q 196 1083 203 1125 m 83 563 q 118 521 76 521 l 743 521 q 792 563 785 521 q 757 604 799 604 l 132 604 q 83 563 90 604 z "},"6":{"ha":875,"x_min":3,"x_max":799,"o":"m 44 104 l 669 104 q 718 146 711 104 q 683 188 725 188 l 58 188 q 10 146 17 188 q 44 104 3 104 m 63 208 l 688 208 q 736 250 729 208 q 703 292 744 292 l 78 292 q 28 250 36 292 q 63 208 21 208 m 172 833 l 693 833 q 743 875 735 833 q 708 917 750 917 l 188 917 q 139 875 146 917 q 172 833 131 833 m 192 938 l 713 938 q 761 979 754 938 q 726 1021 768 1021 l 206 1021 q 157 979 164 1021 q 192 938 150 938 m 464 354 q 497 313 456 313 l 706 313 q 756 354 747 313 q 721 396 763 396 l 513 396 q 464 354 471 396 m 119 771 q 154 729 113 729 l 363 729 q 411 771 404 729 q 378 813 419 813 l 169 813 q 119 771 128 813 m 101 667 q 136 625 94 625 l 657 625 q 706 667 699 625 q 672 708 714 708 l 151 708 q 101 667 110 708 m 65 458 q 99 417 57 417 l 724 417 q 774 458 765 417 q 739 500 781 500 l 114 500 q 65 458 72 500 m 96 42 q 131 0 89 0 l 547 0 q 596 42 589 0 q 561 83 603 83 l 144 83 q 96 42 103 83 m 279 1083 q 314 1042 272 1042 l 731 1042 q 779 1083 772 1042 q 744 1125 786 1125 l 328 1125 q 279 1083 286 1125 m 83 563 q 118 521 76 521 l 743 521 q 792 563 785 521 q 757 604 799 604 l 132 604 q 83 563 90 604 m 47 354 q 81 313 39 313 l 289 313 q 339 354 331 313 q 304 396 346 396 l 96 396 q 47 354 54 396 z "},"7":{"ha":875,"x_min":131,"x_max":890,"o":"m 172 833 l 797 833 q 847 875 839 833 q 813 917 854 917 l 188 917 q 139 875 146 917 q 172 833 131 833 m 192 938 l 817 938 q 865 979 858 938 q 831 1021 872 1021 l 206 1021 q 157 979 164 1021 q 192 938 150 938 m 210 1042 l 835 1042 q 883 1083 876 1042 q 849 1125 890 1125 l 224 1125 q 175 1083 182 1125 q 210 1042 168 1042 m 235 0 l 443 0 q 492 42 485 0 q 457 83 499 83 l 249 83 q 200 42 207 83 q 235 0 193 0 m 253 104 l 461 104 q 510 146 503 104 q 475 188 517 188 l 267 188 q 218 146 225 188 q 253 104 211 104 m 271 208 l 479 208 q 528 250 521 208 q 494 292 536 292 l 286 292 q 236 250 244 292 q 271 208 229 208 m 414 667 q 449 625 407 625 l 657 625 q 706 667 699 625 q 672 708 714 708 l 464 708 q 414 667 422 708 m 289 313 l 497 313 q 547 354 539 313 q 513 396 554 396 l 304 396 q 256 354 263 396 q 289 313 247 313 m 571 729 l 779 729 q 828 771 821 729 q 794 813 836 813 l 586 813 q 536 771 544 813 q 571 729 529 729 m 274 458 q 307 417 265 417 l 515 417 q 565 458 557 417 q 531 500 572 500 l 322 500 q 274 458 281 500 m 326 521 l 535 521 q 583 563 576 521 q 549 604 590 604 l 340 604 q 292 563 299 604 q 326 521 285 521 z "},"8":{"ha":875,"x_min":3,"x_max":872,"o":"m 192 938 l 817 938 q 865 979 858 938 q 831 1021 872 1021 l 206 1021 q 157 979 164 1021 q 192 938 150 938 m 314 1042 l 731 1042 q 779 1083 772 1042 q 744 1125 786 1125 l 328 1125 q 279 1083 286 1125 q 314 1042 272 1042 m 172 833 l 797 833 q 847 875 839 833 q 813 917 854 917 l 188 917 q 139 875 146 917 q 172 833 131 833 m 136 625 l 761 625 q 810 667 803 625 q 776 708 818 708 l 151 708 q 101 667 110 708 q 136 625 94 625 m 99 417 l 724 417 q 774 458 765 417 q 739 500 781 500 l 114 500 q 65 458 72 500 q 99 417 57 417 m 63 208 l 688 208 q 736 250 729 208 q 703 292 744 292 l 78 292 q 28 250 36 292 q 63 208 21 208 m 44 104 l 669 104 q 718 146 711 104 q 683 188 725 188 l 58 188 q 10 146 17 188 q 44 104 3 104 m 119 771 q 154 729 113 729 l 363 729 q 411 771 404 729 q 378 813 419 813 l 169 813 q 119 771 128 813 m 536 771 q 571 729 529 729 l 779 729 q 828 771 821 729 q 794 813 836 813 l 586 813 q 536 771 544 813 m 47 354 q 81 313 39 313 l 289 313 q 339 354 331 313 q 304 396 346 396 l 96 396 q 47 354 54 396 m 464 354 q 497 313 456 313 l 706 313 q 756 354 747 313 q 721 396 763 396 l 513 396 q 464 354 471 396 m 96 42 q 131 0 89 0 l 547 0 q 596 42 589 0 q 561 83 603 83 l 144 83 q 96 42 103 83 m 188 563 q 222 521 181 521 l 639 521 q 688 563 681 521 q 653 604 694 604 l 236 604 q 188 563 194 604 z "},"9":{"ha":875,"x_min":76,"x_max":872,"o":"m 831 1021 l 206 1021 q 157 979 164 1021 q 192 938 150 938 l 817 938 q 865 979 858 938 q 831 1021 872 1021 m 813 917 l 188 917 q 139 875 146 917 q 172 833 131 833 l 797 833 q 847 875 839 833 q 813 917 854 917 m 703 292 l 182 292 q 132 250 140 292 q 167 208 125 208 l 688 208 q 736 250 729 208 q 703 292 744 292 m 683 188 l 163 188 q 114 146 121 188 q 149 104 107 104 l 669 104 q 718 146 711 104 q 683 188 725 188 m 411 771 q 378 813 419 813 l 169 813 q 119 771 128 813 q 154 729 113 729 l 363 729 q 411 771 404 729 m 756 354 q 721 396 763 396 l 513 396 q 464 354 471 396 q 497 313 456 313 l 706 313 q 756 354 747 313 m 774 458 q 739 500 781 500 l 218 500 q 169 458 176 500 q 203 417 161 417 l 724 417 q 774 458 765 417 m 810 667 q 776 708 818 708 l 151 708 q 101 667 110 708 q 136 625 94 625 l 761 625 q 810 667 803 625 m 779 1083 q 744 1125 786 1125 l 328 1125 q 279 1083 286 1125 q 314 1042 272 1042 l 731 1042 q 779 1083 772 1042 m 596 42 q 561 83 603 83 l 144 83 q 96 42 103 83 q 131 0 89 0 l 547 0 q 596 42 589 0 m 792 563 q 757 604 799 604 l 132 604 q 83 563 90 604 q 118 521 76 521 l 743 521 q 792 563 785 521 m 828 771 q 794 813 836 813 l 586 813 q 536 771 544 813 q 571 729 529 729 l 779 729 q 828 771 821 729 z "}," ":{"ha":875,"x_min":0,"x_max":0,"o":""},"!":{"ha":458,"x_min":-15,"x_max":474,"o":"m 65 458 q 99 417 57 417 l 307 417 q 357 458 349 417 q 322 500 364 500 l 114 500 q 65 458 72 500 m 83 563 q 118 521 76 521 l 326 521 q 375 563 368 521 q 340 604 382 604 l 132 604 q 83 563 90 604 m 136 625 l 344 625 q 393 667 386 625 q 360 708 401 708 l 151 708 q 101 667 110 708 q 136 625 94 625 m 139 875 q 172 833 131 833 l 381 833 q 431 875 422 833 q 396 917 438 917 l 188 917 q 139 875 146 917 m 157 979 q 192 938 150 938 l 400 938 q 449 979 442 938 q 414 1021 456 1021 l 206 1021 q 157 979 164 1021 m 210 1042 l 418 1042 q 467 1083 460 1042 q 432 1125 474 1125 l 224 1125 q 175 1083 182 1125 q 210 1042 168 1042 m 119 771 q 154 729 113 729 l 363 729 q 411 771 404 729 q 378 813 419 813 l 169 813 q 119 771 128 813 m -8 42 q 26 0 -15 0 l 235 0 q 283 42 276 0 q 249 83 290 83 l 40 83 q -8 42 -1 83 m 44 104 l 253 104 q 301 146 294 104 q 267 188 308 188 l 58 188 q 10 146 17 188 q 44 104 3 104 m 28 250 q 63 208 21 208 l 271 208 q 319 250 313 208 q 286 292 328 292 l 78 292 q 28 250 36 292 z "},"\"":{"ha":875,"x_min":57,"x_max":836,"o":"m 169 1124 l 378 1124 q 411 1082 419 1124 q 363 1040 404 1040 l 154 1040 q 119 1082 113 1040 q 169 1124 128 1124 m 150 1019 l 358 1019 q 393 978 400 1019 q 344 936 386 936 l 136 936 q 101 978 94 936 q 150 1019 108 1019 m 83 875 q 132 917 90 917 l 340 917 q 375 875 382 917 q 326 833 368 833 l 118 833 q 83 875 76 833 m 586 1125 l 794 1125 q 828 1083 836 1125 q 779 1042 821 1042 l 571 1042 q 536 1083 529 1042 q 586 1125 544 1125 m 568 1021 l 776 1021 q 810 979 818 1021 q 761 938 803 938 l 553 938 q 518 979 511 938 q 568 1021 526 1021 m 500 876 q 549 918 507 918 l 757 918 q 792 876 799 918 q 743 835 785 835 l 535 835 q 500 876 493 835 m 151 667 q 200 708 158 708 l 304 708 q 339 667 346 708 q 289 625 331 625 l 185 625 q 151 667 143 625 m 65 771 q 114 813 72 813 l 322 813 q 357 771 364 813 q 307 729 349 729 l 99 729 q 65 771 57 729 m 568 668 q 617 710 575 710 l 721 710 q 756 668 763 710 q 706 626 747 626 l 601 626 q 568 668 560 626 m 482 772 q 531 814 489 814 l 739 814 q 774 772 781 814 q 725 731 767 731 l 517 731 q 482 772 475 731 z "},"#":{"ha":875,"x_min":21,"x_max":854,"o":"m 296 938 l 400 938 q 449 979 442 938 q 414 1021 456 1021 l 310 1021 q 261 979 268 1021 q 296 938 254 938 m 608 938 l 713 938 q 761 979 754 938 q 726 1021 768 1021 l 622 1021 q 574 979 581 1021 q 608 938 567 938 m 279 1083 q 314 1042 272 1042 l 418 1042 q 467 1083 460 1042 q 432 1125 474 1125 l 328 1125 q 279 1083 286 1125 m 626 1042 l 731 1042 q 779 1083 772 1042 q 744 1125 786 1125 l 640 1125 q 592 1083 599 1125 q 626 1042 585 1042 m 96 42 q 131 0 89 0 l 235 0 q 283 42 276 0 q 249 83 290 83 l 144 83 q 96 42 103 83 m 114 146 q 149 104 107 104 l 253 104 q 301 146 294 104 q 267 188 308 188 l 163 188 q 114 146 121 188 m 408 42 q 443 0 401 0 l 547 0 q 596 42 589 0 q 561 83 603 83 l 457 83 q 408 42 415 83 m 426 146 q 461 104 419 104 l 565 104 q 614 146 607 104 q 579 188 621 188 l 475 188 q 426 146 433 188 m 172 833 l 797 833 q 847 875 839 833 q 813 917 854 917 l 188 917 q 139 875 146 917 q 172 833 131 833 m 154 729 l 779 729 q 828 771 821 729 q 794 813 836 813 l 169 813 q 119 771 128 813 q 154 729 113 729 m 81 313 l 706 313 q 756 354 747 313 q 721 396 763 396 l 96 396 q 47 354 54 396 q 81 313 39 313 m 63 208 l 688 208 q 736 250 729 208 q 703 292 744 292 l 78 292 q 28 250 36 292 q 63 208 21 208 m 188 563 q 222 521 181 521 l 326 521 q 375 563 368 521 q 340 604 382 604 l 236 604 q 188 563 194 604 m 206 667 q 240 625 199 625 l 344 625 q 393 667 386 625 q 360 708 401 708 l 256 708 q 206 667 214 708 m 500 563 q 535 521 493 521 l 639 521 q 688 563 681 521 q 653 604 694 604 l 549 604 q 500 563 507 604 m 518 667 q 553 625 511 625 l 657 625 q 706 667 699 625 q 672 708 714 708 l 568 708 q 518 667 526 708 m 169 458 q 203 417 161 417 l 307 417 q 357 458 349 417 q 322 500 364 500 l 218 500 q 169 458 176 500 m 482 458 q 515 417 474 417 l 619 417 q 669 458 661 417 q 635 500 676 500 l 531 500 q 482 458 489 500 z "},"$":{"ha":875,"x_min":76,"x_max":799,"o":"m 253 104 l 378 104 q 426 146 419 104 q 392 188 433 188 l 267 188 q 218 146 225 188 q 253 104 211 104 m 167 208 l 583 208 q 632 250 625 208 q 599 292 640 292 l 182 292 q 132 250 140 292 q 167 208 125 208 m 276 833 l 693 833 q 743 875 735 833 q 708 917 750 917 l 292 917 q 243 875 250 917 q 276 833 235 833 m 400 938 l 525 938 q 574 979 567 938 q 539 1021 581 1021 l 414 1021 q 365 979 372 1021 q 400 938 358 938 m 464 354 q 497 313 456 313 l 706 313 q 756 354 747 313 q 721 396 763 396 l 513 396 q 464 354 471 396 m 119 771 q 154 729 113 729 l 363 729 q 411 771 404 729 q 378 813 419 813 l 169 813 q 119 771 128 813 m 101 667 q 136 625 94 625 l 657 625 q 706 667 699 625 q 672 708 714 708 l 151 708 q 101 667 110 708 m 169 458 q 203 417 161 417 l 724 417 q 774 458 765 417 q 739 500 781 500 l 218 500 q 169 458 176 500 m 200 42 q 235 0 193 0 l 360 0 q 408 42 401 0 q 374 83 415 83 l 249 83 q 200 42 207 83 m 83 563 q 118 521 76 521 l 743 521 q 792 563 785 521 q 757 604 799 604 l 132 604 q 83 563 90 604 m 383 1083 q 418 1042 376 1042 l 543 1042 q 592 1083 585 1042 q 557 1125 599 1125 l 432 1125 q 383 1083 390 1125 z "},"%":{"ha":875,"x_min":3,"x_max":872,"o":"m 589 833 l 797 833 q 847 875 839 833 q 813 917 854 917 l 604 917 q 556 875 563 917 q 589 833 547 833 m 608 938 l 817 938 q 865 979 858 938 q 831 1021 872 1021 l 622 1021 q 574 979 581 1021 q 608 938 567 938 m 210 1042 l 418 1042 q 467 1083 460 1042 q 432 1125 474 1125 l 224 1125 q 175 1083 182 1125 q 210 1042 168 1042 m 443 0 l 651 0 q 700 42 693 0 q 665 83 707 83 l 457 83 q 408 42 415 83 q 443 0 401 0 m 44 104 l 253 104 q 301 146 294 104 q 267 188 308 188 l 58 188 q 10 146 17 188 q 44 104 3 104 m 63 208 l 271 208 q 319 250 313 208 q 286 292 328 292 l 78 292 q 28 250 36 292 q 63 208 21 208 m 414 667 q 449 625 407 625 l 657 625 q 706 667 699 625 q 672 708 714 708 l 464 708 q 414 667 422 708 m 185 313 l 393 313 q 443 354 435 313 q 408 396 450 396 l 200 396 q 151 354 158 396 q 185 313 143 313 m 467 729 l 675 729 q 724 771 717 729 q 690 813 732 813 l 482 813 q 432 771 440 813 q 467 729 425 729 m 169 458 q 203 417 161 417 l 411 417 q 461 458 453 417 q 426 500 468 500 l 218 500 q 169 458 176 500 m 326 521 l 535 521 q 583 563 576 521 q 549 604 590 604 l 340 604 q 292 563 299 604 q 326 521 285 521 m 192 938 l 400 938 q 449 979 442 938 q 414 1021 456 1021 l 206 1021 q 157 979 164 1021 q 192 938 150 938 m 172 833 l 381 833 q 431 875 422 833 q 396 917 438 917 l 188 917 q 139 875 146 917 q 172 833 131 833 m 461 104 l 669 104 q 718 146 711 104 q 683 188 725 188 l 475 188 q 426 146 433 188 q 461 104 419 104 m 479 208 l 688 208 q 736 250 729 208 q 703 292 744 292 l 494 292 q 444 250 453 292 q 479 208 438 208 z "},"&":{"ha":979,"x_min":3,"x_max":1026,"o":"m 10 146 q 44 104 3 104 l 878 104 q 926 146 919 104 q 892 188 933 188 l 58 188 q 10 146 17 188 m 28 250 q 63 208 21 208 l 896 208 q 944 250 938 208 q 911 292 953 292 l 78 292 q 28 250 36 292 m 65 458 q 99 417 57 417 l 828 417 q 878 458 869 417 q 843 500 885 500 l 114 500 q 65 458 72 500 m 188 563 q 222 521 181 521 l 951 521 q 1000 563 993 521 q 965 604 1007 604 l 236 604 q 188 563 194 604 m 139 875 q 172 833 131 833 l 797 833 q 847 875 839 833 q 813 917 854 917 l 188 917 q 139 875 146 917 m 157 979 q 192 938 150 938 l 817 938 q 865 979 858 938 q 831 1021 872 1021 l 206 1021 q 157 979 164 1021 m 314 1042 l 835 1042 q 883 1083 876 1042 q 849 1125 890 1125 l 328 1125 q 279 1083 286 1125 q 314 1042 272 1042 m 96 42 q 131 0 89 0 l 547 0 q 596 42 589 0 q 561 83 603 83 l 144 83 q 96 42 103 83 m 310 667 q 344 625 303 625 l 553 625 q 601 667 594 625 q 568 708 610 708 l 360 708 q 310 667 318 708 m 224 771 q 258 729 217 729 l 467 729 q 515 771 508 729 q 482 813 524 813 l 274 813 q 224 771 232 813 m 47 354 q 81 313 39 313 l 289 313 q 339 354 331 313 q 304 396 346 396 l 96 396 q 47 354 54 396 m 568 354 q 601 313 560 313 l 810 313 q 860 354 851 313 q 825 396 867 396 l 617 396 q 568 354 575 396 m 831 667 q 865 625 824 625 l 969 625 q 1018 667 1011 625 q 985 708 1026 708 l 881 708 q 831 667 839 708 m 721 42 q 756 0 714 0 l 860 0 q 908 42 901 0 q 874 83 915 83 l 769 83 q 721 42 728 83 z "},"'":{"ha":458,"x_min":58,"x_max":419,"o":"m 169 1124 l 378 1124 q 411 1082 419 1124 q 363 1040 404 1040 l 154 1040 q 119 1082 113 1040 q 169 1124 128 1124 m 150 1019 l 358 1019 q 393 978 400 1019 q 344 936 386 936 l 136 936 q 101 978 94 936 q 150 1019 108 1019 m 83 875 q 132 917 90 917 l 340 917 q 375 875 382 917 q 326 833 368 833 l 118 833 q 83 875 76 833 m 151 667 q 200 708 158 708 l 304 708 q 339 667 346 708 q 289 625 331 625 l 185 625 q 151 667 143 625 m 65 771 q 114 813 72 813 l 322 813 q 357 771 364 813 q 308 729 350 729 l 100 729 q 65 771 58 729 z "},"(":{"ha":458,"x_min":3,"x_max":597,"o":"m 172 833 l 381 833 q 431 875 422 833 q 396 917 438 917 l 188 917 q 139 875 146 917 q 172 833 131 833 m 192 938 l 400 938 q 449 979 442 938 q 414 1021 456 1021 l 206 1021 q 157 979 164 1021 q 192 938 150 938 m 118 521 l 326 521 q 375 563 368 521 q 340 604 382 604 l 132 604 q 83 563 90 604 q 118 521 76 521 m 47 354 q 81 313 39 313 l 289 313 q 339 354 331 313 q 304 396 346 396 l 96 396 q 47 354 54 396 m 314 1042 l 418 1042 q 467 1083 460 1042 q 432 1125 474 1125 l 328 1125 q 279 1083 286 1125 q 314 1042 272 1042 m 154 729 l 363 729 q 411 771 404 729 q 378 813 419 813 l 169 813 q 119 771 128 813 q 154 729 113 729 m 99 417 l 307 417 q 357 458 349 417 q 322 500 364 500 l 114 500 q 65 458 72 500 q 99 417 57 417 m 44 104 l 253 104 q 301 146 294 104 q 267 188 308 188 l 58 188 q 10 146 17 188 q 44 104 3 104 m 63 208 l 271 208 q 319 250 313 208 q 286 292 328 292 l 78 292 q 28 250 36 292 q 63 208 21 208 m 136 625 l 344 625 q 393 667 386 625 q 360 708 401 708 l 151 708 q 101 667 110 708 q 136 625 94 625 m 401 1188 q 436 1146 394 1146 l 540 1146 q 589 1188 582 1146 q 556 1229 597 1229 l 451 1229 q 401 1188 410 1229 m 96 42 q 131 0 89 0 l 235 0 q 283 42 276 0 q 249 83 290 83 l 144 83 q 96 42 103 83 m 182 -62 q 215 -104 174 -104 l 319 -104 q 369 -62 361 -104 q 335 -21 376 -21 l 231 -21 q 182 -62 189 -21 z "},")":{"ha":458,"x_min":-139,"x_max":456,"o":"m 381 833 l 172 833 q 139 875 131 833 q 188 917 146 917 l 396 917 q 431 875 438 917 q 381 833 422 833 m 400 938 l 192 938 q 157 979 150 938 q 206 1021 164 1021 l 414 1021 q 449 979 456 1021 q 400 938 442 938 m 326 521 l 118 521 q 83 563 76 521 q 132 604 90 604 l 340 604 q 375 563 382 604 q 326 521 368 521 m 339 354 q 289 313 331 313 l 81 313 q 47 354 39 313 q 96 396 54 396 l 304 396 q 339 354 346 396 m 314 1042 l 210 1042 q 175 1083 168 1042 q 224 1125 182 1125 l 328 1125 q 363 1083 369 1125 q 314 1042 356 1042 m 363 729 l 154 729 q 119 771 113 729 q 169 813 128 813 l 378 813 q 411 771 419 813 q 363 729 404 729 m 307 417 l 99 417 q 65 458 57 417 q 114 500 72 500 l 322 500 q 357 458 364 500 q 307 417 349 417 m 253 104 l 44 104 q 10 146 3 104 q 58 188 17 188 l 267 188 q 301 146 308 188 q 253 104 294 104 m 271 208 l 63 208 q 28 250 21 208 q 78 292 36 292 l 286 292 q 319 250 328 292 q 271 208 313 208 m 344 625 l 136 625 q 101 667 94 625 q 151 708 110 708 l 360 708 q 393 667 401 708 q 344 625 386 625 m 276 1188 q 228 1146 269 1146 l 124 1146 q 89 1188 82 1146 q 139 1229 97 1229 l 243 1229 q 276 1188 285 1229 m 179 42 q 131 0 172 0 l 26 0 q -8 42 -15 0 q 40 83 -1 83 l 144 83 q 179 42 186 83 m 57 -62 q 7 -104 49 -104 l -97 -104 q -131 -62 -139 -104 q -82 -21 -124 -21 l 22 -21 q 57 -62 64 -21 z "},"*":{"ha":875,"x_min":11,"x_max":854,"o":"m 83 563 q 118 521 76 521 l 743 521 q 792 563 785 521 q 757 604 799 604 l 132 604 q 83 563 90 604 m 224 771 q 258 729 217 729 l 363 729 q 411 771 404 729 q 378 813 419 813 l 274 813 q 224 771 232 813 m 344 625 l 553 625 q 601 667 594 625 q 568 708 610 708 l 360 708 q 310 667 318 708 q 344 625 303 625 m 274 458 q 307 417 265 417 l 515 417 q 565 458 557 417 q 531 500 572 500 l 322 500 q 274 458 281 500 m 536 771 q 571 729 529 729 l 675 729 q 724 771 717 729 q 690 813 732 813 l 586 813 q 536 771 544 813 m 151 354 q 185 313 143 313 l 289 313 q 339 354 331 313 q 304 396 346 396 l 200 396 q 151 354 158 396 m 464 354 q 497 313 456 313 l 601 313 q 651 354 643 313 q 617 396 658 396 l 513 396 q 464 354 471 396 m 139 875 q 172 833 131 833 l 276 833 q 326 875 318 833 q 292 917 333 917 l 188 917 q 139 875 146 917 m 660 875 q 693 833 651 833 l 797 833 q 847 875 839 833 q 813 917 854 917 l 708 917 q 660 875 667 917 m 18 250 q 53 208 11 208 l 157 208 q 206 250 199 208 q 172 292 214 292 l 68 292 q 18 250 26 292 m 549 250 q 583 208 542 208 l 688 208 q 736 250 729 208 q 703 292 744 292 l 599 292 q 549 250 557 292 z "},"+":{"ha":875,"x_min":57,"x_max":818,"o":"m 83 563 q 118 521 76 521 l 743 521 q 792 563 785 521 q 757 604 799 604 l 132 604 q 83 563 90 604 m 101 667 q 136 625 94 625 l 761 625 q 810 667 803 625 q 776 708 818 708 l 151 708 q 101 667 110 708 m 99 417 l 724 417 q 774 458 765 417 q 739 500 781 500 l 114 500 q 65 458 72 500 q 99 417 57 417 m 347 875 q 381 833 339 833 l 589 833 q 639 875 631 833 q 604 917 646 917 l 396 917 q 347 875 354 917 m 365 979 q 400 938 358 938 l 608 938 q 657 979 650 938 q 622 1021 664 1021 l 414 1021 q 365 979 372 1021 m 363 729 l 571 729 q 619 771 613 729 q 586 813 628 813 l 378 813 q 328 771 336 813 q 363 729 321 729 m 236 250 q 271 208 229 208 l 479 208 q 528 250 521 208 q 494 292 536 292 l 286 292 q 236 250 244 292 m 256 354 q 289 313 247 313 l 497 313 q 547 354 539 313 q 513 396 554 396 l 304 396 q 256 354 263 396 m 253 104 l 461 104 q 510 146 503 104 q 475 188 517 188 l 267 188 q 218 146 225 188 q 253 104 211 104 z "},",":{"ha":458,"x_min":67,"x_max":410,"o":"m 93 146 q 126 104 85 104 l 335 104 q 385 146 376 104 q 350 188 392 188 l 142 188 q 93 146 100 188 m 111 250 q 146 208 104 208 l 354 208 q 403 250 396 208 q 368 292 410 292 l 160 292 q 111 250 118 292 m 108 0 l 317 0 q 365 42 358 0 q 332 83 374 83 l 124 83 q 74 42 82 83 q 108 0 67 0 m 160 -62 q 194 -104 153 -104 l 299 -104 q 347 -62 340 -104 q 313 -21 354 -21 l 208 -21 q 160 -62 167 -21 z "},"-":{"ha":875,"x_min":57,"x_max":818,"o":"m 83 563 q 118 521 76 521 l 743 521 q 792 563 785 521 q 757 604 799 604 l 132 604 q 83 563 90 604 m 101 667 q 136 625 94 625 l 761 625 q 810 667 803 625 q 776 708 818 708 l 151 708 q 101 667 110 708 m 99 417 l 724 417 q 774 458 765 417 q 739 500 781 500 l 114 500 q 65 458 72 500 q 99 417 57 417 z "},"‐":{"ha":875,"x_min":57,"x_max":818,"o":"m 83 563 q 118 521 76 521 l 743 521 q 792 563 785 521 q 757 604 799 604 l 132 604 q 83 563 90 604 m 101 667 q 136 625 94 625 l 761 625 q 810 667 803 625 q 776 708 818 708 l 151 708 q 101 667 110 708 m 99 417 l 724 417 q 774 458 765 417 q 739 500 781 500 l 114 500 q 65 458 72 500 q 99 417 57 417 z "},".":{"ha":458,"x_min":57,"x_max":401,"o":"m 83 146 q 118 104 76 104 l 326 104 q 375 146 368 104 q 340 188 382 188 l 132 188 q 83 146 90 188 m 101 250 q 136 208 94 208 l 344 208 q 393 250 386 208 q 360 292 401 292 l 151 292 q 101 250 110 292 m 99 0 l 307 0 q 357 42 349 0 q 322 83 364 83 l 114 83 q 65 42 72 83 q 99 0 57 0 z "},"/":{"ha":665,"x_min":-15,"x_max":682,"o":"m 381 833 l 589 833 q 639 875 631 833 q 604 917 646 917 l 396 917 q 347 875 354 917 q 381 833 339 833 m 400 938 l 608 938 q 657 979 650 938 q 622 1021 664 1021 l 414 1021 q 365 979 372 1021 q 400 938 358 938 m 418 1042 l 626 1042 q 675 1083 668 1042 q 640 1125 682 1125 l 432 1125 q 383 1083 390 1125 q 418 1042 376 1042 m 26 0 l 235 0 q 283 42 276 0 q 249 83 290 83 l 40 83 q -8 42 -1 83 q 26 0 -15 0 m 44 104 l 253 104 q 301 146 294 104 q 267 188 308 188 l 58 188 q 10 146 17 188 q 44 104 3 104 m 63 208 l 271 208 q 319 250 313 208 q 286 292 328 292 l 78 292 q 28 250 36 292 q 63 208 21 208 m 206 667 q 240 625 199 625 l 449 625 q 497 667 490 625 q 464 708 506 708 l 256 708 q 206 667 214 708 m 81 313 l 289 313 q 339 354 331 313 q 304 396 346 396 l 96 396 q 47 354 54 396 q 81 313 39 313 m 363 729 l 571 729 q 619 771 613 729 q 586 813 628 813 l 378 813 q 328 771 336 813 q 363 729 321 729 m 169 458 q 203 417 161 417 l 411 417 q 461 458 453 417 q 426 500 468 500 l 218 500 q 169 458 176 500 m 222 521 l 431 521 q 479 563 472 521 q 444 604 486 604 l 236 604 q 188 563 194 604 q 222 521 181 521 z "},":":{"ha":458,"x_min":21,"x_max":438,"o":"m 47 146 q 81 104 39 104 l 289 104 q 339 146 331 104 q 304 188 346 188 l 96 188 q 47 146 54 188 m 65 250 q 99 208 57 208 l 307 208 q 357 250 349 208 q 322 292 364 292 l 114 292 q 65 250 72 292 m 63 0 l 271 0 q 319 42 313 0 q 286 83 328 83 l 78 83 q 28 42 36 83 q 63 0 21 0 m 119 563 q 154 521 113 521 l 363 521 q 411 563 404 521 q 378 604 419 604 l 169 604 q 119 563 128 604 m 139 667 q 172 625 131 625 l 381 625 q 431 667 422 625 q 396 708 438 708 l 188 708 q 139 667 146 708 m 136 417 l 344 417 q 393 458 386 417 q 360 500 401 500 l 151 500 q 101 458 110 500 q 136 417 94 417 z "},";":{"ha":458,"x_min":31,"x_max":447,"o":"m 129 563 q 164 521 122 521 l 372 521 q 421 563 414 521 q 386 604 428 604 l 178 604 q 129 563 136 604 m 147 667 q 182 625 140 625 l 390 625 q 439 667 432 625 q 406 708 447 708 l 197 708 q 147 667 156 708 m 146 417 l 354 417 q 403 458 396 417 q 368 500 410 500 l 160 500 q 111 458 118 500 q 146 417 104 417 m 56 146 q 90 104 49 104 l 299 104 q 347 146 340 104 q 313 188 354 188 l 104 188 q 56 146 63 188 m 74 250 q 108 208 67 208 l 317 208 q 365 250 358 208 q 332 292 374 292 l 124 292 q 74 250 82 292 m 72 0 l 281 0 q 329 42 322 0 q 294 83 336 83 l 86 83 q 38 42 44 83 q 72 0 31 0 m 124 -62 q 157 -104 115 -104 l 261 -104 q 311 -62 303 -104 q 276 -21 318 -21 l 172 -21 q 124 -62 131 -21 z "},"<":{"ha":772,"x_min":76,"x_max":732,"o":"m 206 667 q 240 625 199 625 l 553 625 q 601 667 594 625 q 568 708 610 708 l 256 708 q 206 667 214 708 m 203 417 l 515 417 q 565 458 557 417 q 531 500 572 500 l 218 500 q 169 458 176 500 q 203 417 161 417 m 363 729 l 675 729 q 724 771 717 729 q 690 813 732 813 l 378 813 q 328 771 336 813 q 363 729 321 729 m 256 354 q 289 313 247 313 l 601 313 q 651 354 643 313 q 617 396 658 396 l 304 396 q 256 354 263 396 m 83 563 q 118 521 76 521 l 431 521 q 479 563 472 521 q 444 604 486 604 l 132 604 q 83 563 90 604 z "},"=":{"ha":875,"x_min":21,"x_max":854,"o":"m 101 667 q 136 625 94 625 l 761 625 q 810 667 803 625 q 776 708 818 708 l 151 708 q 101 667 110 708 m 99 417 l 724 417 q 774 458 765 417 q 739 500 781 500 l 114 500 q 65 458 72 500 q 99 417 57 417 m 139 875 q 172 833 131 833 l 797 833 q 847 875 839 833 q 813 917 854 917 l 188 917 q 139 875 146 917 m 154 729 l 779 729 q 828 771 821 729 q 794 813 836 813 l 169 813 q 119 771 128 813 q 154 729 113 729 m 47 354 q 81 313 39 313 l 706 313 q 756 354 747 313 q 721 396 763 396 l 96 396 q 47 354 54 396 m 63 208 l 688 208 q 736 250 729 208 q 703 292 744 292 l 78 292 q 28 250 36 292 q 63 208 21 208 z "},">":{"ha":771,"x_min":38,"x_max":693,"o":"m 600 667 q 551 625 593 625 l 239 625 q 204 667 197 625 q 254 708 213 708 l 567 708 q 600 667 608 708 m 514 417 l 201 417 q 168 458 160 417 q 217 500 175 500 l 529 500 q 564 458 571 500 q 514 417 556 417 m 465 729 l 154 729 q 119 771 113 729 q 169 813 128 813 l 481 813 q 514 771 522 813 q 465 729 507 729 m 442 354 q 392 313 433 313 l 79 313 q 46 354 38 313 q 94 396 53 396 l 407 396 q 442 354 449 396 m 686 563 q 638 521 679 521 l 325 521 q 290 563 283 521 q 339 604 297 604 l 651 604 q 686 563 693 604 z "},"?":{"ha":875,"x_min":131,"x_max":872,"o":"m 192 938 l 817 938 q 865 979 858 938 q 831 1021 872 1021 l 206 1021 q 157 979 164 1021 q 192 938 150 938 m 172 833 l 797 833 q 847 875 839 833 q 813 917 854 917 l 188 917 q 139 875 146 917 q 172 833 131 833 m 271 208 l 479 208 q 528 250 521 208 q 494 292 536 292 l 286 292 q 236 250 244 292 q 271 208 229 208 m 235 0 l 443 0 q 492 42 485 0 q 457 83 499 83 l 249 83 q 200 42 207 83 q 235 0 193 0 m 253 104 l 461 104 q 510 146 503 104 q 475 188 517 188 l 267 188 q 218 146 225 188 q 253 104 211 104 m 210 1042 l 731 1042 q 779 1083 772 1042 q 744 1125 786 1125 l 224 1125 q 175 1083 182 1125 q 210 1042 168 1042 m 571 729 l 779 729 q 828 771 821 729 q 794 813 836 813 l 586 813 q 536 771 544 813 q 571 729 529 729 m 326 521 l 639 521 q 688 563 681 521 q 653 604 694 604 l 340 604 q 292 563 299 604 q 326 521 285 521 m 274 458 q 307 417 265 417 l 515 417 q 565 458 557 417 q 531 500 572 500 l 322 500 q 274 458 281 500 m 414 667 q 449 625 407 625 l 761 625 q 810 667 803 625 q 776 708 818 708 l 464 708 q 414 667 422 708 z "},"@":{"ha":1272,"x_min":3,"x_max":1250,"o":"m 44 104 l 1065 104 q 1114 146 1107 104 q 1079 188 1121 188 l 58 188 q 10 146 17 188 q 44 104 3 104 m 192 938 l 1192 938 q 1240 979 1233 938 q 1206 1021 1247 1021 l 206 1021 q 157 979 164 1021 q 192 938 150 938 m 96 42 q 131 0 89 0 l 943 0 q 992 42 985 0 q 957 83 999 83 l 144 83 q 96 42 103 83 m 279 1083 q 314 1042 272 1042 l 1106 1042 q 1154 1083 1147 1042 q 1119 1125 1161 1125 l 328 1125 q 279 1083 286 1125 m 464 354 q 497 313 456 313 l 1101 313 q 1151 354 1143 313 q 1117 396 1158 396 l 513 396 q 464 354 471 396 m 536 771 q 571 729 529 729 l 779 729 q 828 771 821 729 q 794 813 836 813 l 586 813 q 536 771 544 813 m 449 625 l 553 625 q 601 667 594 625 q 568 708 610 708 l 464 708 q 414 667 422 708 q 449 625 407 625 m 1036 771 q 1071 729 1029 729 l 1175 729 q 1224 771 1217 729 q 1190 813 1232 813 l 1086 813 q 1036 771 1044 813 m 47 354 q 81 313 39 313 l 185 313 q 235 354 226 313 q 200 396 242 396 l 96 396 q 47 354 54 396 m 136 625 l 240 625 q 289 667 282 625 q 256 708 297 708 l 151 708 q 101 667 110 708 q 136 625 94 625 m 378 458 q 411 417 369 417 l 515 417 q 565 458 557 417 q 531 500 572 500 l 426 500 q 378 458 385 500 m 139 875 q 172 833 131 833 l 276 833 q 326 875 318 833 q 292 917 333 917 l 188 917 q 139 875 146 917 m 28 250 q 63 208 21 208 l 167 208 q 215 250 208 208 q 182 292 224 292 l 78 292 q 28 250 36 292 m 690 458 q 724 417 682 417 l 828 417 q 878 458 869 417 q 843 500 885 500 l 739 500 q 690 458 697 500 m 1053 625 l 1157 625 q 1206 667 1199 625 q 1172 708 1214 708 l 1068 708 q 1018 667 1026 708 q 1053 625 1011 625 m 761 625 l 865 625 q 914 667 907 625 q 881 708 922 708 l 776 708 q 726 667 735 708 q 761 625 719 625 m 119 771 q 154 729 113 729 l 258 729 q 307 771 300 729 q 274 813 315 813 l 169 813 q 119 771 128 813 m 83 563 q 118 521 76 521 l 222 521 q 271 563 264 521 q 236 604 278 604 l 132 604 q 83 563 90 604 m 1000 563 q 1035 521 993 521 l 1139 521 q 1188 563 1181 521 q 1153 604 1194 604 l 1049 604 q 1000 563 1007 604 m 982 458 q 1015 417 974 417 l 1119 417 q 1169 458 1161 417 q 1135 500 1176 500 l 1031 500 q 982 458 989 500 m 708 563 q 743 521 701 521 l 847 521 q 896 563 889 521 q 861 604 903 604 l 757 604 q 708 563 715 604 m 1056 875 q 1089 833 1047 833 l 1193 833 q 1243 875 1235 833 q 1208 917 1250 917 l 1104 917 q 1056 875 1063 917 m 396 563 q 431 521 389 521 l 535 521 q 583 563 576 521 q 549 604 590 604 l 444 604 q 396 563 403 604 m 65 458 q 99 417 57 417 l 203 417 q 253 458 244 417 q 218 500 260 500 l 114 500 q 65 458 72 500 z "},"A":{"ha":875,"x_min":-15,"x_max":872,"o":"m 139 875 q 172 833 131 833 l 797 833 q 847 875 839 833 q 813 917 854 917 l 188 917 q 139 875 146 917 m 83 563 q 118 521 76 521 l 743 521 q 792 563 785 521 q 757 604 799 604 l 132 604 q 83 563 90 604 m 157 979 q 192 938 150 938 l 817 938 q 865 979 858 938 q 831 1021 872 1021 l 206 1021 q 157 979 164 1021 m 65 458 q 99 417 57 417 l 724 417 q 774 458 765 417 q 739 500 781 500 l 114 500 q 65 458 72 500 m 47 354 q 81 313 39 313 l 706 313 q 756 354 747 313 q 721 396 763 396 l 96 396 q 47 354 54 396 m 279 1083 q 314 1042 272 1042 l 731 1042 q 779 1083 772 1042 q 744 1125 786 1125 l 328 1125 q 279 1083 286 1125 m 408 42 q 443 0 401 0 l 651 0 q 700 42 693 0 q 665 83 707 83 l 457 83 q 408 42 415 83 m 518 667 q 553 625 511 625 l 761 625 q 810 667 803 625 q 776 708 818 708 l 568 708 q 518 667 526 708 m 426 146 q 461 104 419 104 l 669 104 q 718 146 711 104 q 683 188 725 188 l 475 188 q 426 146 433 188 m 119 771 q 154 729 113 729 l 363 729 q 411 771 404 729 q 378 813 419 813 l 169 813 q 119 771 128 813 m 536 771 q 571 729 529 729 l 779 729 q 828 771 821 729 q 794 813 836 813 l 586 813 q 536 771 544 813 m -8 42 q 26 0 -15 0 l 235 0 q 283 42 276 0 q 249 83 290 83 l 40 83 q -8 42 -1 83 m 101 667 q 136 625 94 625 l 344 625 q 393 667 386 625 q 360 708 401 708 l 151 708 q 101 667 110 708 m 44 104 l 253 104 q 301 146 294 104 q 267 188 308 188 l 58 188 q 10 146 17 188 q 44 104 3 104 m 479 208 l 688 208 q 736 250 729 208 q 703 292 744 292 l 494 292 q 444 250 453 292 q 479 208 438 208 m 28 250 q 63 208 21 208 l 271 208 q 319 250 313 208 q 286 292 328 292 l 78 292 q 28 250 36 292 z "},"B":{"ha":875,"x_min":-15,"x_max":872,"o":"m 192 938 l 817 938 q 865 979 858 938 q 831 1021 872 1021 l 206 1021 q 157 979 164 1021 q 192 938 150 938 m 210 1042 l 731 1042 q 779 1083 772 1042 q 744 1125 786 1125 l 224 1125 q 175 1083 182 1125 q 210 1042 168 1042 m 172 833 l 797 833 q 847 875 839 833 q 813 917 854 917 l 188 917 q 139 875 146 917 q 172 833 131 833 m 136 625 l 761 625 q 810 667 803 625 q 776 708 818 708 l 151 708 q 101 667 110 708 q 136 625 94 625 m 99 417 l 724 417 q 774 458 765 417 q 739 500 781 500 l 114 500 q 65 458 72 500 q 99 417 57 417 m 63 208 l 688 208 q 736 250 729 208 q 703 292 744 292 l 78 292 q 28 250 36 292 q 63 208 21 208 m 44 104 l 669 104 q 718 146 711 104 q 683 188 725 188 l 58 188 q 10 146 17 188 q 44 104 3 104 m 119 771 q 154 729 113 729 l 363 729 q 411 771 404 729 q 378 813 419 813 l 169 813 q 119 771 128 813 m 536 771 q 571 729 529 729 l 779 729 q 828 771 821 729 q 794 813 836 813 l 586 813 q 536 771 544 813 m 47 354 q 81 313 39 313 l 289 313 q 339 354 331 313 q 304 396 346 396 l 96 396 q 47 354 54 396 m 464 354 q 497 313 456 313 l 706 313 q 756 354 747 313 q 721 396 763 396 l 513 396 q 464 354 471 396 m -8 42 q 26 0 -15 0 l 547 0 q 596 42 589 0 q 561 83 603 83 l 40 83 q -8 42 -1 83 m 83 563 q 118 521 76 521 l 639 521 q 688 563 681 521 q 653 604 694 604 l 132 604 q 83 563 90 604 z "},"C":{"ha":875,"x_min":3,"x_max":872,"o":"m 172 833 l 797 833 q 847 875 839 833 q 813 917 854 917 l 188 917 q 139 875 146 917 q 172 833 131 833 m 192 938 l 817 938 q 865 979 858 938 q 831 1021 872 1021 l 206 1021 q 157 979 164 1021 q 192 938 150 938 m 63 208 l 688 208 q 736 250 729 208 q 703 292 744 292 l 78 292 q 28 250 36 292 q 63 208 21 208 m 44 104 l 669 104 q 718 146 711 104 q 683 188 725 188 l 58 188 q 10 146 17 188 q 44 104 3 104 m 83 563 q 118 521 76 521 l 326 521 q 375 563 368 521 q 340 604 382 604 l 132 604 q 83 563 90 604 m 101 667 q 136 625 94 625 l 344 625 q 393 667 386 625 q 360 708 401 708 l 151 708 q 101 667 110 708 m 154 729 l 363 729 q 411 771 404 729 q 378 813 419 813 l 169 813 q 119 771 128 813 q 154 729 113 729 m 47 354 q 81 313 39 313 l 289 313 q 339 354 331 313 q 304 396 346 396 l 96 396 q 47 354 54 396 m 65 458 q 99 417 57 417 l 307 417 q 357 458 349 417 q 322 500 364 500 l 114 500 q 65 458 72 500 m 464 354 q 497 313 456 313 l 706 313 q 756 354 747 313 q 721 396 763 396 l 513 396 q 464 354 471 396 m 536 771 q 571 729 529 729 l 779 729 q 828 771 821 729 q 794 813 836 813 l 586 813 q 536 771 544 813 m 96 42 q 131 0 89 0 l 547 0 q 596 42 589 0 q 561 83 603 83 l 144 83 q 96 42 103 83 m 279 1083 q 314 1042 272 1042 l 731 1042 q 779 1083 772 1042 q 744 1125 786 1125 l 328 1125 q 279 1083 286 1125 z "},"D":{"ha":875,"x_min":-15,"x_max":872,"o":"m 172 833 l 797 833 q 847 875 839 833 q 813 917 854 917 l 188 917 q 139 875 146 917 q 172 833 131 833 m 192 938 l 817 938 q 865 979 858 938 q 831 1021 872 1021 l 206 1021 q 157 979 164 1021 q 192 938 150 938 m 63 208 l 688 208 q 736 250 729 208 q 703 292 744 292 l 78 292 q 28 250 36 292 q 63 208 21 208 m 44 104 l 669 104 q 718 146 711 104 q 683 188 725 188 l 58 188 q 10 146 17 188 q 44 104 3 104 m 83 563 q 118 521 76 521 l 326 521 q 375 563 368 521 q 340 604 382 604 l 132 604 q 83 563 90 604 m 101 667 q 136 625 94 625 l 344 625 q 393 667 386 625 q 360 708 401 708 l 151 708 q 101 667 110 708 m 154 729 l 363 729 q 411 771 404 729 q 378 813 419 813 l 169 813 q 119 771 128 813 q 154 729 113 729 m 500 563 q 535 521 493 521 l 743 521 q 792 563 785 521 q 757 604 799 604 l 549 604 q 500 563 507 604 m 518 667 q 553 625 511 625 l 761 625 q 810 667 803 625 q 776 708 818 708 l 568 708 q 518 667 526 708 m 571 729 l 779 729 q 828 771 821 729 q 794 813 836 813 l 586 813 q 536 771 544 813 q 571 729 529 729 m 47 354 q 81 313 39 313 l 289 313 q 339 354 331 313 q 304 396 346 396 l 96 396 q 47 354 54 396 m 65 458 q 99 417 57 417 l 307 417 q 357 458 349 417 q 322 500 364 500 l 114 500 q 65 458 72 500 m 464 354 q 497 313 456 313 l 706 313 q 756 354 747 313 q 721 396 763 396 l 513 396 q 464 354 471 396 m 482 458 q 515 417 474 417 l 724 417 q 774 458 765 417 q 739 500 781 500 l 531 500 q 482 458 489 500 m 175 1083 q 210 1042 168 1042 l 731 1042 q 779 1083 772 1042 q 744 1125 786 1125 l 224 1125 q 175 1083 182 1125 m -8 42 q 26 0 -15 0 l 547 0 q 596 42 589 0 q 561 83 603 83 l 40 83 q -8 42 -1 83 z "},"E":{"ha":875,"x_min":3,"x_max":890,"o":"m 172 833 l 797 833 q 847 875 839 833 q 813 917 854 917 l 188 917 q 139 875 146 917 q 172 833 131 833 m 192 938 l 817 938 q 865 979 858 938 q 831 1021 872 1021 l 206 1021 q 157 979 164 1021 q 192 938 150 938 m 136 625 l 761 625 q 810 667 803 625 q 776 708 818 708 l 151 708 q 101 667 110 708 q 136 625 94 625 m 118 521 l 743 521 q 792 563 785 521 q 757 604 799 604 l 132 604 q 83 563 90 604 q 118 521 76 521 m 99 417 l 724 417 q 774 458 765 417 q 739 500 781 500 l 114 500 q 65 458 72 500 q 99 417 57 417 m 63 208 l 688 208 q 736 250 729 208 q 703 292 744 292 l 78 292 q 28 250 36 292 q 63 208 21 208 m 44 104 l 669 104 q 718 146 711 104 q 683 188 725 188 l 58 188 q 10 146 17 188 q 44 104 3 104 m 47 354 q 81 313 39 313 l 289 313 q 339 354 331 313 q 304 396 346 396 l 96 396 q 47 354 54 396 m 154 729 l 363 729 q 411 771 404 729 q 378 813 419 813 l 169 813 q 119 771 128 813 q 154 729 113 729 m 96 42 q 131 0 89 0 l 651 0 q 700 42 693 0 q 665 83 707 83 l 144 83 q 96 42 103 83 m 279 1083 q 314 1042 272 1042 l 835 1042 q 883 1083 876 1042 q 849 1125 890 1125 l 328 1125 q 279 1083 286 1125 z "},"F":{"ha":875,"x_min":-15,"x_max":890,"o":"m 99 417 l 724 417 q 774 458 765 417 q 739 500 781 500 l 114 500 q 65 458 72 500 q 99 417 57 417 m 118 521 l 743 521 q 792 563 785 521 q 757 604 799 604 l 132 604 q 83 563 90 604 q 118 521 76 521 m 136 625 l 761 625 q 810 667 803 625 q 776 708 818 708 l 151 708 q 101 667 110 708 q 136 625 94 625 m 172 833 l 797 833 q 847 875 839 833 q 813 917 854 917 l 188 917 q 139 875 146 917 q 172 833 131 833 m 192 938 l 817 938 q 865 979 858 938 q 831 1021 872 1021 l 206 1021 q 157 979 164 1021 q 192 938 150 938 m 10 146 q 44 104 3 104 l 253 104 q 301 146 294 104 q 267 188 308 188 l 58 188 q 10 146 17 188 m 28 250 q 63 208 21 208 l 271 208 q 319 250 313 208 q 286 292 328 292 l 78 292 q 28 250 36 292 m 81 313 l 289 313 q 339 354 331 313 q 304 396 346 396 l 96 396 q 47 354 54 396 q 81 313 39 313 m 26 0 l 235 0 q 283 42 276 0 q 249 83 290 83 l 40 83 q -8 42 -1 83 q 26 0 -15 0 m 119 771 q 154 729 113 729 l 363 729 q 411 771 404 729 q 378 813 419 813 l 169 813 q 119 771 128 813 m 279 1083 q 314 1042 272 1042 l 835 1042 q 883 1083 876 1042 q 849 1125 890 1125 l 328 1125 q 279 1083 286 1125 z "},"G":{"ha":875,"x_min":3,"x_max":872,"o":"m 172 833 l 797 833 q 847 875 839 833 q 813 917 854 917 l 188 917 q 139 875 146 917 q 172 833 131 833 m 192 938 l 817 938 q 865 979 858 938 q 831 1021 872 1021 l 206 1021 q 157 979 164 1021 q 192 938 150 938 m 63 208 l 688 208 q 736 250 729 208 q 703 292 744 292 l 78 292 q 28 250 36 292 q 63 208 21 208 m 44 104 l 669 104 q 718 146 711 104 q 683 188 725 188 l 58 188 q 10 146 17 188 q 44 104 3 104 m 83 563 q 118 521 76 521 l 326 521 q 375 563 368 521 q 340 604 382 604 l 132 604 q 83 563 90 604 m 101 667 q 136 625 94 625 l 344 625 q 393 667 386 625 q 360 708 401 708 l 151 708 q 101 667 110 708 m 154 729 l 363 729 q 411 771 404 729 q 378 813 419 813 l 169 813 q 119 771 128 813 q 154 729 113 729 m 47 354 q 81 313 39 313 l 289 313 q 339 354 331 313 q 304 396 346 396 l 96 396 q 47 354 54 396 m 65 458 q 99 417 57 417 l 307 417 q 357 458 349 417 q 322 500 364 500 l 114 500 q 65 458 72 500 m 571 729 l 779 729 q 828 771 821 729 q 794 813 836 813 l 586 813 q 536 771 544 813 q 571 729 529 729 m 464 354 q 497 313 456 313 l 706 313 q 756 354 747 313 q 721 396 763 396 l 513 396 q 464 354 471 396 m 482 458 q 515 417 474 417 l 724 417 q 774 458 765 417 q 739 500 781 500 l 531 500 q 482 458 489 500 m 131 0 l 651 0 q 700 42 693 0 q 665 83 707 83 l 144 83 q 96 42 103 83 q 131 0 89 0 m 279 1083 q 314 1042 272 1042 l 731 1042 q 779 1083 772 1042 q 744 1125 786 1125 l 328 1125 q 279 1083 286 1125 m 500 563 q 535 521 493 521 l 743 521 q 792 563 785 521 q 757 604 799 604 l 549 604 q 500 563 507 604 z "},"H":{"ha":875,"x_min":-15,"x_max":890,"o":"m 136 625 l 761 625 q 810 667 803 625 q 776 708 818 708 l 151 708 q 101 667 110 708 q 136 625 94 625 m 118 521 l 743 521 q 792 563 785 521 q 757 604 799 604 l 132 604 q 83 563 90 604 q 118 521 76 521 m 99 417 l 724 417 q 774 458 765 417 q 739 500 781 500 l 114 500 q 65 458 72 500 q 99 417 57 417 m 119 771 q 154 729 113 729 l 363 729 q 411 771 404 729 q 378 813 419 813 l 169 813 q 119 771 128 813 m 139 875 q 172 833 131 833 l 381 833 q 431 875 422 833 q 396 917 438 917 l 188 917 q 139 875 146 917 m 192 938 l 400 938 q 449 979 442 938 q 414 1021 456 1021 l 206 1021 q 157 979 164 1021 q 192 938 150 938 m 536 771 q 571 729 529 729 l 779 729 q 828 771 821 729 q 794 813 836 813 l 586 813 q 536 771 544 813 m 556 875 q 589 833 547 833 l 797 833 q 847 875 839 833 q 813 917 854 917 l 604 917 q 556 875 563 917 m 608 938 l 817 938 q 865 979 858 938 q 831 1021 872 1021 l 622 1021 q 574 979 581 1021 q 608 938 567 938 m 175 1083 q 210 1042 168 1042 l 418 1042 q 467 1083 460 1042 q 432 1125 474 1125 l 224 1125 q 175 1083 182 1125 m 626 1042 l 835 1042 q 883 1083 876 1042 q 849 1125 890 1125 l 640 1125 q 592 1083 599 1125 q 626 1042 585 1042 m -8 42 q 26 0 -15 0 l 235 0 q 283 42 276 0 q 249 83 290 83 l 40 83 q -8 42 -1 83 m 10 146 q 44 104 3 104 l 253 104 q 301 146 294 104 q 267 188 308 188 l 58 188 q 10 146 17 188 m 63 208 l 271 208 q 319 250 313 208 q 286 292 328 292 l 78 292 q 28 250 36 292 q 63 208 21 208 m 408 42 q 443 0 401 0 l 651 0 q 700 42 693 0 q 665 83 707 83 l 457 83 q 408 42 415 83 m 426 146 q 461 104 419 104 l 669 104 q 718 146 711 104 q 683 188 725 188 l 475 188 q 426 146 433 188 m 479 208 l 688 208 q 736 250 729 208 q 703 292 744 292 l 494 292 q 444 250 453 292 q 479 208 438 208 m 47 354 q 81 313 39 313 l 289 313 q 339 354 331 313 q 304 396 346 396 l 96 396 q 47 354 54 396 m 497 313 l 706 313 q 756 354 747 313 q 721 396 763 396 l 513 396 q 464 354 471 396 q 497 313 456 313 z "},"I":{"ha":667,"x_min":-15,"x_max":682,"o":"m 169 458 q 203 417 161 417 l 411 417 q 461 458 453 417 q 426 500 468 500 l 218 500 q 169 458 176 500 m 188 563 q 222 521 181 521 l 431 521 q 479 563 472 521 q 444 604 486 604 l 236 604 q 188 563 194 604 m 240 625 l 449 625 q 497 667 490 625 q 464 708 506 708 l 256 708 q 206 667 214 708 q 240 625 199 625 m 139 875 q 172 833 131 833 l 589 833 q 639 875 631 833 q 604 917 646 917 l 188 917 q 139 875 146 917 m 157 979 q 192 938 150 938 l 608 938 q 657 979 650 938 q 622 1021 664 1021 l 206 1021 q 157 979 164 1021 m 210 1042 l 626 1042 q 675 1083 668 1042 q 640 1125 682 1125 l 224 1125 q 175 1083 182 1125 q 210 1042 168 1042 m 224 771 q 258 729 217 729 l 467 729 q 515 771 508 729 q 482 813 524 813 l 274 813 q 224 771 232 813 m 185 313 l 393 313 q 443 354 435 313 q 408 396 450 396 l 200 396 q 151 354 158 396 q 185 313 143 313 m -8 42 q 26 0 -15 0 l 443 0 q 492 42 485 0 q 457 83 499 83 l 40 83 q -8 42 -1 83 m 44 104 l 461 104 q 510 146 503 104 q 475 188 517 188 l 58 188 q 10 146 17 188 q 44 104 3 104 m 28 250 q 63 208 21 208 l 479 208 q 528 250 521 208 q 494 292 536 292 l 78 292 q 28 250 36 292 z "},"J":{"ha":875,"x_min":3,"x_max":890,"o":"m 63 208 l 688 208 q 736 250 729 208 q 703 292 744 292 l 78 292 q 28 250 36 292 q 63 208 21 208 m 44 104 l 669 104 q 718 146 711 104 q 683 188 725 188 l 58 188 q 10 146 17 188 q 44 104 3 104 m 47 354 q 81 313 39 313 l 289 313 q 339 354 331 313 q 304 396 346 396 l 96 396 q 47 354 54 396 m 65 458 q 99 417 57 417 l 307 417 q 357 458 349 417 q 322 500 364 500 l 114 500 q 65 458 72 500 m 118 521 l 326 521 q 375 563 368 521 q 340 604 382 604 l 132 604 q 83 563 90 604 q 118 521 76 521 m 464 354 q 497 313 456 313 l 706 313 q 756 354 747 313 q 721 396 763 396 l 513 396 q 464 354 471 396 m 482 458 q 515 417 474 417 l 724 417 q 774 458 765 417 q 739 500 781 500 l 531 500 q 482 458 489 500 m 535 521 l 743 521 q 792 563 785 521 q 757 604 799 604 l 549 604 q 500 563 507 604 q 535 521 493 521 m 553 625 l 761 625 q 810 667 803 625 q 776 708 818 708 l 568 708 q 518 667 526 708 q 553 625 511 625 m 536 771 q 571 729 529 729 l 779 729 q 828 771 821 729 q 794 813 836 813 l 586 813 q 536 771 544 813 m 556 875 q 589 833 547 833 l 797 833 q 847 875 839 833 q 813 917 854 917 l 604 917 q 556 875 563 917 m 608 938 l 817 938 q 865 979 858 938 q 831 1021 872 1021 l 622 1021 q 574 979 581 1021 q 608 938 567 938 m 96 42 q 131 0 89 0 l 547 0 q 596 42 589 0 q 561 83 603 83 l 144 83 q 96 42 103 83 m 592 1083 q 626 1042 585 1042 l 835 1042 q 883 1083 876 1042 q 849 1125 890 1125 l 640 1125 q 592 1083 599 1125 z "},"K":{"ha":875,"x_min":-15,"x_max":890,"o":"m 136 625 l 657 625 q 706 667 699 625 q 672 708 714 708 l 151 708 q 101 667 110 708 q 136 625 94 625 m 99 417 l 619 417 q 669 458 661 417 q 635 500 676 500 l 114 500 q 65 458 72 500 q 99 417 57 417 m 119 771 q 154 729 113 729 l 363 729 q 411 771 404 729 q 378 813 419 813 l 169 813 q 119 771 128 813 m 139 875 q 172 833 131 833 l 381 833 q 431 875 422 833 q 396 917 438 917 l 188 917 q 139 875 146 917 m 192 938 l 400 938 q 449 979 442 938 q 414 1021 456 1021 l 206 1021 q 157 979 164 1021 q 192 938 150 938 m 536 771 q 571 729 529 729 l 779 729 q 828 771 821 729 q 794 813 836 813 l 586 813 q 536 771 544 813 m 556 875 q 589 833 547 833 l 797 833 q 847 875 839 833 q 813 917 854 917 l 604 917 q 556 875 563 917 m 608 938 l 817 938 q 865 979 858 938 q 831 1021 872 1021 l 622 1021 q 574 979 581 1021 q 608 938 567 938 m 175 1083 q 210 1042 168 1042 l 418 1042 q 467 1083 460 1042 q 432 1125 474 1125 l 224 1125 q 175 1083 182 1125 m 626 1042 l 835 1042 q 883 1083 876 1042 q 849 1125 890 1125 l 640 1125 q 592 1083 599 1125 q 626 1042 585 1042 m -8 42 q 26 0 -15 0 l 235 0 q 283 42 276 0 q 249 83 290 83 l 40 83 q -8 42 -1 83 m 10 146 q 44 104 3 104 l 253 104 q 301 146 294 104 q 267 188 308 188 l 58 188 q 10 146 17 188 m 63 208 l 271 208 q 319 250 313 208 q 286 292 328 292 l 78 292 q 28 250 36 292 q 63 208 21 208 m 408 42 q 443 0 401 0 l 651 0 q 700 42 693 0 q 665 83 707 83 l 457 83 q 408 42 415 83 m 426 146 q 461 104 419 104 l 669 104 q 718 146 711 104 q 683 188 725 188 l 475 188 q 426 146 433 188 m 479 208 l 688 208 q 736 250 729 208 q 703 292 744 292 l 494 292 q 444 250 453 292 q 479 208 438 208 m 47 354 q 81 313 39 313 l 289 313 q 339 354 331 313 q 304 396 346 396 l 96 396 q 47 354 54 396 m 497 313 l 706 313 q 756 354 747 313 q 721 396 763 396 l 513 396 q 464 354 471 396 q 497 313 456 313 m 83 563 q 118 521 76 521 l 535 521 q 583 563 576 521 q 549 604 590 604 l 132 604 q 83 563 90 604 z "},"L":{"ha":875,"x_min":3,"x_max":744,"o":"m 63 208 l 688 208 q 736 250 729 208 q 703 292 744 292 l 78 292 q 28 250 36 292 q 63 208 21 208 m 44 104 l 669 104 q 718 146 711 104 q 683 188 725 188 l 58 188 q 10 146 17 188 q 44 104 3 104 m 131 0 l 651 0 q 700 42 693 0 q 665 83 707 83 l 144 83 q 96 42 103 83 q 131 0 89 0 m 47 354 q 81 313 39 313 l 289 313 q 339 354 331 313 q 304 396 346 396 l 96 396 q 47 354 54 396 m 65 458 q 99 417 57 417 l 307 417 q 357 458 349 417 q 322 500 364 500 l 114 500 q 65 458 72 500 m 118 521 l 326 521 q 375 563 368 521 q 340 604 382 604 l 132 604 q 83 563 90 604 q 118 521 76 521 m 119 771 q 154 729 113 729 l 363 729 q 411 771 404 729 q 378 813 419 813 l 169 813 q 119 771 128 813 m 139 875 q 172 833 131 833 l 381 833 q 431 875 422 833 q 396 917 438 917 l 188 917 q 139 875 146 917 m 192 938 l 400 938 q 449 979 442 938 q 414 1021 456 1021 l 206 1021 q 157 979 164 1021 q 192 938 150 938 m 101 667 q 136 625 94 625 l 344 625 q 393 667 386 625 q 360 708 401 708 l 151 708 q 101 667 110 708 m 210 1042 l 418 1042 q 467 1083 460 1042 q 432 1125 474 1125 l 224 1125 q 175 1083 182 1125 q 210 1042 168 1042 z "},"M":{"ha":1292,"x_min":-15,"x_max":1289,"o":"m 192 938 l 1233 938 q 1282 979 1275 938 q 1247 1021 1289 1021 l 206 1021 q 157 979 164 1021 q 192 938 150 938 m 172 833 l 1214 833 q 1264 875 1256 833 q 1229 917 1271 917 l 188 917 q 139 875 146 917 q 172 833 131 833 m 65 458 q 99 417 57 417 l 307 417 q 357 458 349 417 q 322 500 364 500 l 114 500 q 65 458 72 500 m 83 563 q 118 521 76 521 l 326 521 q 375 563 368 521 q 340 604 382 604 l 132 604 q 83 563 90 604 m 136 625 l 344 625 q 393 667 386 625 q 360 708 401 708 l 151 708 q 101 667 110 708 q 136 625 94 625 m 482 458 q 515 417 474 417 l 724 417 q 774 458 765 417 q 739 500 781 500 l 531 500 q 482 458 489 500 m 500 563 q 535 521 493 521 l 743 521 q 792 563 785 521 q 757 604 799 604 l 549 604 q 500 563 507 604 m 553 625 l 761 625 q 810 667 803 625 q 776 708 818 708 l 568 708 q 518 667 526 708 q 553 625 511 625 m 119 771 q 154 729 113 729 l 363 729 q 411 771 404 729 q 378 813 419 813 l 169 813 q 119 771 128 813 m 571 729 l 779 729 q 828 771 821 729 q 794 813 836 813 l 586 813 q 536 771 544 813 q 571 729 529 729 m 899 458 q 932 417 890 417 l 1140 417 q 1190 458 1182 417 q 1156 500 1197 500 l 947 500 q 899 458 906 500 m 917 563 q 951 521 910 521 l 1160 521 q 1208 563 1201 521 q 1174 604 1215 604 l 965 604 q 917 563 924 604 m 969 625 l 1178 625 q 1226 667 1219 625 q 1193 708 1235 708 l 985 708 q 935 667 943 708 q 969 625 928 625 m -8 42 q 26 0 -15 0 l 235 0 q 283 42 276 0 q 249 83 290 83 l 40 83 q -8 42 -1 83 m 10 146 q 44 104 3 104 l 253 104 q 301 146 294 104 q 267 188 308 188 l 58 188 q 10 146 17 188 m 63 208 l 271 208 q 319 250 313 208 q 286 292 328 292 l 78 292 q 28 250 36 292 q 63 208 21 208 m 953 771 q 988 729 946 729 l 1196 729 q 1244 771 1238 729 q 1211 813 1253 813 l 1003 813 q 953 771 961 813 m 81 313 l 289 313 q 339 354 331 313 q 304 396 346 396 l 96 396 q 47 354 54 396 q 81 313 39 313 m 408 42 q 443 0 401 0 l 651 0 q 700 42 693 0 q 665 83 707 83 l 457 83 q 408 42 415 83 m 426 146 q 461 104 419 104 l 669 104 q 718 146 711 104 q 683 188 725 188 l 475 188 q 426 146 433 188 m 479 208 l 688 208 q 736 250 729 208 q 703 292 744 292 l 494 292 q 444 250 453 292 q 479 208 438 208 m 825 42 q 860 0 818 0 l 1068 0 q 1117 42 1110 0 q 1082 83 1124 83 l 874 83 q 825 42 832 83 m 843 146 q 878 104 836 104 l 1086 104 q 1135 146 1128 104 q 1100 188 1142 188 l 892 188 q 843 146 850 188 m 896 208 l 1104 208 q 1153 250 1146 208 q 1119 292 1161 292 l 911 292 q 861 250 869 292 q 896 208 854 208 m 464 354 q 497 313 456 313 l 706 313 q 756 354 747 313 q 721 396 763 396 l 513 396 q 464 354 471 396 m 914 313 l 1122 313 q 1172 354 1164 313 q 1138 396 1179 396 l 929 396 q 881 354 888 396 q 914 313 872 313 m 175 1083 q 210 1042 168 1042 l 1147 1042 q 1196 1083 1189 1042 q 1161 1125 1203 1125 l 224 1125 q 175 1083 182 1125 z "},"N":{"ha":875,"x_min":-15,"x_max":872,"o":"m 172 833 l 797 833 q 847 875 839 833 q 813 917 854 917 l 188 917 q 139 875 146 917 q 172 833 131 833 m 192 938 l 817 938 q 865 979 858 938 q 831 1021 872 1021 l 206 1021 q 157 979 164 1021 q 192 938 150 938 m 65 458 q 99 417 57 417 l 307 417 q 357 458 349 417 q 322 500 364 500 l 114 500 q 65 458 72 500 m 83 563 q 118 521 76 521 l 326 521 q 375 563 368 521 q 340 604 382 604 l 132 604 q 83 563 90 604 m 136 625 l 344 625 q 393 667 386 625 q 360 708 401 708 l 151 708 q 101 667 110 708 q 136 625 94 625 m 482 458 q 515 417 474 417 l 724 417 q 774 458 765 417 q 739 500 781 500 l 531 500 q 482 458 489 500 m 500 563 q 535 521 493 521 l 743 521 q 792 563 785 521 q 757 604 799 604 l 549 604 q 500 563 507 604 m 553 625 l 761 625 q 810 667 803 625 q 776 708 818 708 l 568 708 q 518 667 526 708 q 553 625 511 625 m 119 771 q 154 729 113 729 l 363 729 q 411 771 404 729 q 378 813 419 813 l 169 813 q 119 771 128 813 m 571 729 l 779 729 q 828 771 821 729 q 794 813 836 813 l 586 813 q 536 771 544 813 q 571 729 529 729 m -8 42 q 26 0 -15 0 l 235 0 q 283 42 276 0 q 249 83 290 83 l 40 83 q -8 42 -1 83 m 10 146 q 44 104 3 104 l 253 104 q 301 146 294 104 q 267 188 308 188 l 58 188 q 10 146 17 188 m 63 208 l 271 208 q 319 250 313 208 q 286 292 328 292 l 78 292 q 28 250 36 292 q 63 208 21 208 m 408 42 q 443 0 401 0 l 651 0 q 700 42 693 0 q 665 83 707 83 l 457 83 q 408 42 415 83 m 426 146 q 461 104 419 104 l 669 104 q 718 146 711 104 q 683 188 725 188 l 475 188 q 426 146 433 188 m 479 208 l 688 208 q 736 250 729 208 q 703 292 744 292 l 494 292 q 444 250 453 292 q 479 208 438 208 m 47 354 q 81 313 39 313 l 289 313 q 339 354 331 313 q 304 396 346 396 l 96 396 q 47 354 54 396 m 497 313 l 706 313 q 756 354 747 313 q 721 396 763 396 l 513 396 q 464 354 471 396 q 497 313 456 313 m 175 1083 q 210 1042 168 1042 l 731 1042 q 779 1083 772 1042 q 744 1125 786 1125 l 224 1125 q 175 1083 182 1125 z "},"O":{"ha":875,"x_min":3,"x_max":872,"o":"m 172 833 l 797 833 q 847 875 839 833 q 813 917 854 917 l 188 917 q 139 875 146 917 q 172 833 131 833 m 192 938 l 817 938 q 865 979 858 938 q 831 1021 872 1021 l 206 1021 q 157 979 164 1021 q 192 938 150 938 m 44 104 l 669 104 q 718 146 711 104 q 683 188 725 188 l 58 188 q 10 146 17 188 q 44 104 3 104 m 63 208 l 688 208 q 736 250 729 208 q 703 292 744 292 l 78 292 q 28 250 36 292 q 63 208 21 208 m 65 458 q 99 417 57 417 l 307 417 q 357 458 349 417 q 322 500 364 500 l 114 500 q 65 458 72 500 m 83 563 q 118 521 76 521 l 326 521 q 375 563 368 521 q 340 604 382 604 l 132 604 q 83 563 90 604 m 136 625 l 344 625 q 393 667 386 625 q 360 708 401 708 l 151 708 q 101 667 110 708 q 136 625 94 625 m 482 458 q 515 417 474 417 l 724 417 q 774 458 765 417 q 739 500 781 500 l 531 500 q 482 458 489 500 m 500 563 q 535 521 493 521 l 743 521 q 792 563 785 521 q 757 604 799 604 l 549 604 q 500 563 507 604 m 553 625 l 761 625 q 810 667 803 625 q 776 708 818 708 l 568 708 q 518 667 526 708 q 553 625 511 625 m 119 771 q 154 729 113 729 l 363 729 q 411 771 404 729 q 378 813 419 813 l 169 813 q 119 771 128 813 m 571 729 l 779 729 q 828 771 821 729 q 794 813 836 813 l 586 813 q 536 771 544 813 q 571 729 529 729 m 47 354 q 81 313 39 313 l 289 313 q 339 354 331 313 q 304 396 346 396 l 96 396 q 47 354 54 396 m 497 313 l 706 313 q 756 354 747 313 q 721 396 763 396 l 513 396 q 464 354 471 396 q 497 313 456 313 m 279 1083 q 314 1042 272 1042 l 731 1042 q 779 1083 772 1042 q 744 1125 786 1125 l 328 1125 q 279 1083 286 1125 m 96 42 q 131 0 89 0 l 547 0 q 596 42 589 0 q 561 83 603 83 l 144 83 q 96 42 103 83 z "},"P":{"ha":875,"x_min":-15,"x_max":872,"o":"m 172 833 l 797 833 q 847 875 839 833 q 813 917 854 917 l 188 917 q 139 875 146 917 q 172 833 131 833 m 192 938 l 817 938 q 865 979 858 938 q 831 1021 872 1021 l 206 1021 q 157 979 164 1021 q 192 938 150 938 m 118 521 l 743 521 q 792 563 785 521 q 757 604 799 604 l 132 604 q 83 563 90 604 q 118 521 76 521 m 136 625 l 761 625 q 810 667 803 625 q 776 708 818 708 l 151 708 q 101 667 110 708 q 136 625 94 625 m -8 42 q 26 0 -15 0 l 235 0 q 283 42 276 0 q 249 83 290 83 l 40 83 q -8 42 -1 83 m 10 146 q 44 104 3 104 l 253 104 q 301 146 294 104 q 267 188 308 188 l 58 188 q 10 146 17 188 m 63 208 l 271 208 q 319 250 313 208 q 286 292 328 292 l 78 292 q 28 250 36 292 q 63 208 21 208 m 47 354 q 81 313 39 313 l 289 313 q 339 354 331 313 q 304 396 346 396 l 96 396 q 47 354 54 396 m 119 771 q 154 729 113 729 l 363 729 q 411 771 404 729 q 378 813 419 813 l 169 813 q 119 771 128 813 m 536 771 q 571 729 529 729 l 779 729 q 828 771 821 729 q 794 813 836 813 l 586 813 q 536 771 544 813 m 65 458 q 99 417 57 417 l 619 417 q 669 458 661 417 q 635 500 676 500 l 114 500 q 65 458 72 500 m 175 1083 q 210 1042 168 1042 l 731 1042 q 779 1083 772 1042 q 744 1125 786 1125 l 224 1125 q 175 1083 182 1125 z "},"Q":{"ha":875,"x_min":11,"x_max":882,"o":"m 182 833 l 807 833 q 856 875 849 833 q 822 917 864 917 l 197 917 q 147 875 156 917 q 182 833 140 833 m 200 938 l 825 938 q 875 979 867 938 q 840 1021 882 1021 l 215 1021 q 167 979 174 1021 q 200 938 158 938 m 53 104 l 678 104 q 728 146 719 104 q 693 188 735 188 l 68 188 q 19 146 26 188 q 53 104 11 104 m 72 208 l 697 208 q 746 250 739 208 q 711 292 753 292 l 86 292 q 38 250 44 292 q 72 208 31 208 m 74 458 q 108 417 67 417 l 317 417 q 365 458 358 417 q 332 500 374 500 l 124 500 q 74 458 82 500 m 93 563 q 126 521 85 521 l 335 521 q 385 563 376 521 q 350 604 392 604 l 142 604 q 93 563 100 604 m 146 625 l 354 625 q 403 667 396 625 q 368 708 410 708 l 160 708 q 111 667 118 708 q 146 625 104 625 m 490 458 q 525 417 483 417 l 733 417 q 782 458 775 417 q 749 500 790 500 l 540 500 q 490 458 499 500 m 510 563 q 543 521 501 521 l 751 521 q 801 563 793 521 q 767 604 808 604 l 558 604 q 510 563 517 604 m 563 625 l 771 625 q 819 667 813 625 q 785 708 826 708 l 576 708 q 528 667 535 708 q 563 625 521 625 m 129 771 q 164 729 122 729 l 372 729 q 421 771 414 729 q 386 813 428 813 l 178 813 q 129 771 136 813 m 581 729 l 789 729 q 838 771 831 729 q 803 813 844 813 l 594 813 q 546 771 553 813 q 581 729 539 729 m 56 354 q 90 313 49 313 l 299 313 q 347 354 340 313 q 313 396 354 396 l 104 396 q 56 354 63 396 m 507 313 l 715 313 q 764 354 757 313 q 729 396 771 396 l 521 396 q 472 354 479 396 q 507 313 465 313 m 289 1083 q 322 1042 281 1042 l 739 1042 q 789 1083 781 1042 q 754 1125 796 1125 l 338 1125 q 289 1083 296 1125 m 104 42 q 139 0 97 0 l 660 0 q 708 42 701 0 q 675 83 717 83 l 154 83 q 104 42 113 83 m 433 -104 l 642 -104 q 690 -62 683 -104 q 657 -21 699 -21 l 449 -21 q 399 -62 407 -21 q 433 -104 392 -104 z "},"R":{"ha":875,"x_min":-15,"x_max":872,"o":"m 172 833 l 797 833 q 847 875 839 833 q 813 917 854 917 l 188 917 q 139 875 146 917 q 172 833 131 833 m 192 938 l 817 938 q 865 979 858 938 q 831 1021 872 1021 l 206 1021 q 157 979 164 1021 q 192 938 150 938 m 118 521 l 743 521 q 792 563 785 521 q 757 604 799 604 l 132 604 q 83 563 90 604 q 118 521 76 521 m 136 625 l 761 625 q 810 667 803 625 q 776 708 818 708 l 151 708 q 101 667 110 708 q 136 625 94 625 m -8 42 q 26 0 -15 0 l 235 0 q 283 42 276 0 q 249 83 290 83 l 40 83 q -8 42 -1 83 m 10 146 q 44 104 3 104 l 253 104 q 301 146 294 104 q 267 188 308 188 l 58 188 q 10 146 17 188 m 63 208 l 271 208 q 319 250 313 208 q 286 292 328 292 l 78 292 q 28 250 36 292 q 63 208 21 208 m 408 42 q 443 0 401 0 l 651 0 q 700 42 693 0 q 665 83 707 83 l 457 83 q 408 42 415 83 m 426 146 q 461 104 419 104 l 669 104 q 718 146 711 104 q 683 188 725 188 l 475 188 q 426 146 433 188 m 479 208 l 688 208 q 736 250 729 208 q 703 292 744 292 l 494 292 q 444 250 453 292 q 479 208 438 208 m 47 354 q 81 313 39 313 l 289 313 q 339 354 331 313 q 304 396 346 396 l 96 396 q 47 354 54 396 m 497 313 l 706 313 q 756 354 747 313 q 721 396 763 396 l 513 396 q 464 354 471 396 q 497 313 456 313 m 119 771 q 154 729 113 729 l 363 729 q 411 771 404 729 q 378 813 419 813 l 169 813 q 119 771 128 813 m 536 771 q 571 729 529 729 l 779 729 q 828 771 821 729 q 794 813 836 813 l 586 813 q 536 771 544 813 m 175 1083 q 210 1042 168 1042 l 731 1042 q 779 1083 772 1042 q 744 1125 786 1125 l 224 1125 q 175 1083 182 1125 m 65 458 q 99 417 57 417 l 619 417 q 669 458 661 417 q 635 500 676 500 l 114 500 q 65 458 72 500 z "},"S":{"ha":875,"x_min":-15,"x_max":890,"o":"m 44 104 l 669 104 q 718 146 711 104 q 683 188 725 188 l 58 188 q 10 146 17 188 q 44 104 3 104 m 63 208 l 688 208 q 736 250 729 208 q 703 292 744 292 l 78 292 q 28 250 36 292 q 63 208 21 208 m 172 833 l 797 833 q 847 875 839 833 q 813 917 854 917 l 188 917 q 139 875 146 917 q 172 833 131 833 m 192 938 l 817 938 q 865 979 858 938 q 831 1021 872 1021 l 206 1021 q 157 979 164 1021 q 192 938 150 938 m 464 354 q 497 313 456 313 l 706 313 q 756 354 747 313 q 721 396 763 396 l 513 396 q 464 354 471 396 m 119 771 q 154 729 113 729 l 363 729 q 411 771 404 729 q 378 813 419 813 l 169 813 q 119 771 128 813 m 101 667 q 136 625 94 625 l 657 625 q 706 667 699 625 q 672 708 714 708 l 151 708 q 101 667 110 708 m 160 458 q 193 417 151 417 l 724 417 q 774 458 765 417 q 739 500 781 500 l 208 500 q 160 458 167 500 m -8 42 q 26 0 -15 0 l 547 0 q 596 42 589 0 q 561 83 603 83 l 40 83 q -8 42 -1 83 m 279 1083 q 314 1042 272 1042 l 835 1042 q 883 1083 876 1042 q 849 1125 890 1125 l 328 1125 q 279 1083 286 1125 m 83 563 q 118 521 76 521 l 743 521 q 792 563 785 521 q 757 604 799 604 l 132 604 q 83 563 90 604 z "},"T":{"ha":875,"x_min":131,"x_max":890,"o":"m 172 833 l 797 833 q 847 875 839 833 q 813 917 854 917 l 188 917 q 139 875 146 917 q 172 833 131 833 m 192 938 l 817 938 q 865 979 858 938 q 831 1021 872 1021 l 206 1021 q 157 979 164 1021 q 192 938 150 938 m 210 1042 l 835 1042 q 883 1083 876 1042 q 849 1125 890 1125 l 224 1125 q 175 1083 182 1125 q 210 1042 168 1042 m 274 458 q 307 417 265 417 l 515 417 q 565 458 557 417 q 531 500 572 500 l 322 500 q 274 458 281 500 m 292 563 q 326 521 285 521 l 535 521 q 583 563 576 521 q 549 604 590 604 l 340 604 q 292 563 299 604 m 344 625 l 553 625 q 601 667 594 625 q 568 708 610 708 l 360 708 q 310 667 318 708 q 344 625 303 625 m 363 729 l 571 729 q 619 771 613 729 q 586 813 628 813 l 378 813 q 328 771 336 813 q 363 729 321 729 m 200 42 q 235 0 193 0 l 443 0 q 492 42 485 0 q 457 83 499 83 l 249 83 q 200 42 207 83 m 218 146 q 253 104 211 104 l 461 104 q 510 146 503 104 q 475 188 517 188 l 267 188 q 218 146 225 188 m 271 208 l 479 208 q 528 250 521 208 q 494 292 536 292 l 286 292 q 236 250 244 292 q 271 208 229 208 m 289 313 l 497 313 q 547 354 539 313 q 513 396 554 396 l 304 396 q 256 354 263 396 q 289 313 247 313 z "},"U":{"ha":875,"x_min":3,"x_max":890,"o":"m 44 104 l 669 104 q 718 146 711 104 q 683 188 725 188 l 58 188 q 10 146 17 188 q 44 104 3 104 m 63 208 l 688 208 q 736 250 729 208 q 703 292 744 292 l 78 292 q 28 250 36 292 q 63 208 21 208 m 47 354 q 81 313 39 313 l 289 313 q 339 354 331 313 q 304 396 346 396 l 96 396 q 47 354 54 396 m 65 458 q 99 417 57 417 l 307 417 q 357 458 349 417 q 322 500 364 500 l 114 500 q 65 458 72 500 m 118 521 l 326 521 q 375 563 368 521 q 340 604 382 604 l 132 604 q 83 563 90 604 q 118 521 76 521 m 136 625 l 344 625 q 393 667 386 625 q 360 708 401 708 l 151 708 q 101 667 110 708 q 136 625 94 625 m 464 354 q 497 313 456 313 l 706 313 q 756 354 747 313 q 721 396 763 396 l 513 396 q 464 354 471 396 m 482 458 q 515 417 474 417 l 724 417 q 774 458 765 417 q 739 500 781 500 l 531 500 q 482 458 489 500 m 535 521 l 743 521 q 792 563 785 521 q 757 604 799 604 l 549 604 q 500 563 507 604 q 535 521 493 521 m 553 625 l 761 625 q 810 667 803 625 q 776 708 818 708 l 568 708 q 518 667 526 708 q 553 625 511 625 m 536 771 q 571 729 529 729 l 779 729 q 828 771 821 729 q 794 813 836 813 l 586 813 q 536 771 544 813 m 556 875 q 589 833 547 833 l 797 833 q 847 875 839 833 q 813 917 854 917 l 604 917 q 556 875 563 917 m 608 938 l 817 938 q 865 979 858 938 q 831 1021 872 1021 l 622 1021 q 574 979 581 1021 q 608 938 567 938 m 626 1042 l 835 1042 q 883 1083 876 1042 q 849 1125 890 1125 l 640 1125 q 592 1083 599 1125 q 626 1042 585 1042 m 119 771 q 154 729 113 729 l 363 729 q 411 771 404 729 q 378 813 419 813 l 169 813 q 119 771 128 813 m 139 875 q 172 833 131 833 l 381 833 q 431 875 422 833 q 396 917 438 917 l 188 917 q 139 875 146 917 m 192 938 l 400 938 q 449 979 442 938 q 414 1021 456 1021 l 206 1021 q 157 979 164 1021 q 192 938 150 938 m 210 1042 l 418 1042 q 467 1083 460 1042 q 432 1125 474 1125 l 224 1125 q 175 1083 182 1125 q 210 1042 168 1042 m 96 42 q 131 0 89 0 l 547 0 q 596 42 589 0 q 561 83 603 83 l 144 83 q 96 42 103 83 z "},"V":{"ha":875,"x_min":21,"x_max":890,"o":"m 63 208 l 688 208 q 736 250 729 208 q 703 292 744 292 l 78 292 q 28 250 36 292 q 63 208 21 208 m 47 354 q 81 313 39 313 l 289 313 q 339 354 331 313 q 304 396 346 396 l 96 396 q 47 354 54 396 m 65 458 q 99 417 57 417 l 307 417 q 357 458 349 417 q 322 500 364 500 l 114 500 q 65 458 72 500 m 118 521 l 326 521 q 375 563 368 521 q 340 604 382 604 l 132 604 q 83 563 90 604 q 118 521 76 521 m 136 625 l 344 625 q 393 667 386 625 q 360 708 401 708 l 151 708 q 101 667 110 708 q 136 625 94 625 m 464 354 q 497 313 456 313 l 706 313 q 756 354 747 313 q 721 396 763 396 l 513 396 q 464 354 471 396 m 482 458 q 515 417 474 417 l 724 417 q 774 458 765 417 q 739 500 781 500 l 531 500 q 482 458 489 500 m 535 521 l 743 521 q 792 563 785 521 q 757 604 799 604 l 549 604 q 500 563 507 604 q 535 521 493 521 m 553 625 l 761 625 q 810 667 803 625 q 776 708 818 708 l 568 708 q 518 667 526 708 q 553 625 511 625 m 536 771 q 571 729 529 729 l 779 729 q 828 771 821 729 q 794 813 836 813 l 586 813 q 536 771 544 813 m 556 875 q 589 833 547 833 l 797 833 q 847 875 839 833 q 813 917 854 917 l 604 917 q 556 875 563 917 m 608 938 l 817 938 q 865 979 858 938 q 831 1021 872 1021 l 622 1021 q 574 979 581 1021 q 608 938 567 938 m 626 1042 l 835 1042 q 883 1083 876 1042 q 849 1125 890 1125 l 640 1125 q 592 1083 599 1125 q 626 1042 585 1042 m 119 771 q 154 729 113 729 l 363 729 q 411 771 404 729 q 378 813 419 813 l 169 813 q 119 771 128 813 m 139 875 q 172 833 131 833 l 381 833 q 431 875 422 833 q 396 917 438 917 l 188 917 q 139 875 146 917 m 192 938 l 400 938 q 449 979 442 938 q 414 1021 456 1021 l 206 1021 q 157 979 164 1021 q 192 938 150 938 m 210 1042 l 418 1042 q 467 1083 460 1042 q 432 1125 474 1125 l 224 1125 q 175 1083 182 1125 q 210 1042 168 1042 m 200 42 q 235 0 193 0 l 443 0 q 492 42 485 0 q 457 83 499 83 l 249 83 q 200 42 207 83 m 114 146 q 149 104 107 104 l 565 104 q 614 146 607 104 q 579 188 621 188 l 163 188 q 114 146 121 188 z "},"W":{"ha":1292,"x_min":3,"x_max":1307,"o":"m 44 104 l 1086 104 q 1135 146 1128 104 q 1100 188 1142 188 l 58 188 q 10 146 17 188 q 44 104 3 104 m 63 208 l 1104 208 q 1153 250 1146 208 q 1119 292 1161 292 l 78 292 q 28 250 36 292 q 63 208 21 208 m 47 354 q 81 313 39 313 l 289 313 q 339 354 331 313 q 304 396 346 396 l 96 396 q 47 354 54 396 m 65 458 q 99 417 57 417 l 307 417 q 357 458 349 417 q 322 500 364 500 l 114 500 q 65 458 72 500 m 118 521 l 326 521 q 375 563 368 521 q 340 604 382 604 l 132 604 q 83 563 90 604 q 118 521 76 521 m 136 625 l 344 625 q 393 667 386 625 q 360 708 401 708 l 151 708 q 101 667 110 708 q 136 625 94 625 m 464 354 q 497 313 456 313 l 706 313 q 756 354 747 313 q 721 396 763 396 l 513 396 q 464 354 471 396 m 482 458 q 515 417 474 417 l 724 417 q 774 458 765 417 q 739 500 781 500 l 531 500 q 482 458 489 500 m 535 521 l 743 521 q 792 563 785 521 q 757 604 799 604 l 549 604 q 500 563 507 604 q 535 521 493 521 m 553 625 l 761 625 q 810 667 803 625 q 776 708 818 708 l 568 708 q 518 667 526 708 q 553 625 511 625 m 536 771 q 571 729 529 729 l 779 729 q 828 771 821 729 q 794 813 836 813 l 586 813 q 536 771 544 813 m 556 875 q 589 833 547 833 l 797 833 q 847 875 839 833 q 813 917 854 917 l 604 917 q 556 875 563 917 m 608 938 l 817 938 q 865 979 858 938 q 831 1021 872 1021 l 622 1021 q 574 979 581 1021 q 608 938 567 938 m 626 1042 l 835 1042 q 883 1083 876 1042 q 849 1125 890 1125 l 640 1125 q 592 1083 599 1125 q 626 1042 585 1042 m 119 771 q 154 729 113 729 l 363 729 q 411 771 404 729 q 378 813 419 813 l 169 813 q 119 771 128 813 m 139 875 q 172 833 131 833 l 381 833 q 431 875 422 833 q 396 917 438 917 l 188 917 q 139 875 146 917 m 192 938 l 400 938 q 449 979 442 938 q 414 1021 456 1021 l 206 1021 q 157 979 164 1021 q 192 938 150 938 m 210 1042 l 418 1042 q 467 1083 460 1042 q 432 1125 474 1125 l 224 1125 q 175 1083 182 1125 q 210 1042 168 1042 m 881 354 q 914 313 872 313 l 1122 313 q 1172 354 1164 313 q 1138 396 1179 396 l 929 396 q 881 354 888 396 m 899 458 q 932 417 890 417 l 1140 417 q 1190 458 1182 417 q 1156 500 1197 500 l 947 500 q 899 458 906 500 m 951 521 l 1160 521 q 1208 563 1201 521 q 1174 604 1215 604 l 965 604 q 917 563 924 604 q 951 521 910 521 m 969 625 l 1178 625 q 1226 667 1219 625 q 1193 708 1235 708 l 985 708 q 935 667 943 708 q 969 625 928 625 m 953 771 q 988 729 946 729 l 1196 729 q 1244 771 1238 729 q 1211 813 1253 813 l 1003 813 q 953 771 961 813 m 972 875 q 1006 833 964 833 l 1214 833 q 1264 875 1256 833 q 1229 917 1271 917 l 1021 917 q 972 875 979 917 m 1025 938 l 1233 938 q 1282 979 1275 938 q 1247 1021 1289 1021 l 1039 1021 q 990 979 997 1021 q 1025 938 983 938 m 1043 1042 l 1251 1042 q 1300 1083 1293 1042 q 1265 1125 1307 1125 l 1057 1125 q 1008 1083 1015 1125 q 1043 1042 1001 1042 m 96 42 q 131 0 89 0 l 964 0 q 1013 42 1006 0 q 978 83 1019 83 l 144 83 q 96 42 103 83 z "},"X":{"ha":875,"x_min":-15,"x_max":890,"o":"m 99 417 l 724 417 q 774 458 765 417 q 739 500 781 500 l 114 500 q 65 458 72 500 q 99 417 57 417 m 136 625 l 761 625 q 810 667 803 625 q 776 708 818 708 l 151 708 q 101 667 110 708 q 136 625 94 625 m 119 771 q 154 729 113 729 l 363 729 q 411 771 404 729 q 378 813 419 813 l 169 813 q 119 771 128 813 m 139 875 q 172 833 131 833 l 381 833 q 431 875 422 833 q 396 917 438 917 l 188 917 q 139 875 146 917 m 192 938 l 400 938 q 449 979 442 938 q 414 1021 456 1021 l 206 1021 q 157 979 164 1021 q 192 938 150 938 m 210 1042 l 418 1042 q 467 1083 460 1042 q 432 1125 474 1125 l 224 1125 q 175 1083 182 1125 q 210 1042 168 1042 m 536 771 q 571 729 529 729 l 779 729 q 828 771 821 729 q 794 813 836 813 l 586 813 q 536 771 544 813 m 556 875 q 589 833 547 833 l 797 833 q 847 875 839 833 q 813 917 854 917 l 604 917 q 556 875 563 917 m 608 938 l 817 938 q 865 979 858 938 q 831 1021 872 1021 l 622 1021 q 574 979 581 1021 q 608 938 567 938 m 626 1042 l 835 1042 q 883 1083 876 1042 q 849 1125 890 1125 l 640 1125 q 592 1083 599 1125 q 626 1042 585 1042 m 408 42 q 443 0 401 0 l 651 0 q 700 42 693 0 q 665 83 707 83 l 457 83 q 408 42 415 83 m 426 146 q 461 104 419 104 l 669 104 q 718 146 711 104 q 683 188 725 188 l 475 188 q 426 146 433 188 m 479 208 l 688 208 q 736 250 729 208 q 703 292 744 292 l 494 292 q 444 250 453 292 q 479 208 438 208 m 497 313 l 706 313 q 756 354 747 313 q 721 396 763 396 l 513 396 q 464 354 471 396 q 497 313 456 313 m -8 42 q 26 0 -15 0 l 235 0 q 283 42 276 0 q 249 83 290 83 l 40 83 q -8 42 -1 83 m 10 146 q 44 104 3 104 l 253 104 q 301 146 294 104 q 267 188 308 188 l 58 188 q 10 146 17 188 m 63 208 l 271 208 q 319 250 313 208 q 286 292 328 292 l 78 292 q 28 250 36 292 q 63 208 21 208 m 81 313 l 289 313 q 339 354 331 313 q 304 396 346 396 l 96 396 q 47 354 54 396 q 81 313 39 313 m 188 563 q 222 521 181 521 l 639 521 q 688 563 681 521 q 653 604 694 604 l 236 604 q 188 563 194 604 z "},"Y":{"ha":875,"x_min":76,"x_max":890,"o":"m 118 521 l 743 521 q 792 563 785 521 q 757 604 799 604 l 132 604 q 83 563 90 604 q 118 521 76 521 m 136 625 l 761 625 q 810 667 803 625 q 776 708 818 708 l 151 708 q 101 667 110 708 q 136 625 94 625 m 200 42 q 235 0 193 0 l 443 0 q 492 42 485 0 q 457 83 499 83 l 249 83 q 200 42 207 83 m 218 146 q 253 104 211 104 l 461 104 q 510 146 503 104 q 475 188 517 188 l 267 188 q 218 146 225 188 m 271 208 l 479 208 q 528 250 521 208 q 494 292 536 292 l 286 292 q 236 250 244 292 q 271 208 229 208 m 289 313 l 497 313 q 547 354 539 313 q 513 396 554 396 l 304 396 q 256 354 263 396 q 289 313 247 313 m 119 771 q 154 729 113 729 l 363 729 q 411 771 404 729 q 378 813 419 813 l 169 813 q 119 771 128 813 m 139 875 q 172 833 131 833 l 381 833 q 431 875 422 833 q 396 917 438 917 l 188 917 q 139 875 146 917 m 192 938 l 400 938 q 449 979 442 938 q 414 1021 456 1021 l 206 1021 q 157 979 164 1021 q 192 938 150 938 m 210 1042 l 418 1042 q 467 1083 460 1042 q 432 1125 474 1125 l 224 1125 q 175 1083 182 1125 q 210 1042 168 1042 m 536 771 q 571 729 529 729 l 779 729 q 828 771 821 729 q 794 813 836 813 l 586 813 q 536 771 544 813 m 556 875 q 589 833 547 833 l 797 833 q 847 875 839 833 q 813 917 854 917 l 604 917 q 556 875 563 917 m 608 938 l 817 938 q 865 979 858 938 q 831 1021 872 1021 l 622 1021 q 574 979 581 1021 q 608 938 567 938 m 626 1042 l 835 1042 q 883 1083 876 1042 q 849 1125 890 1125 l 640 1125 q 592 1083 599 1125 q 626 1042 585 1042 m 169 458 q 203 417 161 417 l 619 417 q 669 458 661 417 q 635 500 676 500 l 218 500 q 169 458 176 500 z "},"Z":{"ha":875,"x_min":-15,"x_max":890,"o":"m 172 833 l 797 833 q 847 875 839 833 q 813 917 854 917 l 188 917 q 139 875 146 917 q 172 833 131 833 m 192 938 l 817 938 q 865 979 858 938 q 831 1021 872 1021 l 206 1021 q 157 979 164 1021 q 192 938 150 938 m 210 1042 l 835 1042 q 883 1083 876 1042 q 849 1125 890 1125 l 224 1125 q 175 1083 182 1125 q 210 1042 168 1042 m 26 0 l 651 0 q 700 42 693 0 q 665 83 707 83 l 40 83 q -8 42 -1 83 q 26 0 -15 0 m 44 104 l 669 104 q 718 146 711 104 q 683 188 725 188 l 58 188 q 10 146 17 188 q 44 104 3 104 m 63 208 l 688 208 q 736 250 729 208 q 703 292 744 292 l 78 292 q 28 250 36 292 q 63 208 21 208 m 310 667 q 344 625 303 625 l 657 625 q 706 667 699 625 q 672 708 714 708 l 360 708 q 310 667 318 708 m 81 313 l 393 313 q 443 354 435 313 q 408 396 450 396 l 96 396 q 47 354 54 396 q 81 313 39 313 m 467 729 l 779 729 q 828 771 821 729 q 794 813 836 813 l 482 813 q 432 771 440 813 q 467 729 425 729 m 65 458 q 99 417 57 417 l 411 417 q 461 458 453 417 q 426 500 468 500 l 114 500 q 65 458 72 500 m 222 521 l 535 521 q 583 563 576 521 q 549 604 590 604 l 236 604 q 188 563 194 604 q 222 521 181 521 z "},"[":{"ha":458,"x_min":-35,"x_max":597,"o":"m 172 833 l 381 833 q 431 875 422 833 q 396 917 438 917 l 188 917 q 139 875 146 917 q 172 833 131 833 m 192 938 l 400 938 q 449 979 442 938 q 414 1021 456 1021 l 206 1021 q 157 979 164 1021 q 192 938 150 938 m 118 521 l 326 521 q 375 563 368 521 q 340 604 382 604 l 132 604 q 83 563 90 604 q 118 521 76 521 m 47 354 q 81 313 39 313 l 289 313 q 339 354 331 313 q 304 396 346 396 l 96 396 q 47 354 54 396 m 210 1042 l 418 1042 q 467 1083 460 1042 q 432 1125 474 1125 l 224 1125 q 175 1083 182 1125 q 210 1042 168 1042 m 154 729 l 363 729 q 411 771 404 729 q 378 813 419 813 l 169 813 q 119 771 128 813 q 154 729 113 729 m 99 417 l 307 417 q 357 458 349 417 q 322 500 364 500 l 114 500 q 65 458 72 500 q 99 417 57 417 m 44 104 l 253 104 q 301 146 294 104 q 267 188 308 188 l 58 188 q 10 146 17 188 q 44 104 3 104 m 63 208 l 271 208 q 319 250 313 208 q 286 292 328 292 l 78 292 q 28 250 36 292 q 63 208 21 208 m 136 625 l 344 625 q 393 667 386 625 q 360 708 401 708 l 151 708 q 101 667 110 708 q 136 625 94 625 m 193 1188 q 228 1146 186 1146 l 540 1146 q 589 1188 582 1146 q 556 1229 597 1229 l 243 1229 q 193 1188 201 1229 m -8 42 q 26 0 -15 0 l 235 0 q 283 42 276 0 q 249 83 290 83 l 40 83 q -8 42 -1 83 m -26 -62 q 7 -104 -35 -104 l 319 -104 q 369 -62 361 -104 q 335 -21 376 -21 l 22 -21 q -26 -62 -19 -21 z "},"\\":{"ha":665,"x_min":113,"x_max":554,"o":"m 381 833 l 172 833 q 139 875 131 833 q 188 917 146 917 l 396 917 q 431 875 438 917 q 381 833 422 833 m 400 938 l 192 938 q 157 979 150 938 q 206 1021 164 1021 l 414 1021 q 449 979 456 1021 q 400 938 442 938 m 418 1042 l 210 1042 q 175 1083 168 1042 q 224 1125 182 1125 l 432 1125 q 467 1083 474 1125 q 418 1042 460 1042 m 443 0 l 235 0 q 200 42 193 0 q 249 83 207 83 l 457 83 q 492 42 499 83 q 443 0 485 0 m 461 104 l 253 104 q 218 146 211 104 q 267 188 225 188 l 475 188 q 510 146 517 188 q 461 104 503 104 m 479 208 l 271 208 q 236 250 229 208 q 286 292 244 292 l 494 292 q 528 250 536 292 q 479 208 521 208 m 497 667 q 449 625 490 625 l 240 625 q 206 667 199 625 q 256 708 214 708 l 464 708 q 497 667 506 708 m 497 313 l 289 313 q 256 354 247 313 q 304 396 263 396 l 513 396 q 547 354 554 396 q 497 313 539 313 m 363 729 l 154 729 q 119 771 113 729 q 169 813 128 813 l 378 813 q 411 771 419 813 q 363 729 404 729 m 461 458 q 411 417 453 417 l 203 417 q 169 458 161 417 q 218 500 176 500 l 426 500 q 461 458 468 500 m 431 521 l 222 521 q 188 563 181 521 q 236 604 194 604 l 444 604 q 479 563 486 604 q 431 521 472 521 z "},"]":{"ha":458,"x_min":-139,"x_max":493,"o":"m 381 833 l 172 833 q 139 875 131 833 q 188 917 146 917 l 396 917 q 431 875 438 917 q 381 833 422 833 m 400 938 l 192 938 q 157 979 150 938 q 206 1021 164 1021 l 414 1021 q 449 979 456 1021 q 400 938 442 938 m 326 521 l 118 521 q 83 563 76 521 q 132 604 90 604 l 340 604 q 375 563 382 604 q 326 521 368 521 m 339 354 q 289 313 331 313 l 81 313 q 47 354 39 313 q 96 396 54 396 l 304 396 q 339 354 346 396 m 418 1042 l 210 1042 q 175 1083 168 1042 q 224 1125 182 1125 l 432 1125 q 467 1083 474 1125 q 418 1042 460 1042 m 363 729 l 154 729 q 119 771 113 729 q 169 813 128 813 l 378 813 q 411 771 419 813 q 363 729 404 729 m 307 417 l 99 417 q 65 458 57 417 q 114 500 72 500 l 322 500 q 357 458 364 500 q 307 417 349 417 m 253 104 l 44 104 q 10 146 3 104 q 58 188 17 188 l 267 188 q 301 146 308 188 q 253 104 294 104 m 271 208 l 63 208 q 28 250 21 208 q 78 292 36 292 l 286 292 q 319 250 328 292 q 271 208 313 208 m 344 625 l 136 625 q 101 667 94 625 q 151 708 110 708 l 360 708 q 393 667 401 708 q 344 625 386 625 m 485 1188 q 436 1146 478 1146 l 124 1146 q 89 1188 82 1146 q 139 1229 97 1229 l 451 1229 q 485 1188 493 1229 m 283 42 q 235 0 276 0 l 26 0 q -8 42 -15 0 q 40 83 -1 83 l 249 83 q 283 42 290 83 m 265 -62 q 215 -104 257 -104 l -97 -104 q -131 -62 -139 -104 q -82 -21 -124 -21 l 231 -21 q 265 -62 272 -21 z "},"^":{"ha":564,"x_min":67,"x_max":478,"o":"m 197 1083 q 231 1042 189 1042 l 335 1042 q 385 1083 376 1042 q 350 1125 392 1125 l 246 1125 q 197 1083 204 1125 m 74 979 q 108 938 67 938 l 421 938 q 469 979 463 938 q 436 1021 478 1021 l 124 1021 q 74 979 82 1021 z "},"_":{"ha":875,"x_min":57,"x_max":818,"o":"m 118 104 l 743 104 q 792 146 785 104 q 757 188 799 188 l 132 188 q 83 146 90 188 q 118 104 76 104 m 136 208 l 761 208 q 810 250 803 208 q 776 292 818 292 l 151 292 q 101 250 110 292 q 136 208 94 208 m 65 42 q 99 0 57 0 l 724 0 q 774 42 765 0 q 739 83 781 83 l 114 83 q 65 42 72 83 z "},"`":{"ha":458,"x_min":85,"x_max":374,"o":"m 93 1083 q 126 1042 85 1042 l 231 1042 q 281 1083 272 1042 q 246 1125 288 1125 l 142 1125 q 93 1083 100 1125 m 178 979 q 213 938 171 938 l 317 938 q 365 979 358 938 q 332 1021 374 1021 l 228 1021 q 178 979 186 1021 z "},"a":{"ha":875,"x_min":-15,"x_max":872,"o":"m 139 875 q 172 833 131 833 l 797 833 q 847 875 839 833 q 813 917 854 917 l 188 917 q 139 875 146 917 m 83 563 q 118 521 76 521 l 743 521 q 792 563 785 521 q 757 604 799 604 l 132 604 q 83 563 90 604 m 157 979 q 192 938 150 938 l 817 938 q 865 979 858 938 q 831 1021 872 1021 l 206 1021 q 157 979 164 1021 m 65 458 q 99 417 57 417 l 724 417 q 774 458 765 417 q 739 500 781 500 l 114 500 q 65 458 72 500 m 47 354 q 81 313 39 313 l 706 313 q 756 354 747 313 q 721 396 763 396 l 96 396 q 47 354 54 396 m 279 1083 q 314 1042 272 1042 l 731 1042 q 779 1083 772 1042 q 744 1125 786 1125 l 328 1125 q 279 1083 286 1125 m 408 42 q 443 0 401 0 l 651 0 q 700 42 693 0 q 665 83 707 83 l 457 83 q 408 42 415 83 m 518 667 q 553 625 511 625 l 761 625 q 810 667 803 625 q 776 708 818 708 l 568 708 q 518 667 526 708 m 426 146 q 461 104 419 104 l 669 104 q 718 146 711 104 q 683 188 725 188 l 475 188 q 426 146 433 188 m 119 771 q 154 729 113 729 l 363 729 q 411 771 404 729 q 378 813 419 813 l 169 813 q 119 771 128 813 m 536 771 q 571 729 529 729 l 779 729 q 828 771 821 729 q 794 813 836 813 l 586 813 q 536 771 544 813 m -8 42 q 26 0 -15 0 l 235 0 q 283 42 276 0 q 249 83 290 83 l 40 83 q -8 42 -1 83 m 101 667 q 136 625 94 625 l 344 625 q 393 667 386 625 q 360 708 401 708 l 151 708 q 101 667 110 708 m 44 104 l 253 104 q 301 146 294 104 q 267 188 308 188 l 58 188 q 10 146 17 188 q 44 104 3 104 m 479 208 l 688 208 q 736 250 729 208 q 703 292 744 292 l 494 292 q 444 250 453 292 q 479 208 438 208 m 28 250 q 63 208 21 208 l 271 208 q 319 250 313 208 q 286 292 328 292 l 78 292 q 28 250 36 292 z "},"b":{"ha":875,"x_min":-15,"x_max":872,"o":"m 192 938 l 817 938 q 865 979 858 938 q 831 1021 872 1021 l 206 1021 q 157 979 164 1021 q 192 938 150 938 m 210 1042 l 731 1042 q 779 1083 772 1042 q 744 1125 786 1125 l 224 1125 q 175 1083 182 1125 q 210 1042 168 1042 m 172 833 l 797 833 q 847 875 839 833 q 813 917 854 917 l 188 917 q 139 875 146 917 q 172 833 131 833 m 136 625 l 761 625 q 810 667 803 625 q 776 708 818 708 l 151 708 q 101 667 110 708 q 136 625 94 625 m 99 417 l 724 417 q 774 458 765 417 q 739 500 781 500 l 114 500 q 65 458 72 500 q 99 417 57 417 m 63 208 l 688 208 q 736 250 729 208 q 703 292 744 292 l 78 292 q 28 250 36 292 q 63 208 21 208 m 44 104 l 669 104 q 718 146 711 104 q 683 188 725 188 l 58 188 q 10 146 17 188 q 44 104 3 104 m 119 771 q 154 729 113 729 l 363 729 q 411 771 404 729 q 378 813 419 813 l 169 813 q 119 771 128 813 m 536 771 q 571 729 529 729 l 779 729 q 828 771 821 729 q 794 813 836 813 l 586 813 q 536 771 544 813 m 47 354 q 81 313 39 313 l 289 313 q 339 354 331 313 q 304 396 346 396 l 96 396 q 47 354 54 396 m 464 354 q 497 313 456 313 l 706 313 q 756 354 747 313 q 721 396 763 396 l 513 396 q 464 354 471 396 m -8 42 q 26 0 -15 0 l 547 0 q 596 42 589 0 q 561 83 603 83 l 40 83 q -8 42 -1 83 m 83 563 q 118 521 76 521 l 639 521 q 688 563 681 521 q 653 604 694 604 l 132 604 q 83 563 90 604 z "},"c":{"ha":875,"x_min":3,"x_max":872,"o":"m 172 833 l 797 833 q 847 875 839 833 q 813 917 854 917 l 188 917 q 139 875 146 917 q 172 833 131 833 m 192 938 l 817 938 q 865 979 858 938 q 831 1021 872 1021 l 206 1021 q 157 979 164 1021 q 192 938 150 938 m 63 208 l 688 208 q 736 250 729 208 q 703 292 744 292 l 78 292 q 28 250 36 292 q 63 208 21 208 m 44 104 l 669 104 q 718 146 711 104 q 683 188 725 188 l 58 188 q 10 146 17 188 q 44 104 3 104 m 83 563 q 118 521 76 521 l 326 521 q 375 563 368 521 q 340 604 382 604 l 132 604 q 83 563 90 604 m 101 667 q 136 625 94 625 l 344 625 q 393 667 386 625 q 360 708 401 708 l 151 708 q 101 667 110 708 m 154 729 l 363 729 q 411 771 404 729 q 378 813 419 813 l 169 813 q 119 771 128 813 q 154 729 113 729 m 47 354 q 81 313 39 313 l 289 313 q 339 354 331 313 q 304 396 346 396 l 96 396 q 47 354 54 396 m 65 458 q 99 417 57 417 l 307 417 q 357 458 349 417 q 322 500 364 500 l 114 500 q 65 458 72 500 m 464 354 q 497 313 456 313 l 706 313 q 756 354 747 313 q 721 396 763 396 l 513 396 q 464 354 471 396 m 536 771 q 571 729 529 729 l 779 729 q 828 771 821 729 q 794 813 836 813 l 586 813 q 536 771 544 813 m 96 42 q 131 0 89 0 l 547 0 q 596 42 589 0 q 561 83 603 83 l 144 83 q 96 42 103 83 m 279 1083 q 314 1042 272 1042 l 731 1042 q 779 1083 772 1042 q 744 1125 786 1125 l 328 1125 q 279 1083 286 1125 z "},"d":{"ha":875,"x_min":-15,"x_max":872,"o":"m 172 833 l 797 833 q 847 875 839 833 q 813 917 854 917 l 188 917 q 139 875 146 917 q 172 833 131 833 m 192 938 l 817 938 q 865 979 858 938 q 831 1021 872 1021 l 206 1021 q 157 979 164 1021 q 192 938 150 938 m 63 208 l 688 208 q 736 250 729 208 q 703 292 744 292 l 78 292 q 28 250 36 292 q 63 208 21 208 m 44 104 l 669 104 q 718 146 711 104 q 683 188 725 188 l 58 188 q 10 146 17 188 q 44 104 3 104 m 83 563 q 118 521 76 521 l 326 521 q 375 563 368 521 q 340 604 382 604 l 132 604 q 83 563 90 604 m 101 667 q 136 625 94 625 l 344 625 q 393 667 386 625 q 360 708 401 708 l 151 708 q 101 667 110 708 m 154 729 l 363 729 q 411 771 404 729 q 378 813 419 813 l 169 813 q 119 771 128 813 q 154 729 113 729 m 500 563 q 535 521 493 521 l 743 521 q 792 563 785 521 q 757 604 799 604 l 549 604 q 500 563 507 604 m 518 667 q 553 625 511 625 l 761 625 q 810 667 803 625 q 776 708 818 708 l 568 708 q 518 667 526 708 m 571 729 l 779 729 q 828 771 821 729 q 794 813 836 813 l 586 813 q 536 771 544 813 q 571 729 529 729 m 47 354 q 81 313 39 313 l 289 313 q 339 354 331 313 q 304 396 346 396 l 96 396 q 47 354 54 396 m 65 458 q 99 417 57 417 l 307 417 q 357 458 349 417 q 322 500 364 500 l 114 500 q 65 458 72 500 m 464 354 q 497 313 456 313 l 706 313 q 756 354 747 313 q 721 396 763 396 l 513 396 q 464 354 471 396 m 482 458 q 515 417 474 417 l 724 417 q 774 458 765 417 q 739 500 781 500 l 531 500 q 482 458 489 500 m 175 1083 q 210 1042 168 1042 l 731 1042 q 779 1083 772 1042 q 744 1125 786 1125 l 224 1125 q 175 1083 182 1125 m -8 42 q 26 0 -15 0 l 547 0 q 596 42 589 0 q 561 83 603 83 l 40 83 q -8 42 -1 83 z "},"e":{"ha":875,"x_min":3,"x_max":890,"o":"m 172 833 l 797 833 q 847 875 839 833 q 813 917 854 917 l 188 917 q 139 875 146 917 q 172 833 131 833 m 192 938 l 817 938 q 865 979 858 938 q 831 1021 872 1021 l 206 1021 q 157 979 164 1021 q 192 938 150 938 m 136 625 l 761 625 q 810 667 803 625 q 776 708 818 708 l 151 708 q 101 667 110 708 q 136 625 94 625 m 118 521 l 743 521 q 792 563 785 521 q 757 604 799 604 l 132 604 q 83 563 90 604 q 118 521 76 521 m 99 417 l 724 417 q 774 458 765 417 q 739 500 781 500 l 114 500 q 65 458 72 500 q 99 417 57 417 m 63 208 l 688 208 q 736 250 729 208 q 703 292 744 292 l 78 292 q 28 250 36 292 q 63 208 21 208 m 44 104 l 669 104 q 718 146 711 104 q 683 188 725 188 l 58 188 q 10 146 17 188 q 44 104 3 104 m 47 354 q 81 313 39 313 l 289 313 q 339 354 331 313 q 304 396 346 396 l 96 396 q 47 354 54 396 m 154 729 l 363 729 q 411 771 404 729 q 378 813 419 813 l 169 813 q 119 771 128 813 q 154 729 113 729 m 96 42 q 131 0 89 0 l 651 0 q 700 42 693 0 q 665 83 707 83 l 144 83 q 96 42 103 83 m 279 1083 q 314 1042 272 1042 l 835 1042 q 883 1083 876 1042 q 849 1125 890 1125 l 328 1125 q 279 1083 286 1125 z "},"f":{"ha":875,"x_min":-15,"x_max":890,"o":"m 99 417 l 724 417 q 774 458 765 417 q 739 500 781 500 l 114 500 q 65 458 72 500 q 99 417 57 417 m 118 521 l 743 521 q 792 563 785 521 q 757 604 799 604 l 132 604 q 83 563 90 604 q 118 521 76 521 m 136 625 l 761 625 q 810 667 803 625 q 776 708 818 708 l 151 708 q 101 667 110 708 q 136 625 94 625 m 172 833 l 797 833 q 847 875 839 833 q 813 917 854 917 l 188 917 q 139 875 146 917 q 172 833 131 833 m 192 938 l 817 938 q 865 979 858 938 q 831 1021 872 1021 l 206 1021 q 157 979 164 1021 q 192 938 150 938 m 10 146 q 44 104 3 104 l 253 104 q 301 146 294 104 q 267 188 308 188 l 58 188 q 10 146 17 188 m 28 250 q 63 208 21 208 l 271 208 q 319 250 313 208 q 286 292 328 292 l 78 292 q 28 250 36 292 m 81 313 l 289 313 q 339 354 331 313 q 304 396 346 396 l 96 396 q 47 354 54 396 q 81 313 39 313 m 26 0 l 235 0 q 283 42 276 0 q 249 83 290 83 l 40 83 q -8 42 -1 83 q 26 0 -15 0 m 119 771 q 154 729 113 729 l 363 729 q 411 771 404 729 q 378 813 419 813 l 169 813 q 119 771 128 813 m 279 1083 q 314 1042 272 1042 l 835 1042 q 883 1083 876 1042 q 849 1125 890 1125 l 328 1125 q 279 1083 286 1125 z "},"g":{"ha":875,"x_min":3,"x_max":872,"o":"m 172 833 l 797 833 q 847 875 839 833 q 813 917 854 917 l 188 917 q 139 875 146 917 q 172 833 131 833 m 192 938 l 817 938 q 865 979 858 938 q 831 1021 872 1021 l 206 1021 q 157 979 164 1021 q 192 938 150 938 m 63 208 l 688 208 q 736 250 729 208 q 703 292 744 292 l 78 292 q 28 250 36 292 q 63 208 21 208 m 44 104 l 669 104 q 718 146 711 104 q 683 188 725 188 l 58 188 q 10 146 17 188 q 44 104 3 104 m 83 563 q 118 521 76 521 l 326 521 q 375 563 368 521 q 340 604 382 604 l 132 604 q 83 563 90 604 m 101 667 q 136 625 94 625 l 344 625 q 393 667 386 625 q 360 708 401 708 l 151 708 q 101 667 110 708 m 154 729 l 363 729 q 411 771 404 729 q 378 813 419 813 l 169 813 q 119 771 128 813 q 154 729 113 729 m 47 354 q 81 313 39 313 l 289 313 q 339 354 331 313 q 304 396 346 396 l 96 396 q 47 354 54 396 m 65 458 q 99 417 57 417 l 307 417 q 357 458 349 417 q 322 500 364 500 l 114 500 q 65 458 72 500 m 571 729 l 779 729 q 828 771 821 729 q 794 813 836 813 l 586 813 q 536 771 544 813 q 571 729 529 729 m 464 354 q 497 313 456 313 l 706 313 q 756 354 747 313 q 721 396 763 396 l 513 396 q 464 354 471 396 m 482 458 q 515 417 474 417 l 724 417 q 774 458 765 417 q 739 500 781 500 l 531 500 q 482 458 489 500 m 131 0 l 651 0 q 700 42 693 0 q 665 83 707 83 l 144 83 q 96 42 103 83 q 131 0 89 0 m 279 1083 q 314 1042 272 1042 l 731 1042 q 779 1083 772 1042 q 744 1125 786 1125 l 328 1125 q 279 1083 286 1125 m 500 563 q 535 521 493 521 l 743 521 q 792 563 785 521 q 757 604 799 604 l 549 604 q 500 563 507 604 z "},"h":{"ha":875,"x_min":-15,"x_max":890,"o":"m 136 625 l 761 625 q 810 667 803 625 q 776 708 818 708 l 151 708 q 101 667 110 708 q 136 625 94 625 m 118 521 l 743 521 q 792 563 785 521 q 757 604 799 604 l 132 604 q 83 563 90 604 q 118 521 76 521 m 99 417 l 724 417 q 774 458 765 417 q 739 500 781 500 l 114 500 q 65 458 72 500 q 99 417 57 417 m 119 771 q 154 729 113 729 l 363 729 q 411 771 404 729 q 378 813 419 813 l 169 813 q 119 771 128 813 m 139 875 q 172 833 131 833 l 381 833 q 431 875 422 833 q 396 917 438 917 l 188 917 q 139 875 146 917 m 192 938 l 400 938 q 449 979 442 938 q 414 1021 456 1021 l 206 1021 q 157 979 164 1021 q 192 938 150 938 m 536 771 q 571 729 529 729 l 779 729 q 828 771 821 729 q 794 813 836 813 l 586 813 q 536 771 544 813 m 556 875 q 589 833 547 833 l 797 833 q 847 875 839 833 q 813 917 854 917 l 604 917 q 556 875 563 917 m 608 938 l 817 938 q 865 979 858 938 q 831 1021 872 1021 l 622 1021 q 574 979 581 1021 q 608 938 567 938 m 175 1083 q 210 1042 168 1042 l 418 1042 q 467 1083 460 1042 q 432 1125 474 1125 l 224 1125 q 175 1083 182 1125 m 626 1042 l 835 1042 q 883 1083 876 1042 q 849 1125 890 1125 l 640 1125 q 592 1083 599 1125 q 626 1042 585 1042 m -8 42 q 26 0 -15 0 l 235 0 q 283 42 276 0 q 249 83 290 83 l 40 83 q -8 42 -1 83 m 10 146 q 44 104 3 104 l 253 104 q 301 146 294 104 q 267 188 308 188 l 58 188 q 10 146 17 188 m 63 208 l 271 208 q 319 250 313 208 q 286 292 328 292 l 78 292 q 28 250 36 292 q 63 208 21 208 m 408 42 q 443 0 401 0 l 651 0 q 700 42 693 0 q 665 83 707 83 l 457 83 q 408 42 415 83 m 426 146 q 461 104 419 104 l 669 104 q 718 146 711 104 q 683 188 725 188 l 475 188 q 426 146 433 188 m 479 208 l 688 208 q 736 250 729 208 q 703 292 744 292 l 494 292 q 444 250 453 292 q 479 208 438 208 m 47 354 q 81 313 39 313 l 289 313 q 339 354 331 313 q 304 396 346 396 l 96 396 q 47 354 54 396 m 497 313 l 706 313 q 756 354 747 313 q 721 396 763 396 l 513 396 q 464 354 471 396 q 497 313 456 313 z "},"i":{"ha":667,"x_min":-15,"x_max":682,"o":"m 169 458 q 203 417 161 417 l 411 417 q 461 458 453 417 q 426 500 468 500 l 218 500 q 169 458 176 500 m 188 563 q 222 521 181 521 l 431 521 q 479 563 472 521 q 444 604 486 604 l 236 604 q 188 563 194 604 m 240 625 l 449 625 q 497 667 490 625 q 464 708 506 708 l 256 708 q 206 667 214 708 q 240 625 199 625 m 139 875 q 172 833 131 833 l 589 833 q 639 875 631 833 q 604 917 646 917 l 188 917 q 139 875 146 917 m 157 979 q 192 938 150 938 l 608 938 q 657 979 650 938 q 622 1021 664 1021 l 206 1021 q 157 979 164 1021 m 210 1042 l 626 1042 q 675 1083 668 1042 q 640 1125 682 1125 l 224 1125 q 175 1083 182 1125 q 210 1042 168 1042 m 224 771 q 258 729 217 729 l 467 729 q 515 771 508 729 q 482 813 524 813 l 274 813 q 224 771 232 813 m 185 313 l 393 313 q 443 354 435 313 q 408 396 450 396 l 200 396 q 151 354 158 396 q 185 313 143 313 m -8 42 q 26 0 -15 0 l 443 0 q 492 42 485 0 q 457 83 499 83 l 40 83 q -8 42 -1 83 m 44 104 l 461 104 q 510 146 503 104 q 475 188 517 188 l 58 188 q 10 146 17 188 q 44 104 3 104 m 28 250 q 63 208 21 208 l 479 208 q 528 250 521 208 q 494 292 536 292 l 78 292 q 28 250 36 292 z "},"j":{"ha":875,"x_min":3,"x_max":890,"o":"m 63 208 l 688 208 q 736 250 729 208 q 703 292 744 292 l 78 292 q 28 250 36 292 q 63 208 21 208 m 44 104 l 669 104 q 718 146 711 104 q 683 188 725 188 l 58 188 q 10 146 17 188 q 44 104 3 104 m 47 354 q 81 313 39 313 l 289 313 q 339 354 331 313 q 304 396 346 396 l 96 396 q 47 354 54 396 m 65 458 q 99 417 57 417 l 307 417 q 357 458 349 417 q 322 500 364 500 l 114 500 q 65 458 72 500 m 118 521 l 326 521 q 375 563 368 521 q 340 604 382 604 l 132 604 q 83 563 90 604 q 118 521 76 521 m 464 354 q 497 313 456 313 l 706 313 q 756 354 747 313 q 721 396 763 396 l 513 396 q 464 354 471 396 m 482 458 q 515 417 474 417 l 724 417 q 774 458 765 417 q 739 500 781 500 l 531 500 q 482 458 489 500 m 535 521 l 743 521 q 792 563 785 521 q 757 604 799 604 l 549 604 q 500 563 507 604 q 535 521 493 521 m 553 625 l 761 625 q 810 667 803 625 q 776 708 818 708 l 568 708 q 518 667 526 708 q 553 625 511 625 m 536 771 q 571 729 529 729 l 779 729 q 828 771 821 729 q 794 813 836 813 l 586 813 q 536 771 544 813 m 556 875 q 589 833 547 833 l 797 833 q 847 875 839 833 q 813 917 854 917 l 604 917 q 556 875 563 917 m 608 938 l 817 938 q 865 979 858 938 q 831 1021 872 1021 l 622 1021 q 574 979 581 1021 q 608 938 567 938 m 96 42 q 131 0 89 0 l 547 0 q 596 42 589 0 q 561 83 603 83 l 144 83 q 96 42 103 83 m 592 1083 q 626 1042 585 1042 l 835 1042 q 883 1083 876 1042 q 849 1125 890 1125 l 640 1125 q 592 1083 599 1125 z "},"k":{"ha":875,"x_min":-15,"x_max":890,"o":"m 136 625 l 657 625 q 706 667 699 625 q 672 708 714 708 l 151 708 q 101 667 110 708 q 136 625 94 625 m 99 417 l 619 417 q 669 458 661 417 q 635 500 676 500 l 114 500 q 65 458 72 500 q 99 417 57 417 m 119 771 q 154 729 113 729 l 363 729 q 411 771 404 729 q 378 813 419 813 l 169 813 q 119 771 128 813 m 139 875 q 172 833 131 833 l 381 833 q 431 875 422 833 q 396 917 438 917 l 188 917 q 139 875 146 917 m 192 938 l 400 938 q 449 979 442 938 q 414 1021 456 1021 l 206 1021 q 157 979 164 1021 q 192 938 150 938 m 536 771 q 571 729 529 729 l 779 729 q 828 771 821 729 q 794 813 836 813 l 586 813 q 536 771 544 813 m 556 875 q 589 833 547 833 l 797 833 q 847 875 839 833 q 813 917 854 917 l 604 917 q 556 875 563 917 m 608 938 l 817 938 q 865 979 858 938 q 831 1021 872 1021 l 622 1021 q 574 979 581 1021 q 608 938 567 938 m 175 1083 q 210 1042 168 1042 l 418 1042 q 467 1083 460 1042 q 432 1125 474 1125 l 224 1125 q 175 1083 182 1125 m 626 1042 l 835 1042 q 883 1083 876 1042 q 849 1125 890 1125 l 640 1125 q 592 1083 599 1125 q 626 1042 585 1042 m -8 42 q 26 0 -15 0 l 235 0 q 283 42 276 0 q 249 83 290 83 l 40 83 q -8 42 -1 83 m 10 146 q 44 104 3 104 l 253 104 q 301 146 294 104 q 267 188 308 188 l 58 188 q 10 146 17 188 m 63 208 l 271 208 q 319 250 313 208 q 286 292 328 292 l 78 292 q 28 250 36 292 q 63 208 21 208 m 408 42 q 443 0 401 0 l 651 0 q 700 42 693 0 q 665 83 707 83 l 457 83 q 408 42 415 83 m 426 146 q 461 104 419 104 l 669 104 q 718 146 711 104 q 683 188 725 188 l 475 188 q 426 146 433 188 m 479 208 l 688 208 q 736 250 729 208 q 703 292 744 292 l 494 292 q 444 250 453 292 q 479 208 438 208 m 47 354 q 81 313 39 313 l 289 313 q 339 354 331 313 q 304 396 346 396 l 96 396 q 47 354 54 396 m 497 313 l 706 313 q 756 354 747 313 q 721 396 763 396 l 513 396 q 464 354 471 396 q 497 313 456 313 m 83 563 q 118 521 76 521 l 535 521 q 583 563 576 521 q 549 604 590 604 l 132 604 q 83 563 90 604 z "},"l":{"ha":875,"x_min":3,"x_max":744,"o":"m 63 208 l 688 208 q 736 250 729 208 q 703 292 744 292 l 78 292 q 28 250 36 292 q 63 208 21 208 m 44 104 l 669 104 q 718 146 711 104 q 683 188 725 188 l 58 188 q 10 146 17 188 q 44 104 3 104 m 131 0 l 651 0 q 700 42 693 0 q 665 83 707 83 l 144 83 q 96 42 103 83 q 131 0 89 0 m 47 354 q 81 313 39 313 l 289 313 q 339 354 331 313 q 304 396 346 396 l 96 396 q 47 354 54 396 m 65 458 q 99 417 57 417 l 307 417 q 357 458 349 417 q 322 500 364 500 l 114 500 q 65 458 72 500 m 118 521 l 326 521 q 375 563 368 521 q 340 604 382 604 l 132 604 q 83 563 90 604 q 118 521 76 521 m 119 771 q 154 729 113 729 l 363 729 q 411 771 404 729 q 378 813 419 813 l 169 813 q 119 771 128 813 m 139 875 q 172 833 131 833 l 381 833 q 431 875 422 833 q 396 917 438 917 l 188 917 q 139 875 146 917 m 192 938 l 400 938 q 449 979 442 938 q 414 1021 456 1021 l 206 1021 q 157 979 164 1021 q 192 938 150 938 m 101 667 q 136 625 94 625 l 344 625 q 393 667 386 625 q 360 708 401 708 l 151 708 q 101 667 110 708 m 210 1042 l 418 1042 q 467 1083 460 1042 q 432 1125 474 1125 l 224 1125 q 175 1083 182 1125 q 210 1042 168 1042 z "},"m":{"ha":1292,"x_min":-15,"x_max":1289,"o":"m 192 938 l 1233 938 q 1282 979 1275 938 q 1247 1021 1289 1021 l 206 1021 q 157 979 164 1021 q 192 938 150 938 m 172 833 l 1214 833 q 1264 875 1256 833 q 1229 917 1271 917 l 188 917 q 139 875 146 917 q 172 833 131 833 m 65 458 q 99 417 57 417 l 307 417 q 357 458 349 417 q 322 500 364 500 l 114 500 q 65 458 72 500 m 83 563 q 118 521 76 521 l 326 521 q 375 563 368 521 q 340 604 382 604 l 132 604 q 83 563 90 604 m 136 625 l 344 625 q 393 667 386 625 q 360 708 401 708 l 151 708 q 101 667 110 708 q 136 625 94 625 m 482 458 q 515 417 474 417 l 724 417 q 774 458 765 417 q 739 500 781 500 l 531 500 q 482 458 489 500 m 500 563 q 535 521 493 521 l 743 521 q 792 563 785 521 q 757 604 799 604 l 549 604 q 500 563 507 604 m 553 625 l 761 625 q 810 667 803 625 q 776 708 818 708 l 568 708 q 518 667 526 708 q 553 625 511 625 m 119 771 q 154 729 113 729 l 363 729 q 411 771 404 729 q 378 813 419 813 l 169 813 q 119 771 128 813 m 571 729 l 779 729 q 828 771 821 729 q 794 813 836 813 l 586 813 q 536 771 544 813 q 571 729 529 729 m 899 458 q 932 417 890 417 l 1140 417 q 1190 458 1182 417 q 1156 500 1197 500 l 947 500 q 899 458 906 500 m 917 563 q 951 521 910 521 l 1160 521 q 1208 563 1201 521 q 1174 604 1215 604 l 965 604 q 917 563 924 604 m 969 625 l 1178 625 q 1226 667 1219 625 q 1193 708 1235 708 l 985 708 q 935 667 943 708 q 969 625 928 625 m -8 42 q 26 0 -15 0 l 235 0 q 283 42 276 0 q 249 83 290 83 l 40 83 q -8 42 -1 83 m 10 146 q 44 104 3 104 l 253 104 q 301 146 294 104 q 267 188 308 188 l 58 188 q 10 146 17 188 m 63 208 l 271 208 q 319 250 313 208 q 286 292 328 292 l 78 292 q 28 250 36 292 q 63 208 21 208 m 953 771 q 988 729 946 729 l 1196 729 q 1244 771 1238 729 q 1211 813 1253 813 l 1003 813 q 953 771 961 813 m 81 313 l 289 313 q 339 354 331 313 q 304 396 346 396 l 96 396 q 47 354 54 396 q 81 313 39 313 m 408 42 q 443 0 401 0 l 651 0 q 700 42 693 0 q 665 83 707 83 l 457 83 q 408 42 415 83 m 426 146 q 461 104 419 104 l 669 104 q 718 146 711 104 q 683 188 725 188 l 475 188 q 426 146 433 188 m 479 208 l 688 208 q 736 250 729 208 q 703 292 744 292 l 494 292 q 444 250 453 292 q 479 208 438 208 m 825 42 q 860 0 818 0 l 1068 0 q 1117 42 1110 0 q 1082 83 1124 83 l 874 83 q 825 42 832 83 m 843 146 q 878 104 836 104 l 1086 104 q 1135 146 1128 104 q 1100 188 1142 188 l 892 188 q 843 146 850 188 m 896 208 l 1104 208 q 1153 250 1146 208 q 1119 292 1161 292 l 911 292 q 861 250 869 292 q 896 208 854 208 m 464 354 q 497 313 456 313 l 706 313 q 756 354 747 313 q 721 396 763 396 l 513 396 q 464 354 471 396 m 914 313 l 1122 313 q 1172 354 1164 313 q 1138 396 1179 396 l 929 396 q 881 354 888 396 q 914 313 872 313 m 175 1083 q 210 1042 168 1042 l 1147 1042 q 1196 1083 1189 1042 q 1161 1125 1203 1125 l 224 1125 q 175 1083 182 1125 z "},"n":{"ha":875,"x_min":-15,"x_max":872,"o":"m 172 833 l 797 833 q 847 875 839 833 q 813 917 854 917 l 188 917 q 139 875 146 917 q 172 833 131 833 m 192 938 l 817 938 q 865 979 858 938 q 831 1021 872 1021 l 206 1021 q 157 979 164 1021 q 192 938 150 938 m 65 458 q 99 417 57 417 l 307 417 q 357 458 349 417 q 322 500 364 500 l 114 500 q 65 458 72 500 m 83 563 q 118 521 76 521 l 326 521 q 375 563 368 521 q 340 604 382 604 l 132 604 q 83 563 90 604 m 136 625 l 344 625 q 393 667 386 625 q 360 708 401 708 l 151 708 q 101 667 110 708 q 136 625 94 625 m 482 458 q 515 417 474 417 l 724 417 q 774 458 765 417 q 739 500 781 500 l 531 500 q 482 458 489 500 m 500 563 q 535 521 493 521 l 743 521 q 792 563 785 521 q 757 604 799 604 l 549 604 q 500 563 507 604 m 553 625 l 761 625 q 810 667 803 625 q 776 708 818 708 l 568 708 q 518 667 526 708 q 553 625 511 625 m 119 771 q 154 729 113 729 l 363 729 q 411 771 404 729 q 378 813 419 813 l 169 813 q 119 771 128 813 m 571 729 l 779 729 q 828 771 821 729 q 794 813 836 813 l 586 813 q 536 771 544 813 q 571 729 529 729 m -8 42 q 26 0 -15 0 l 235 0 q 283 42 276 0 q 249 83 290 83 l 40 83 q -8 42 -1 83 m 10 146 q 44 104 3 104 l 253 104 q 301 146 294 104 q 267 188 308 188 l 58 188 q 10 146 17 188 m 63 208 l 271 208 q 319 250 313 208 q 286 292 328 292 l 78 292 q 28 250 36 292 q 63 208 21 208 m 408 42 q 443 0 401 0 l 651 0 q 700 42 693 0 q 665 83 707 83 l 457 83 q 408 42 415 83 m 426 146 q 461 104 419 104 l 669 104 q 718 146 711 104 q 683 188 725 188 l 475 188 q 426 146 433 188 m 479 208 l 688 208 q 736 250 729 208 q 703 292 744 292 l 494 292 q 444 250 453 292 q 479 208 438 208 m 47 354 q 81 313 39 313 l 289 313 q 339 354 331 313 q 304 396 346 396 l 96 396 q 47 354 54 396 m 497 313 l 706 313 q 756 354 747 313 q 721 396 763 396 l 513 396 q 464 354 471 396 q 497 313 456 313 m 175 1083 q 210 1042 168 1042 l 731 1042 q 779 1083 772 1042 q 744 1125 786 1125 l 224 1125 q 175 1083 182 1125 z "},"o":{"ha":875,"x_min":3,"x_max":872,"o":"m 172 833 l 797 833 q 847 875 839 833 q 813 917 854 917 l 188 917 q 139 875 146 917 q 172 833 131 833 m 192 938 l 817 938 q 865 979 858 938 q 831 1021 872 1021 l 206 1021 q 157 979 164 1021 q 192 938 150 938 m 44 104 l 669 104 q 718 146 711 104 q 683 188 725 188 l 58 188 q 10 146 17 188 q 44 104 3 104 m 63 208 l 688 208 q 736 250 729 208 q 703 292 744 292 l 78 292 q 28 250 36 292 q 63 208 21 208 m 65 458 q 99 417 57 417 l 307 417 q 357 458 349 417 q 322 500 364 500 l 114 500 q 65 458 72 500 m 83 563 q 118 521 76 521 l 326 521 q 375 563 368 521 q 340 604 382 604 l 132 604 q 83 563 90 604 m 136 625 l 344 625 q 393 667 386 625 q 360 708 401 708 l 151 708 q 101 667 110 708 q 136 625 94 625 m 482 458 q 515 417 474 417 l 724 417 q 774 458 765 417 q 739 500 781 500 l 531 500 q 482 458 489 500 m 500 563 q 535 521 493 521 l 743 521 q 792 563 785 521 q 757 604 799 604 l 549 604 q 500 563 507 604 m 553 625 l 761 625 q 810 667 803 625 q 776 708 818 708 l 568 708 q 518 667 526 708 q 553 625 511 625 m 119 771 q 154 729 113 729 l 363 729 q 411 771 404 729 q 378 813 419 813 l 169 813 q 119 771 128 813 m 571 729 l 779 729 q 828 771 821 729 q 794 813 836 813 l 586 813 q 536 771 544 813 q 571 729 529 729 m 47 354 q 81 313 39 313 l 289 313 q 339 354 331 313 q 304 396 346 396 l 96 396 q 47 354 54 396 m 497 313 l 706 313 q 756 354 747 313 q 721 396 763 396 l 513 396 q 464 354 471 396 q 497 313 456 313 m 279 1083 q 314 1042 272 1042 l 731 1042 q 779 1083 772 1042 q 744 1125 786 1125 l 328 1125 q 279 1083 286 1125 m 96 42 q 131 0 89 0 l 547 0 q 596 42 589 0 q 561 83 603 83 l 144 83 q 96 42 103 83 z "},"p":{"ha":875,"x_min":-15,"x_max":872,"o":"m 172 833 l 797 833 q 847 875 839 833 q 813 917 854 917 l 188 917 q 139 875 146 917 q 172 833 131 833 m 192 938 l 817 938 q 865 979 858 938 q 831 1021 872 1021 l 206 1021 q 157 979 164 1021 q 192 938 150 938 m 118 521 l 743 521 q 792 563 785 521 q 757 604 799 604 l 132 604 q 83 563 90 604 q 118 521 76 521 m 136 625 l 761 625 q 810 667 803 625 q 776 708 818 708 l 151 708 q 101 667 110 708 q 136 625 94 625 m -8 42 q 26 0 -15 0 l 235 0 q 283 42 276 0 q 249 83 290 83 l 40 83 q -8 42 -1 83 m 10 146 q 44 104 3 104 l 253 104 q 301 146 294 104 q 267 188 308 188 l 58 188 q 10 146 17 188 m 63 208 l 271 208 q 319 250 313 208 q 286 292 328 292 l 78 292 q 28 250 36 292 q 63 208 21 208 m 47 354 q 81 313 39 313 l 289 313 q 339 354 331 313 q 304 396 346 396 l 96 396 q 47 354 54 396 m 119 771 q 154 729 113 729 l 363 729 q 411 771 404 729 q 378 813 419 813 l 169 813 q 119 771 128 813 m 536 771 q 571 729 529 729 l 779 729 q 828 771 821 729 q 794 813 836 813 l 586 813 q 536 771 544 813 m 65 458 q 99 417 57 417 l 619 417 q 669 458 661 417 q 635 500 676 500 l 114 500 q 65 458 72 500 m 175 1083 q 210 1042 168 1042 l 731 1042 q 779 1083 772 1042 q 744 1125 786 1125 l 224 1125 q 175 1083 182 1125 z "},"q":{"ha":875,"x_min":11,"x_max":882,"o":"m 182 833 l 807 833 q 856 875 849 833 q 822 917 864 917 l 197 917 q 147 875 156 917 q 182 833 140 833 m 200 938 l 825 938 q 875 979 867 938 q 840 1021 882 1021 l 215 1021 q 167 979 174 1021 q 200 938 158 938 m 53 104 l 678 104 q 728 146 719 104 q 693 188 735 188 l 68 188 q 19 146 26 188 q 53 104 11 104 m 72 208 l 697 208 q 746 250 739 208 q 711 292 753 292 l 86 292 q 38 250 44 292 q 72 208 31 208 m 74 458 q 108 417 67 417 l 317 417 q 365 458 358 417 q 332 500 374 500 l 124 500 q 74 458 82 500 m 93 563 q 126 521 85 521 l 335 521 q 385 563 376 521 q 350 604 392 604 l 142 604 q 93 563 100 604 m 146 625 l 354 625 q 403 667 396 625 q 368 708 410 708 l 160 708 q 111 667 118 708 q 146 625 104 625 m 490 458 q 525 417 483 417 l 733 417 q 782 458 775 417 q 749 500 790 500 l 540 500 q 490 458 499 500 m 510 563 q 543 521 501 521 l 751 521 q 801 563 793 521 q 767 604 808 604 l 558 604 q 510 563 517 604 m 563 625 l 771 625 q 819 667 813 625 q 785 708 826 708 l 576 708 q 528 667 535 708 q 563 625 521 625 m 129 771 q 164 729 122 729 l 372 729 q 421 771 414 729 q 386 813 428 813 l 178 813 q 129 771 136 813 m 581 729 l 789 729 q 838 771 831 729 q 803 813 844 813 l 594 813 q 546 771 553 813 q 581 729 539 729 m 56 354 q 90 313 49 313 l 299 313 q 347 354 340 313 q 313 396 354 396 l 104 396 q 56 354 63 396 m 507 313 l 715 313 q 764 354 757 313 q 729 396 771 396 l 521 396 q 472 354 479 396 q 507 313 465 313 m 289 1083 q 322 1042 281 1042 l 739 1042 q 789 1083 781 1042 q 754 1125 796 1125 l 338 1125 q 289 1083 296 1125 m 104 42 q 139 0 97 0 l 660 0 q 708 42 701 0 q 675 83 717 83 l 154 83 q 104 42 113 83 m 433 -104 l 642 -104 q 690 -62 683 -104 q 657 -21 699 -21 l 449 -21 q 399 -62 407 -21 q 433 -104 392 -104 z "},"r":{"ha":875,"x_min":-15,"x_max":872,"o":"m 172 833 l 797 833 q 847 875 839 833 q 813 917 854 917 l 188 917 q 139 875 146 917 q 172 833 131 833 m 192 938 l 817 938 q 865 979 858 938 q 831 1021 872 1021 l 206 1021 q 157 979 164 1021 q 192 938 150 938 m 118 521 l 743 521 q 792 563 785 521 q 757 604 799 604 l 132 604 q 83 563 90 604 q 118 521 76 521 m 136 625 l 761 625 q 810 667 803 625 q 776 708 818 708 l 151 708 q 101 667 110 708 q 136 625 94 625 m -8 42 q 26 0 -15 0 l 235 0 q 283 42 276 0 q 249 83 290 83 l 40 83 q -8 42 -1 83 m 10 146 q 44 104 3 104 l 253 104 q 301 146 294 104 q 267 188 308 188 l 58 188 q 10 146 17 188 m 63 208 l 271 208 q 319 250 313 208 q 286 292 328 292 l 78 292 q 28 250 36 292 q 63 208 21 208 m 408 42 q 443 0 401 0 l 651 0 q 700 42 693 0 q 665 83 707 83 l 457 83 q 408 42 415 83 m 426 146 q 461 104 419 104 l 669 104 q 718 146 711 104 q 683 188 725 188 l 475 188 q 426 146 433 188 m 479 208 l 688 208 q 736 250 729 208 q 703 292 744 292 l 494 292 q 444 250 453 292 q 479 208 438 208 m 47 354 q 81 313 39 313 l 289 313 q 339 354 331 313 q 304 396 346 396 l 96 396 q 47 354 54 396 m 497 313 l 706 313 q 756 354 747 313 q 721 396 763 396 l 513 396 q 464 354 471 396 q 497 313 456 313 m 119 771 q 154 729 113 729 l 363 729 q 411 771 404 729 q 378 813 419 813 l 169 813 q 119 771 128 813 m 536 771 q 571 729 529 729 l 779 729 q 828 771 821 729 q 794 813 836 813 l 586 813 q 536 771 544 813 m 175 1083 q 210 1042 168 1042 l 731 1042 q 779 1083 772 1042 q 744 1125 786 1125 l 224 1125 q 175 1083 182 1125 m 65 458 q 99 417 57 417 l 619 417 q 669 458 661 417 q 635 500 676 500 l 114 500 q 65 458 72 500 z "},"s":{"ha":875,"x_min":-15,"x_max":890,"o":"m 44 104 l 669 104 q 718 146 711 104 q 683 188 725 188 l 58 188 q 10 146 17 188 q 44 104 3 104 m 63 208 l 688 208 q 736 250 729 208 q 703 292 744 292 l 78 292 q 28 250 36 292 q 63 208 21 208 m 172 833 l 797 833 q 847 875 839 833 q 813 917 854 917 l 188 917 q 139 875 146 917 q 172 833 131 833 m 192 938 l 817 938 q 865 979 858 938 q 831 1021 872 1021 l 206 1021 q 157 979 164 1021 q 192 938 150 938 m 464 354 q 497 313 456 313 l 706 313 q 756 354 747 313 q 721 396 763 396 l 513 396 q 464 354 471 396 m 119 771 q 154 729 113 729 l 363 729 q 411 771 404 729 q 378 813 419 813 l 169 813 q 119 771 128 813 m 101 667 q 136 625 94 625 l 657 625 q 706 667 699 625 q 672 708 714 708 l 151 708 q 101 667 110 708 m 160 458 q 193 417 151 417 l 724 417 q 774 458 765 417 q 739 500 781 500 l 208 500 q 160 458 167 500 m -8 42 q 26 0 -15 0 l 547 0 q 596 42 589 0 q 561 83 603 83 l 40 83 q -8 42 -1 83 m 279 1083 q 314 1042 272 1042 l 835 1042 q 883 1083 876 1042 q 849 1125 890 1125 l 328 1125 q 279 1083 286 1125 m 83 563 q 118 521 76 521 l 743 521 q 792 563 785 521 q 757 604 799 604 l 132 604 q 83 563 90 604 z "},"t":{"ha":875,"x_min":131,"x_max":890,"o":"m 172 833 l 797 833 q 847 875 839 833 q 813 917 854 917 l 188 917 q 139 875 146 917 q 172 833 131 833 m 192 938 l 817 938 q 865 979 858 938 q 831 1021 872 1021 l 206 1021 q 157 979 164 1021 q 192 938 150 938 m 210 1042 l 835 1042 q 883 1083 876 1042 q 849 1125 890 1125 l 224 1125 q 175 1083 182 1125 q 210 1042 168 1042 m 274 458 q 307 417 265 417 l 515 417 q 565 458 557 417 q 531 500 572 500 l 322 500 q 274 458 281 500 m 292 563 q 326 521 285 521 l 535 521 q 583 563 576 521 q 549 604 590 604 l 340 604 q 292 563 299 604 m 344 625 l 553 625 q 601 667 594 625 q 568 708 610 708 l 360 708 q 310 667 318 708 q 344 625 303 625 m 363 729 l 571 729 q 619 771 613 729 q 586 813 628 813 l 378 813 q 328 771 336 813 q 363 729 321 729 m 200 42 q 235 0 193 0 l 443 0 q 492 42 485 0 q 457 83 499 83 l 249 83 q 200 42 207 83 m 218 146 q 253 104 211 104 l 461 104 q 510 146 503 104 q 475 188 517 188 l 267 188 q 218 146 225 188 m 271 208 l 479 208 q 528 250 521 208 q 494 292 536 292 l 286 292 q 236 250 244 292 q 271 208 229 208 m 289 313 l 497 313 q 547 354 539 313 q 513 396 554 396 l 304 396 q 256 354 263 396 q 289 313 247 313 z "},"u":{"ha":875,"x_min":3,"x_max":890,"o":"m 44 104 l 669 104 q 718 146 711 104 q 683 188 725 188 l 58 188 q 10 146 17 188 q 44 104 3 104 m 63 208 l 688 208 q 736 250 729 208 q 703 292 744 292 l 78 292 q 28 250 36 292 q 63 208 21 208 m 47 354 q 81 313 39 313 l 289 313 q 339 354 331 313 q 304 396 346 396 l 96 396 q 47 354 54 396 m 65 458 q 99 417 57 417 l 307 417 q 357 458 349 417 q 322 500 364 500 l 114 500 q 65 458 72 500 m 118 521 l 326 521 q 375 563 368 521 q 340 604 382 604 l 132 604 q 83 563 90 604 q 118 521 76 521 m 136 625 l 344 625 q 393 667 386 625 q 360 708 401 708 l 151 708 q 101 667 110 708 q 136 625 94 625 m 464 354 q 497 313 456 313 l 706 313 q 756 354 747 313 q 721 396 763 396 l 513 396 q 464 354 471 396 m 482 458 q 515 417 474 417 l 724 417 q 774 458 765 417 q 739 500 781 500 l 531 500 q 482 458 489 500 m 535 521 l 743 521 q 792 563 785 521 q 757 604 799 604 l 549 604 q 500 563 507 604 q 535 521 493 521 m 553 625 l 761 625 q 810 667 803 625 q 776 708 818 708 l 568 708 q 518 667 526 708 q 553 625 511 625 m 536 771 q 571 729 529 729 l 779 729 q 828 771 821 729 q 794 813 836 813 l 586 813 q 536 771 544 813 m 556 875 q 589 833 547 833 l 797 833 q 847 875 839 833 q 813 917 854 917 l 604 917 q 556 875 563 917 m 608 938 l 817 938 q 865 979 858 938 q 831 1021 872 1021 l 622 1021 q 574 979 581 1021 q 608 938 567 938 m 626 1042 l 835 1042 q 883 1083 876 1042 q 849 1125 890 1125 l 640 1125 q 592 1083 599 1125 q 626 1042 585 1042 m 119 771 q 154 729 113 729 l 363 729 q 411 771 404 729 q 378 813 419 813 l 169 813 q 119 771 128 813 m 139 875 q 172 833 131 833 l 381 833 q 431 875 422 833 q 396 917 438 917 l 188 917 q 139 875 146 917 m 192 938 l 400 938 q 449 979 442 938 q 414 1021 456 1021 l 206 1021 q 157 979 164 1021 q 192 938 150 938 m 210 1042 l 418 1042 q 467 1083 460 1042 q 432 1125 474 1125 l 224 1125 q 175 1083 182 1125 q 210 1042 168 1042 m 96 42 q 131 0 89 0 l 547 0 q 596 42 589 0 q 561 83 603 83 l 144 83 q 96 42 103 83 z "},"v":{"ha":875,"x_min":21,"x_max":890,"o":"m 63 208 l 688 208 q 736 250 729 208 q 703 292 744 292 l 78 292 q 28 250 36 292 q 63 208 21 208 m 47 354 q 81 313 39 313 l 289 313 q 339 354 331 313 q 304 396 346 396 l 96 396 q 47 354 54 396 m 65 458 q 99 417 57 417 l 307 417 q 357 458 349 417 q 322 500 364 500 l 114 500 q 65 458 72 500 m 118 521 l 326 521 q 375 563 368 521 q 340 604 382 604 l 132 604 q 83 563 90 604 q 118 521 76 521 m 136 625 l 344 625 q 393 667 386 625 q 360 708 401 708 l 151 708 q 101 667 110 708 q 136 625 94 625 m 464 354 q 497 313 456 313 l 706 313 q 756 354 747 313 q 721 396 763 396 l 513 396 q 464 354 471 396 m 482 458 q 515 417 474 417 l 724 417 q 774 458 765 417 q 739 500 781 500 l 531 500 q 482 458 489 500 m 535 521 l 743 521 q 792 563 785 521 q 757 604 799 604 l 549 604 q 500 563 507 604 q 535 521 493 521 m 553 625 l 761 625 q 810 667 803 625 q 776 708 818 708 l 568 708 q 518 667 526 708 q 553 625 511 625 m 536 771 q 571 729 529 729 l 779 729 q 828 771 821 729 q 794 813 836 813 l 586 813 q 536 771 544 813 m 556 875 q 589 833 547 833 l 797 833 q 847 875 839 833 q 813 917 854 917 l 604 917 q 556 875 563 917 m 608 938 l 817 938 q 865 979 858 938 q 831 1021 872 1021 l 622 1021 q 574 979 581 1021 q 608 938 567 938 m 626 1042 l 835 1042 q 883 1083 876 1042 q 849 1125 890 1125 l 640 1125 q 592 1083 599 1125 q 626 1042 585 1042 m 119 771 q 154 729 113 729 l 363 729 q 411 771 404 729 q 378 813 419 813 l 169 813 q 119 771 128 813 m 139 875 q 172 833 131 833 l 381 833 q 431 875 422 833 q 396 917 438 917 l 188 917 q 139 875 146 917 m 192 938 l 400 938 q 449 979 442 938 q 414 1021 456 1021 l 206 1021 q 157 979 164 1021 q 192 938 150 938 m 210 1042 l 418 1042 q 467 1083 460 1042 q 432 1125 474 1125 l 224 1125 q 175 1083 182 1125 q 210 1042 168 1042 m 200 42 q 235 0 193 0 l 443 0 q 492 42 485 0 q 457 83 499 83 l 249 83 q 200 42 207 83 m 114 146 q 149 104 107 104 l 565 104 q 614 146 607 104 q 579 188 621 188 l 163 188 q 114 146 121 188 z "},"w":{"ha":1292,"x_min":3,"x_max":1307,"o":"m 44 104 l 1086 104 q 1135 146 1128 104 q 1100 188 1142 188 l 58 188 q 10 146 17 188 q 44 104 3 104 m 63 208 l 1104 208 q 1153 250 1146 208 q 1119 292 1161 292 l 78 292 q 28 250 36 292 q 63 208 21 208 m 47 354 q 81 313 39 313 l 289 313 q 339 354 331 313 q 304 396 346 396 l 96 396 q 47 354 54 396 m 65 458 q 99 417 57 417 l 307 417 q 357 458 349 417 q 322 500 364 500 l 114 500 q 65 458 72 500 m 118 521 l 326 521 q 375 563 368 521 q 340 604 382 604 l 132 604 q 83 563 90 604 q 118 521 76 521 m 136 625 l 344 625 q 393 667 386 625 q 360 708 401 708 l 151 708 q 101 667 110 708 q 136 625 94 625 m 464 354 q 497 313 456 313 l 706 313 q 756 354 747 313 q 721 396 763 396 l 513 396 q 464 354 471 396 m 482 458 q 515 417 474 417 l 724 417 q 774 458 765 417 q 739 500 781 500 l 531 500 q 482 458 489 500 m 535 521 l 743 521 q 792 563 785 521 q 757 604 799 604 l 549 604 q 500 563 507 604 q 535 521 493 521 m 553 625 l 761 625 q 810 667 803 625 q 776 708 818 708 l 568 708 q 518 667 526 708 q 553 625 511 625 m 536 771 q 571 729 529 729 l 779 729 q 828 771 821 729 q 794 813 836 813 l 586 813 q 536 771 544 813 m 556 875 q 589 833 547 833 l 797 833 q 847 875 839 833 q 813 917 854 917 l 604 917 q 556 875 563 917 m 608 938 l 817 938 q 865 979 858 938 q 831 1021 872 1021 l 622 1021 q 574 979 581 1021 q 608 938 567 938 m 626 1042 l 835 1042 q 883 1083 876 1042 q 849 1125 890 1125 l 640 1125 q 592 1083 599 1125 q 626 1042 585 1042 m 119 771 q 154 729 113 729 l 363 729 q 411 771 404 729 q 378 813 419 813 l 169 813 q 119 771 128 813 m 139 875 q 172 833 131 833 l 381 833 q 431 875 422 833 q 396 917 438 917 l 188 917 q 139 875 146 917 m 192 938 l 400 938 q 449 979 442 938 q 414 1021 456 1021 l 206 1021 q 157 979 164 1021 q 192 938 150 938 m 210 1042 l 418 1042 q 467 1083 460 1042 q 432 1125 474 1125 l 224 1125 q 175 1083 182 1125 q 210 1042 168 1042 m 881 354 q 914 313 872 313 l 1122 313 q 1172 354 1164 313 q 1138 396 1179 396 l 929 396 q 881 354 888 396 m 899 458 q 932 417 890 417 l 1140 417 q 1190 458 1182 417 q 1156 500 1197 500 l 947 500 q 899 458 906 500 m 951 521 l 1160 521 q 1208 563 1201 521 q 1174 604 1215 604 l 965 604 q 917 563 924 604 q 951 521 910 521 m 969 625 l 1178 625 q 1226 667 1219 625 q 1193 708 1235 708 l 985 708 q 935 667 943 708 q 969 625 928 625 m 953 771 q 988 729 946 729 l 1196 729 q 1244 771 1238 729 q 1211 813 1253 813 l 1003 813 q 953 771 961 813 m 972 875 q 1006 833 964 833 l 1214 833 q 1264 875 1256 833 q 1229 917 1271 917 l 1021 917 q 972 875 979 917 m 1025 938 l 1233 938 q 1282 979 1275 938 q 1247 1021 1289 1021 l 1039 1021 q 990 979 997 1021 q 1025 938 983 938 m 1043 1042 l 1251 1042 q 1300 1083 1293 1042 q 1265 1125 1307 1125 l 1057 1125 q 1008 1083 1015 1125 q 1043 1042 1001 1042 m 96 42 q 131 0 89 0 l 964 0 q 1013 42 1006 0 q 978 83 1019 83 l 144 83 q 96 42 103 83 z "},"x":{"ha":875,"x_min":-15,"x_max":890,"o":"m 99 417 l 724 417 q 774 458 765 417 q 739 500 781 500 l 114 500 q 65 458 72 500 q 99 417 57 417 m 136 625 l 761 625 q 810 667 803 625 q 776 708 818 708 l 151 708 q 101 667 110 708 q 136 625 94 625 m 119 771 q 154 729 113 729 l 363 729 q 411 771 404 729 q 378 813 419 813 l 169 813 q 119 771 128 813 m 139 875 q 172 833 131 833 l 381 833 q 431 875 422 833 q 396 917 438 917 l 188 917 q 139 875 146 917 m 192 938 l 400 938 q 449 979 442 938 q 414 1021 456 1021 l 206 1021 q 157 979 164 1021 q 192 938 150 938 m 210 1042 l 418 1042 q 467 1083 460 1042 q 432 1125 474 1125 l 224 1125 q 175 1083 182 1125 q 210 1042 168 1042 m 536 771 q 571 729 529 729 l 779 729 q 828 771 821 729 q 794 813 836 813 l 586 813 q 536 771 544 813 m 556 875 q 589 833 547 833 l 797 833 q 847 875 839 833 q 813 917 854 917 l 604 917 q 556 875 563 917 m 608 938 l 817 938 q 865 979 858 938 q 831 1021 872 1021 l 622 1021 q 574 979 581 1021 q 608 938 567 938 m 626 1042 l 835 1042 q 883 1083 876 1042 q 849 1125 890 1125 l 640 1125 q 592 1083 599 1125 q 626 1042 585 1042 m 408 42 q 443 0 401 0 l 651 0 q 700 42 693 0 q 665 83 707 83 l 457 83 q 408 42 415 83 m 426 146 q 461 104 419 104 l 669 104 q 718 146 711 104 q 683 188 725 188 l 475 188 q 426 146 433 188 m 479 208 l 688 208 q 736 250 729 208 q 703 292 744 292 l 494 292 q 444 250 453 292 q 479 208 438 208 m 497 313 l 706 313 q 756 354 747 313 q 721 396 763 396 l 513 396 q 464 354 471 396 q 497 313 456 313 m -8 42 q 26 0 -15 0 l 235 0 q 283 42 276 0 q 249 83 290 83 l 40 83 q -8 42 -1 83 m 10 146 q 44 104 3 104 l 253 104 q 301 146 294 104 q 267 188 308 188 l 58 188 q 10 146 17 188 m 63 208 l 271 208 q 319 250 313 208 q 286 292 328 292 l 78 292 q 28 250 36 292 q 63 208 21 208 m 81 313 l 289 313 q 339 354 331 313 q 304 396 346 396 l 96 396 q 47 354 54 396 q 81 313 39 313 m 188 563 q 222 521 181 521 l 639 521 q 688 563 681 521 q 653 604 694 604 l 236 604 q 188 563 194 604 z "},"y":{"ha":875,"x_min":76,"x_max":890,"o":"m 118 521 l 743 521 q 792 563 785 521 q 757 604 799 604 l 132 604 q 83 563 90 604 q 118 521 76 521 m 136 625 l 761 625 q 810 667 803 625 q 776 708 818 708 l 151 708 q 101 667 110 708 q 136 625 94 625 m 200 42 q 235 0 193 0 l 443 0 q 492 42 485 0 q 457 83 499 83 l 249 83 q 200 42 207 83 m 218 146 q 253 104 211 104 l 461 104 q 510 146 503 104 q 475 188 517 188 l 267 188 q 218 146 225 188 m 271 208 l 479 208 q 528 250 521 208 q 494 292 536 292 l 286 292 q 236 250 244 292 q 271 208 229 208 m 289 313 l 497 313 q 547 354 539 313 q 513 396 554 396 l 304 396 q 256 354 263 396 q 289 313 247 313 m 119 771 q 154 729 113 729 l 363 729 q 411 771 404 729 q 378 813 419 813 l 169 813 q 119 771 128 813 m 139 875 q 172 833 131 833 l 381 833 q 431 875 422 833 q 396 917 438 917 l 188 917 q 139 875 146 917 m 192 938 l 400 938 q 449 979 442 938 q 414 1021 456 1021 l 206 1021 q 157 979 164 1021 q 192 938 150 938 m 210 1042 l 418 1042 q 467 1083 460 1042 q 432 1125 474 1125 l 224 1125 q 175 1083 182 1125 q 210 1042 168 1042 m 536 771 q 571 729 529 729 l 779 729 q 828 771 821 729 q 794 813 836 813 l 586 813 q 536 771 544 813 m 556 875 q 589 833 547 833 l 797 833 q 847 875 839 833 q 813 917 854 917 l 604 917 q 556 875 563 917 m 608 938 l 817 938 q 865 979 858 938 q 831 1021 872 1021 l 622 1021 q 574 979 581 1021 q 608 938 567 938 m 626 1042 l 835 1042 q 883 1083 876 1042 q 849 1125 890 1125 l 640 1125 q 592 1083 599 1125 q 626 1042 585 1042 m 169 458 q 203 417 161 417 l 619 417 q 669 458 661 417 q 635 500 676 500 l 218 500 q 169 458 176 500 z "},"z":{"ha":875,"x_min":-15,"x_max":890,"o":"m 172 833 l 797 833 q 847 875 839 833 q 813 917 854 917 l 188 917 q 139 875 146 917 q 172 833 131 833 m 192 938 l 817 938 q 865 979 858 938 q 831 1021 872 1021 l 206 1021 q 157 979 164 1021 q 192 938 150 938 m 210 1042 l 835 1042 q 883 1083 876 1042 q 849 1125 890 1125 l 224 1125 q 175 1083 182 1125 q 210 1042 168 1042 m 26 0 l 651 0 q 700 42 693 0 q 665 83 707 83 l 40 83 q -8 42 -1 83 q 26 0 -15 0 m 44 104 l 669 104 q 718 146 711 104 q 683 188 725 188 l 58 188 q 10 146 17 188 q 44 104 3 104 m 63 208 l 688 208 q 736 250 729 208 q 703 292 744 292 l 78 292 q 28 250 36 292 q 63 208 21 208 m 310 667 q 344 625 303 625 l 657 625 q 706 667 699 625 q 672 708 714 708 l 360 708 q 310 667 318 708 m 81 313 l 393 313 q 443 354 435 313 q 408 396 450 396 l 96 396 q 47 354 54 396 q 81 313 39 313 m 467 729 l 779 729 q 828 771 821 729 q 794 813 836 813 l 482 813 q 432 771 440 813 q 467 729 425 729 m 65 458 q 99 417 57 417 l 411 417 q 461 458 453 417 q 426 500 468 500 l 114 500 q 65 458 72 500 m 222 521 l 535 521 q 583 563 576 521 q 549 604 590 604 l 236 604 q 188 563 194 604 q 222 521 181 521 z "},"{":{"ha":458,"x_min":-28,"x_max":597,"o":"m 172 833 l 381 833 q 431 875 422 833 q 396 917 438 917 l 188 917 q 139 875 146 917 q 172 833 131 833 m 192 938 l 400 938 q 449 979 442 938 q 414 1021 456 1021 l 206 1021 q 157 979 164 1021 q 192 938 150 938 m 14 521 l 222 521 q 271 563 264 521 q 236 604 278 604 l 28 604 q -21 563 -14 604 q 14 521 -28 521 m 47 354 q 81 313 39 313 l 289 313 q 339 354 331 313 q 304 396 346 396 l 96 396 q 47 354 54 396 m 314 1042 l 418 1042 q 467 1083 460 1042 q 432 1125 474 1125 l 328 1125 q 279 1083 286 1125 q 314 1042 272 1042 m 154 729 l 363 729 q 411 771 404 729 q 378 813 419 813 l 169 813 q 119 771 128 813 q 154 729 113 729 m 99 417 l 307 417 q 357 458 349 417 q 322 500 364 500 l 114 500 q 65 458 72 500 q 99 417 57 417 m 44 104 l 253 104 q 301 146 294 104 q 267 188 308 188 l 58 188 q 10 146 17 188 q 44 104 3 104 m 63 208 l 271 208 q 319 250 313 208 q 286 292 328 292 l 78 292 q 28 250 36 292 q 63 208 21 208 m 136 625 l 344 625 q 393 667 386 625 q 360 708 401 708 l 151 708 q 101 667 110 708 q 136 625 94 625 m 401 1188 q 436 1146 394 1146 l 540 1146 q 589 1188 582 1146 q 556 1229 597 1229 l 451 1229 q 401 1188 410 1229 m 96 42 q 131 0 89 0 l 235 0 q 283 42 276 0 q 249 83 290 83 l 144 83 q 96 42 103 83 m 182 -62 q 215 -104 174 -104 l 319 -104 q 369 -62 361 -104 q 335 -21 376 -21 l 231 -21 q 182 -62 189 -21 z "},"|":{"ha":458,"x_min":-15,"x_max":474,"o":"m 286 292 l 78 292 q 28 250 36 292 q 63 208 21 208 l 271 208 q 319 250 313 208 q 286 292 328 292 m 267 188 l 58 188 q 10 146 17 188 q 44 104 3 104 l 253 104 q 301 146 294 104 q 267 188 308 188 m 340 604 l 132 604 q 83 563 90 604 q 118 521 76 521 l 326 521 q 375 563 368 521 q 340 604 382 604 m 411 771 q 378 813 419 813 l 169 813 q 119 771 128 813 q 154 729 113 729 l 363 729 q 411 771 404 729 m 249 83 l 40 83 q -8 42 -1 83 q 26 0 -15 0 l 235 0 q 283 42 276 0 q 249 83 290 83 m 304 396 l 96 396 q 47 354 54 396 q 81 313 39 313 l 289 313 q 339 354 331 313 q 304 396 346 396 m 360 708 l 151 708 q 101 667 110 708 q 136 625 94 625 l 344 625 q 393 667 386 625 q 360 708 401 708 m 414 1021 l 206 1021 q 157 979 164 1021 q 192 938 150 938 l 400 938 q 449 979 442 938 q 414 1021 456 1021 m 396 917 l 188 917 q 139 875 146 917 q 172 833 131 833 l 381 833 q 431 875 422 833 q 396 917 438 917 m 322 500 l 114 500 q 65 458 72 500 q 99 417 57 417 l 307 417 q 357 458 349 417 q 322 500 364 500 m 467 1083 q 432 1125 474 1125 l 224 1125 q 175 1083 182 1125 q 210 1042 168 1042 l 418 1042 q 467 1083 460 1042 z "},"}":{"ha":458,"x_min":-139,"x_max":486,"o":"m 286 292 l 78 292 q 28 250 36 292 q 63 208 21 208 l 271 208 q 319 250 313 208 q 286 292 328 292 m 267 188 l 58 188 q 10 146 17 188 q 44 104 3 104 l 253 104 q 301 146 294 104 q 267 188 308 188 m 444 604 l 236 604 q 188 563 194 604 q 222 521 181 521 l 431 521 q 479 563 472 521 q 444 604 486 604 m 411 771 q 378 813 419 813 l 169 813 q 119 771 128 813 q 154 729 113 729 l 363 729 q 411 771 404 729 m 144 83 l 40 83 q -8 42 -1 83 q 26 0 -15 0 l 131 0 q 179 42 172 0 q 144 83 186 83 m 304 396 l 96 396 q 47 354 54 396 q 81 313 39 313 l 289 313 q 339 354 331 313 q 304 396 346 396 m 360 708 l 151 708 q 101 667 110 708 q 136 625 94 625 l 344 625 q 393 667 386 625 q 360 708 401 708 m 414 1021 l 206 1021 q 157 979 164 1021 q 192 938 150 938 l 400 938 q 449 979 442 938 q 414 1021 456 1021 m 396 917 l 188 917 q 139 875 146 917 q 172 833 131 833 l 381 833 q 431 875 422 833 q 396 917 438 917 m 322 500 l 114 500 q 65 458 72 500 q 99 417 57 417 l 307 417 q 357 458 349 417 q 322 500 364 500 m 57 -62 q 22 -21 64 -21 l -82 -21 q -131 -62 -124 -21 q -97 -104 -139 -104 l 7 -104 q 57 -62 49 -104 m 363 1083 q 328 1125 369 1125 l 224 1125 q 175 1083 182 1125 q 210 1042 168 1042 l 314 1042 q 363 1083 356 1042 m 276 1188 q 243 1229 285 1229 l 139 1229 q 89 1188 97 1229 q 124 1146 82 1146 l 228 1146 q 276 1188 269 1146 z "},"~":{"ha":875,"x_min":57,"x_max":818,"o":"m 83 563 q 132 604 90 604 l 757 604 q 792 563 799 604 q 743 521 785 521 l 118 521 q 83 563 76 521 m 256 708 l 464 708 q 497 667 506 708 q 449 625 490 625 l 240 625 q 206 667 199 625 q 256 708 214 708 m 672 708 l 776 708 q 810 667 818 708 q 761 625 803 625 l 657 625 q 622 667 615 625 q 672 708 631 708 m 619 417 l 411 417 q 378 458 369 417 q 426 500 385 500 l 635 500 q 669 458 676 500 q 619 417 661 417 m 203 417 l 99 417 q 65 458 57 417 q 114 500 72 500 l 218 500 q 253 458 260 500 q 203 417 244 417 z "},"¡":{"ha":458,"x_min":-15,"x_max":474,"o":"m 101 667 q 151 708 110 708 l 360 708 q 393 667 401 708 q 344 625 386 625 l 136 625 q 101 667 94 625 m 83 563 q 132 604 90 604 l 340 604 q 375 563 382 604 q 326 521 368 521 l 118 521 q 83 563 76 521 m 114 500 l 322 500 q 357 458 364 500 q 307 417 349 417 l 99 417 q 65 458 57 417 q 114 500 72 500 m 28 250 q 78 292 36 292 l 286 292 q 319 250 328 292 q 271 208 313 208 l 63 208 q 28 250 21 208 m 10 146 q 58 188 17 188 l 267 188 q 301 146 308 188 q 253 104 294 104 l 44 104 q 10 146 3 104 m 40 83 l 249 83 q 283 42 290 83 q 235 0 276 0 l 26 0 q -8 42 -15 0 q 40 83 -1 83 m 47 354 q 96 396 54 396 l 304 396 q 339 354 346 396 q 289 313 331 313 l 81 313 q 47 354 39 313 m 175 1083 q 224 1125 182 1125 l 432 1125 q 467 1083 474 1125 q 418 1042 460 1042 l 210 1042 q 175 1083 168 1042 m 206 1021 l 414 1021 q 449 979 456 1021 q 400 938 442 938 l 192 938 q 157 979 150 938 q 206 1021 164 1021 m 139 875 q 188 917 146 917 l 396 917 q 431 875 438 917 q 381 833 422 833 l 172 833 q 139 875 131 833 z "},"¢":{"ha":875,"x_min":39,"x_max":836,"o":"m 276 833 l 693 833 q 743 875 735 833 q 708 917 750 917 l 292 917 q 243 875 250 917 q 276 833 235 833 m 400 938 l 608 938 q 657 979 650 938 q 622 1021 664 1021 l 414 1021 q 365 979 372 1021 q 400 938 358 938 m 167 208 l 583 208 q 632 250 625 208 q 599 292 640 292 l 182 292 q 132 250 140 292 q 167 208 125 208 m 253 104 l 461 104 q 510 146 503 104 q 475 188 517 188 l 267 188 q 218 146 225 188 q 253 104 211 104 m 83 563 q 118 521 76 521 l 326 521 q 375 563 368 521 q 340 604 382 604 l 132 604 q 83 563 90 604 m 101 667 q 136 625 94 625 l 344 625 q 393 667 386 625 q 360 708 401 708 l 151 708 q 101 667 110 708 m 154 729 l 363 729 q 411 771 404 729 q 378 813 419 813 l 169 813 q 119 771 128 813 q 154 729 113 729 m 47 354 q 81 313 39 313 l 289 313 q 339 354 331 313 q 304 396 346 396 l 96 396 q 47 354 54 396 m 65 458 q 99 417 57 417 l 307 417 q 357 458 349 417 q 322 500 364 500 l 114 500 q 65 458 72 500 m 464 354 q 497 313 456 313 l 706 313 q 756 354 747 313 q 721 396 763 396 l 513 396 q 464 354 471 396 m 536 771 q 571 729 529 729 l 779 729 q 828 771 821 729 q 794 813 836 813 l 586 813 q 536 771 544 813 m 200 42 q 235 0 193 0 l 443 0 q 492 42 485 0 q 457 83 499 83 l 249 83 q 200 42 207 83 m 383 1083 q 418 1042 376 1042 l 626 1042 q 675 1083 668 1042 q 640 1125 682 1125 l 432 1125 q 383 1083 390 1125 z "},"£":{"ha":875,"x_min":-24,"x_max":890,"o":"m 276 833 l 797 833 q 847 875 839 833 q 813 917 854 917 l 292 917 q 243 875 250 917 q 276 833 235 833 m 296 938 l 817 938 q 865 979 858 938 q 831 1021 872 1021 l 310 1021 q 261 979 268 1021 q 296 938 254 938 m 136 625 l 761 625 q 810 667 803 625 q 776 708 818 708 l 151 708 q 101 667 110 708 q 136 625 94 625 m 118 521 l 743 521 q 792 563 785 521 q 757 604 799 604 l 132 604 q 83 563 90 604 q 118 521 76 521 m 99 417 l 724 417 q 774 458 765 417 q 739 500 781 500 l 114 500 q 65 458 72 500 q 99 417 57 417 m 63 208 l 688 208 q 736 250 729 208 q 703 292 744 292 l 78 292 q 28 250 36 292 q 63 208 21 208 m 44 104 l 669 104 q 718 146 711 104 q 683 188 725 188 l 58 188 q 10 146 17 188 q 44 104 3 104 m 160 354 q 193 313 151 313 l 401 313 q 451 354 443 313 q 417 396 458 396 l 208 396 q 160 354 167 396 m 258 729 l 467 729 q 515 771 508 729 q 482 813 524 813 l 274 813 q 224 771 232 813 q 258 729 217 729 m -17 42 q 18 0 -24 0 l 651 0 q 700 42 693 0 q 665 83 707 83 l 32 83 q -17 42 -10 83 m 383 1083 q 418 1042 376 1042 l 835 1042 q 883 1083 876 1042 q 849 1125 890 1125 l 432 1125 q 383 1083 390 1125 z "},"¤":{"ha":875,"x_min":57,"x_max":818,"o":"m 83 563 q 118 521 76 521 l 743 521 q 792 563 785 521 q 757 604 799 604 l 132 604 q 83 563 90 604 m 101 667 q 136 625 94 625 l 761 625 q 810 667 803 625 q 776 708 818 708 l 151 708 q 101 667 110 708 m 99 417 l 724 417 q 774 458 765 417 q 739 500 781 500 l 114 500 q 65 458 72 500 q 99 417 57 417 m 347 875 q 381 833 339 833 l 589 833 q 639 875 631 833 q 604 917 646 917 l 396 917 q 347 875 354 917 m 365 979 q 400 938 358 938 l 608 938 q 657 979 650 938 q 622 1021 664 1021 l 414 1021 q 365 979 372 1021 m 363 729 l 571 729 q 619 771 613 729 q 586 813 628 813 l 378 813 q 328 771 336 813 q 363 729 321 729 m 236 250 q 271 208 229 208 l 479 208 q 528 250 521 208 q 494 292 536 292 l 286 292 q 236 250 244 292 m 256 354 q 289 313 247 313 l 497 313 q 547 354 539 313 q 513 396 554 396 l 304 396 q 256 354 263 396 m 253 104 l 461 104 q 510 146 503 104 q 475 188 517 188 l 267 188 q 218 146 225 188 q 253 104 211 104 z "},"¥":{"ha":875,"x_min":3,"x_max":890,"o":"m 222 521 l 639 521 q 688 563 681 521 q 653 604 694 604 l 236 604 q 188 563 194 604 q 222 521 181 521 m 200 42 q 235 0 193 0 l 443 0 q 492 42 485 0 q 457 83 499 83 l 249 83 q 200 42 207 83 m 10 146 q 44 104 3 104 l 669 104 q 718 146 711 104 q 683 188 725 188 l 58 188 q 10 146 17 188 m 271 208 l 479 208 q 528 250 521 208 q 494 292 536 292 l 286 292 q 236 250 244 292 q 271 208 229 208 m 81 313 l 706 313 q 756 354 747 313 q 721 396 763 396 l 96 396 q 47 354 54 396 q 81 313 39 313 m 206 667 q 240 625 199 625 l 344 625 q 393 667 386 625 q 360 708 401 708 l 256 708 q 206 667 214 708 m 224 771 q 258 729 217 729 l 363 729 q 411 771 404 729 q 378 813 419 813 l 274 813 q 224 771 232 813 m 172 833 l 297 833 q 347 875 339 833 q 313 917 354 917 l 188 917 q 139 875 146 917 q 172 833 131 833 m 192 938 l 317 938 q 365 979 358 938 q 331 1021 372 1021 l 206 1021 q 157 979 164 1021 q 192 938 150 938 m 518 667 q 553 625 511 625 l 657 625 q 706 667 699 625 q 672 708 714 708 l 568 708 q 518 667 526 708 m 536 771 q 571 729 529 729 l 675 729 q 724 771 717 729 q 690 813 732 813 l 586 813 q 536 771 544 813 m 693 833 l 797 833 q 847 875 839 833 q 813 917 854 917 l 708 917 q 660 875 667 917 q 693 833 651 833 m 713 938 l 817 938 q 865 979 858 938 q 831 1021 872 1021 l 726 1021 q 678 979 685 1021 q 713 938 671 938 m 274 458 q 307 417 265 417 l 515 417 q 565 458 557 417 q 531 500 572 500 l 322 500 q 274 458 281 500 m 210 1042 l 335 1042 q 383 1083 376 1042 q 349 1125 390 1125 l 224 1125 q 175 1083 182 1125 q 210 1042 168 1042 m 731 1042 l 835 1042 q 883 1083 876 1042 q 849 1125 890 1125 l 744 1125 q 696 1083 703 1125 q 731 1042 689 1042 z "},"¦":{"ha":458,"x_min":-15,"x_max":474,"o":"m 286 292 l 78 292 q 28 250 36 292 q 63 208 21 208 l 271 208 q 319 250 313 208 q 286 292 328 292 m 267 188 l 58 188 q 10 146 17 188 q 44 104 3 104 l 253 104 q 301 146 294 104 q 267 188 308 188 m 411 771 q 378 813 419 813 l 169 813 q 119 771 128 813 q 154 729 113 729 l 363 729 q 411 771 404 729 m 249 83 l 40 83 q -8 42 -1 83 q 26 0 -15 0 l 235 0 q 283 42 276 0 q 249 83 290 83 m 304 396 l 96 396 q 47 354 54 396 q 81 313 39 313 l 289 313 q 339 354 331 313 q 304 396 346 396 m 360 708 l 151 708 q 101 667 110 708 q 136 625 94 625 l 344 625 q 393 667 386 625 q 360 708 401 708 m 414 1021 l 206 1021 q 157 979 164 1021 q 192 938 150 938 l 400 938 q 449 979 442 938 q 414 1021 456 1021 m 396 917 l 188 917 q 139 875 146 917 q 172 833 131 833 l 381 833 q 431 875 422 833 q 396 917 438 917 m 322 500 l 114 500 q 65 458 72 500 q 99 417 57 417 l 307 417 q 357 458 349 417 q 322 500 364 500 m 467 1083 q 432 1125 474 1125 l 224 1125 q 175 1083 182 1125 q 210 1042 168 1042 l 418 1042 q 467 1083 460 1042 z "},"§":{"ha":875,"x_min":-15,"x_max":890,"o":"m 44 104 l 669 104 q 718 146 711 104 q 683 188 725 188 l 58 188 q 10 146 17 188 q 44 104 3 104 m 479 208 l 688 208 q 736 250 729 208 q 703 292 744 292 l 494 292 q 444 250 453 292 q 479 208 438 208 m 172 833 l 381 833 q 431 875 422 833 q 396 917 438 917 l 188 917 q 139 875 146 917 q 172 833 131 833 m 192 938 l 817 938 q 865 979 858 938 q 831 1021 872 1021 l 206 1021 q 157 979 164 1021 q 192 938 150 938 m 119 771 q 127 742 117 754 q 154 729 138 729 l 675 729 q 724 771 717 729 q 690 813 732 813 l 169 813 q 119 771 128 813 m 518 667 q 553 625 511 625 l 761 625 q 810 667 803 625 q 776 708 818 708 l 568 708 q 518 667 526 708 m -8 42 q 26 0 -15 0 l 547 0 q 596 42 589 0 q 561 83 603 83 l 40 83 q -8 42 -1 83 m 279 1083 q 314 1042 272 1042 l 835 1042 q 883 1083 876 1042 q 849 1125 890 1125 l 328 1125 q 279 1083 286 1125 m 101 667 q 136 625 94 625 l 344 625 q 393 667 386 625 q 360 708 401 708 l 151 708 q 101 667 110 708 m 500 563 q 535 521 493 521 l 743 521 q 792 563 785 521 q 757 604 799 604 l 549 604 q 500 563 507 604 m 83 563 q 118 521 76 521 l 326 521 q 375 563 368 521 q 340 604 382 604 l 132 604 q 83 563 90 604 m 151 354 q 158 325 147 338 q 185 313 168 313 l 706 313 q 756 354 747 313 q 721 396 763 396 l 200 396 q 151 354 158 396 m 482 458 q 515 417 474 417 l 724 417 q 774 458 765 417 q 739 500 781 500 l 531 500 q 482 458 489 500 m 65 458 q 99 417 57 417 l 307 417 q 357 458 349 417 q 322 500 364 500 l 114 500 q 65 458 72 500 z "},"¨":{"ha":667,"x_min":67,"x_max":600,"o":"m 93 1083 q 126 1042 85 1042 l 231 1042 q 281 1083 272 1042 q 246 1125 288 1125 l 142 1125 q 93 1083 100 1125 m 74 979 q 108 938 67 938 l 213 938 q 261 979 254 938 q 228 1021 269 1021 l 124 1021 q 74 979 82 1021 m 406 1083 q 439 1042 397 1042 l 543 1042 q 593 1083 585 1042 q 558 1125 600 1125 l 454 1125 q 406 1083 413 1125 m 386 979 q 421 938 379 938 l 525 938 q 574 979 567 938 q 540 1021 582 1021 l 436 1021 q 386 979 394 1021 z "},"©":{"ha":1272,"x_min":3,"x_max":1250,"o":"m 44 104 l 1065 104 q 1114 146 1107 104 q 1079 188 1121 188 l 58 188 q 10 146 17 188 q 44 104 3 104 m 192 938 l 1192 938 q 1240 979 1233 938 q 1206 1021 1247 1021 l 206 1021 q 157 979 164 1021 q 192 938 150 938 m 96 42 q 131 0 89 0 l 943 0 q 992 42 985 0 q 957 83 999 83 l 144 83 q 96 42 103 83 m 279 1083 q 314 1042 272 1042 l 1106 1042 q 1154 1083 1147 1042 q 1119 1125 1161 1125 l 328 1125 q 279 1083 286 1125 m 964 354 q 997 313 956 313 l 1101 313 q 1151 354 1143 313 q 1117 396 1158 396 l 1013 396 q 964 354 971 396 m 536 771 q 571 729 529 729 l 779 729 q 828 771 821 729 q 794 813 836 813 l 586 813 q 536 771 544 813 m 449 625 l 553 625 q 601 667 594 625 q 568 708 610 708 l 464 708 q 414 667 422 708 q 449 625 407 625 m 1036 771 q 1071 729 1029 729 l 1175 729 q 1224 771 1217 729 q 1190 813 1232 813 l 1086 813 q 1036 771 1044 813 m 47 354 q 81 313 39 313 l 185 313 q 235 354 226 313 q 200 396 242 396 l 96 396 q 47 354 54 396 m 136 625 l 240 625 q 289 667 282 625 q 256 708 297 708 l 151 708 q 101 667 110 708 q 136 625 94 625 m 378 458 q 411 417 369 417 l 515 417 q 565 458 557 417 q 531 500 572 500 l 426 500 q 378 458 385 500 m 139 875 q 172 833 131 833 l 276 833 q 326 875 318 833 q 292 917 333 917 l 188 917 q 139 875 146 917 m 28 250 q 63 208 21 208 l 167 208 q 215 250 208 208 q 182 292 224 292 l 78 292 q 28 250 36 292 m 690 458 q 724 417 682 417 l 828 417 q 878 458 869 417 q 843 500 885 500 l 739 500 q 690 458 697 500 m 1053 625 l 1157 625 q 1206 667 1199 625 q 1172 708 1214 708 l 1068 708 q 1018 667 1026 708 q 1053 625 1011 625 m 761 625 l 865 625 q 914 667 907 625 q 881 708 922 708 l 776 708 q 726 667 735 708 q 761 625 719 625 m 119 771 q 154 729 113 729 l 258 729 q 307 771 300 729 q 274 813 315 813 l 169 813 q 119 771 128 813 m 83 563 q 118 521 76 521 l 222 521 q 271 563 264 521 q 236 604 278 604 l 132 604 q 83 563 90 604 m 1000 563 q 1035 521 993 521 l 1139 521 q 1188 563 1181 521 q 1153 604 1194 604 l 1049 604 q 1000 563 1007 604 m 982 458 q 1015 417 974 417 l 1119 417 q 1169 458 1161 417 q 1135 500 1176 500 l 1031 500 q 982 458 989 500 m 1056 875 q 1089 833 1047 833 l 1193 833 q 1243 875 1235 833 q 1208 917 1250 917 l 1104 917 q 1056 875 1063 917 m 396 563 q 431 521 389 521 l 535 521 q 583 563 576 521 q 549 604 590 604 l 444 604 q 396 563 403 604 m 65 458 q 99 417 57 417 l 203 417 q 253 458 244 417 q 218 500 260 500 l 114 500 q 65 458 72 500 m 944 250 q 979 208 938 208 l 1083 208 q 1132 250 1125 208 q 1099 292 1140 292 l 994 292 q 944 250 953 292 m 464 354 q 497 313 456 313 l 706 313 q 756 354 747 313 q 721 396 763 396 l 513 396 q 464 354 471 396 z "},"«":{"ha":1082,"x_min":74,"x_max":1043,"o":"m 585 458 q 633 500 592 500 l 842 500 q 875 458 882 500 q 826 417 867 417 l 618 417 q 585 458 576 417 m 671 708 l 879 708 q 911 667 919 708 q 864 625 904 625 l 656 625 q 621 667 614 625 q 671 708 629 708 m 718 396 l 926 396 q 961 354 968 396 q 911 313 953 313 l 703 313 q 669 354 661 313 q 718 396 676 396 m 742 771 q 792 813 750 813 l 1001 813 q 1035 771 1043 813 q 986 729 1028 729 l 776 729 q 742 771 735 729 m 497 563 q 546 604 504 604 l 754 604 q 789 563 796 604 q 740 521 782 521 l 532 521 q 497 563 490 521 m 168 458 q 217 500 175 500 l 425 500 q 458 458 465 500 q 410 417 450 417 l 201 417 q 168 458 160 417 m 254 708 l 463 708 q 494 667 503 708 q 447 625 488 625 l 239 625 q 204 667 197 625 q 254 708 213 708 m 301 396 l 510 396 q 544 354 551 396 q 494 313 536 313 l 286 313 q 253 354 244 313 q 301 396 260 396 m 325 771 q 375 813 333 813 l 585 813 q 618 771 626 813 q 569 729 611 729 l 360 729 q 325 771 318 729 m 81 563 q 129 604 88 604 l 338 604 q 372 563 379 604 q 324 521 365 521 l 115 521 q 81 563 74 521 z "},"®":{"ha":1272,"x_min":3,"x_max":1250,"o":"m 44 104 l 1065 104 q 1114 146 1107 104 q 1079 188 1121 188 l 58 188 q 10 146 17 188 q 44 104 3 104 m 192 938 l 1192 938 q 1240 979 1233 938 q 1206 1021 1247 1021 l 206 1021 q 157 979 164 1021 q 192 938 150 938 m 96 42 q 131 0 89 0 l 943 0 q 992 42 985 0 q 957 83 999 83 l 144 83 q 96 42 103 83 m 279 1083 q 314 1042 272 1042 l 1106 1042 q 1154 1083 1147 1042 q 1119 1125 1161 1125 l 328 1125 q 279 1083 286 1125 m 396 563 q 431 521 389 521 l 743 521 q 792 563 785 521 q 757 604 799 604 l 444 604 q 396 563 403 604 m 432 771 q 467 729 425 729 l 779 729 q 828 771 821 729 q 794 813 836 813 l 482 813 q 432 771 440 813 m 360 354 q 393 313 351 313 l 497 313 q 547 354 539 313 q 513 396 554 396 l 408 396 q 360 354 367 396 m 982 458 q 1015 417 974 417 l 1119 417 q 1169 458 1161 417 q 1135 500 1176 500 l 1031 500 q 982 458 989 500 m 1000 563 q 1035 521 993 521 l 1139 521 q 1188 563 1181 521 q 1153 604 1194 604 l 1049 604 q 1000 563 1007 604 m 83 563 q 118 521 76 521 l 222 521 q 271 563 264 521 q 236 604 278 604 l 132 604 q 83 563 90 604 m 119 771 q 154 729 113 729 l 258 729 q 307 771 300 729 q 274 813 315 813 l 169 813 q 119 771 128 813 m 28 250 q 63 208 21 208 l 167 208 q 215 250 208 208 q 182 292 224 292 l 78 292 q 28 250 36 292 m 1053 625 l 1157 625 q 1206 667 1199 625 q 1172 708 1214 708 l 1068 708 q 1018 667 1026 708 q 1053 625 1011 625 m 690 458 q 724 417 682 417 l 828 417 q 878 458 869 417 q 843 500 885 500 l 739 500 q 690 458 697 500 m 944 250 q 979 208 938 208 l 1083 208 q 1132 250 1125 208 q 1099 292 1140 292 l 994 292 q 944 250 953 292 m 139 875 q 172 833 131 833 l 276 833 q 326 875 318 833 q 292 917 333 917 l 188 917 q 139 875 146 917 m 964 354 q 997 313 956 313 l 1101 313 q 1151 354 1143 313 q 1117 396 1158 396 l 1013 396 q 964 354 971 396 m 136 625 l 240 625 q 289 667 282 625 q 256 708 297 708 l 151 708 q 101 667 110 708 q 136 625 94 625 m 47 354 q 81 313 39 313 l 185 313 q 235 354 226 313 q 200 396 242 396 l 96 396 q 47 354 54 396 m 761 625 l 865 625 q 914 667 907 625 q 881 708 922 708 l 776 708 q 726 667 735 708 q 761 625 719 625 m 1036 771 q 1071 729 1029 729 l 1175 729 q 1224 771 1217 729 q 1190 813 1232 813 l 1086 813 q 1036 771 1044 813 m 1056 875 q 1089 833 1047 833 l 1193 833 q 1243 875 1235 833 q 1208 917 1250 917 l 1104 917 q 1056 875 1063 917 m 378 458 q 411 417 369 417 l 515 417 q 565 458 557 417 q 531 500 572 500 l 426 500 q 378 458 385 500 m 449 625 l 553 625 q 601 667 594 625 q 568 708 610 708 l 464 708 q 414 667 422 708 q 449 625 407 625 m 65 458 q 99 417 57 417 l 203 417 q 253 458 244 417 q 218 500 260 500 l 114 500 q 65 458 72 500 m 672 354 q 706 313 664 313 l 810 313 q 860 354 851 313 q 825 396 867 396 l 721 396 q 672 354 679 396 z "},"´":{"ha":458,"x_min":67,"x_max":392,"o":"m 385 1083 q 335 1042 376 1042 l 231 1042 q 197 1083 189 1042 q 246 1125 204 1125 l 350 1125 q 385 1083 392 1125 m 261 979 q 213 938 254 938 l 108 938 q 74 979 67 938 q 124 1021 82 1021 l 228 1021 q 261 979 269 1021 z "},"µ":{"ha":875,"x_min":-15,"x_max":763,"o":"m 81 104 l 497 104 q 547 146 539 104 q 513 188 554 188 l 96 188 q 47 146 54 188 q 81 104 39 104 m 99 208 l 515 208 q 565 250 557 208 q 531 292 572 292 l 114 292 q 65 250 72 292 q 99 208 57 208 m 28 42 q 63 0 21 0 l 271 0 q 319 42 313 0 q 286 83 328 83 l 78 83 q 28 42 36 83 m 444 42 q 479 0 438 0 l 688 0 q 736 42 729 0 q 703 83 744 83 l 494 83 q 444 42 453 83 m 44 -104 l 149 -104 q 197 -62 190 -104 q 163 -21 204 -21 l 58 -21 q 10 -62 17 -21 q 44 -104 3 -104 m 172 625 l 276 625 q 326 667 318 625 q 292 708 333 708 l 188 708 q 139 667 146 708 q 172 625 131 625 m 83 354 q 118 313 76 313 l 222 313 q 271 354 264 313 q 236 396 278 396 l 132 396 q 83 354 90 396 m 414 458 q 449 417 407 417 l 553 417 q 601 458 594 417 q 568 500 610 500 l 464 500 q 414 458 422 500 m 101 458 q 136 417 94 417 l 240 417 q 289 458 282 417 q 256 500 297 500 l 151 500 q 101 458 110 500 m 485 625 l 589 625 q 639 667 631 625 q 604 708 646 708 l 500 708 q 451 667 458 708 q 485 625 443 625 m 469 771 q 504 729 463 729 l 608 729 q 657 771 650 729 q 622 813 664 813 l 518 813 q 469 771 476 813 m 488 875 q 522 833 481 833 l 626 833 q 675 875 668 833 q 640 917 682 917 l 536 917 q 488 875 494 917 m 157 771 q 192 729 150 729 l 296 729 q 344 771 338 729 q 310 813 351 813 l 206 813 q 157 771 164 813 m 175 875 q 210 833 168 833 l 314 833 q 363 875 356 833 q 328 917 369 917 l 224 917 q 175 875 182 917 m 396 354 q 431 313 389 313 l 535 313 q 583 354 576 313 q 549 396 590 396 l 444 396 q 396 354 403 396 m 467 521 l 571 521 q 619 563 613 521 q 586 604 628 604 l 482 604 q 432 563 440 604 q 467 521 425 521 m 154 521 l 258 521 q 307 563 300 521 q 274 604 315 604 l 169 604 q 119 563 128 604 q 154 521 113 521 m 26 -208 l 131 -208 q 179 -167 172 -208 q 144 -125 186 -125 l 40 -125 q -8 -167 -1 -125 q 26 -208 -15 -208 m 672 146 q 706 104 664 104 q 756 146 747 104 q 721 188 763 188 q 672 146 679 188 z "},"¶":{"ha":875,"x_min":94,"x_max":890,"o":"m 504 938 l 192 938 q 157 979 150 938 q 206 1021 164 1021 l 518 1021 q 553 979 560 1021 q 504 938 546 938 m 835 1042 l 314 1042 q 279 1083 272 1042 q 328 1125 286 1125 l 849 1125 q 883 1083 890 1125 q 835 1042 876 1042 m 485 833 l 172 833 q 139 875 131 833 q 188 917 146 917 l 500 917 q 535 875 542 917 q 485 833 526 833 m 449 625 l 136 625 q 101 667 94 625 q 151 708 110 708 l 464 708 q 497 667 506 708 q 449 625 490 625 m 411 417 l 307 417 q 274 458 265 417 q 322 500 281 500 l 426 500 q 461 458 468 500 q 411 417 453 417 m 375 208 l 271 208 q 236 250 229 208 q 286 292 244 292 l 390 292 q 424 250 432 292 q 375 208 417 208 m 357 104 l 253 104 q 218 146 211 104 q 267 188 225 188 l 371 188 q 406 146 413 188 q 357 104 399 104 m 828 771 q 779 729 821 729 l 675 729 q 640 771 633 729 q 690 813 649 813 l 794 813 q 828 771 836 813 m 515 771 q 467 729 508 729 l 154 729 q 119 771 113 729 q 169 813 128 813 l 482 813 q 515 771 524 813 m 443 354 q 393 313 435 313 l 289 313 q 256 354 247 313 q 304 396 263 396 l 408 396 q 443 354 450 396 m 388 42 q 339 0 381 0 l 235 0 q 200 42 193 0 q 249 83 207 83 l 353 83 q 388 42 394 83 m 479 563 q 431 521 472 521 l 222 521 q 188 563 181 521 q 236 604 194 604 l 444 604 q 479 563 486 604 m 724 417 l 619 417 q 586 458 578 417 q 635 500 593 500 l 739 500 q 774 458 781 500 q 724 417 765 417 m 688 208 l 583 208 q 549 250 542 208 q 599 292 557 292 l 703 292 q 736 250 744 292 q 688 208 729 208 m 669 104 l 565 104 q 531 146 524 104 q 579 188 538 188 l 683 188 q 718 146 725 188 q 669 104 711 104 m 756 354 q 706 313 747 313 l 601 313 q 568 354 560 313 q 617 396 575 396 l 721 396 q 756 354 763 396 m 700 42 q 651 0 693 0 l 547 0 q 513 42 506 0 q 561 83 519 83 l 665 83 q 700 42 707 83 m 792 563 q 743 521 785 521 l 639 521 q 604 563 597 521 q 653 604 611 604 l 757 604 q 792 563 799 604 m 810 667 q 761 625 803 625 l 657 625 q 622 667 615 625 q 672 708 631 708 l 776 708 q 810 667 818 708 m 865 979 q 817 938 858 938 l 713 938 q 678 979 671 938 q 726 1021 685 1021 l 831 1021 q 865 979 872 1021 m 847 875 q 797 833 839 833 l 693 833 q 660 875 651 833 q 708 917 667 917 l 813 917 q 847 875 854 917 z "},"¸":{"ha":460,"x_min":49,"x_max":392,"o":"m 299 -415 l 90 -415 q 56 -374 49 -415 q 106 -332 64 -332 l 314 -332 q 347 -374 356 -332 q 299 -415 340 -415 m 365 -271 q 317 -312 358 -312 l 108 -312 q 74 -271 67 -312 q 124 -229 82 -229 l 332 -229 q 365 -271 374 -229 m 299 -62 q 249 -104 290 -104 l 144 -104 q 111 -62 103 -104 q 160 -21 118 -21 l 264 -21 q 299 -62 306 -21 m 385 -167 q 335 -208 376 -208 l 126 -208 q 93 -167 85 -208 q 142 -125 100 -125 l 350 -125 q 385 -167 392 -125 z "},"»":{"ha":1082,"x_min":38,"x_max":1007,"o":"m 496 667 q 447 625 489 625 l 239 625 q 206 667 199 625 q 254 708 214 708 l 463 708 q 496 667 504 708 m 410 417 l 201 417 q 169 458 161 417 q 217 500 176 500 l 425 500 q 460 458 467 500 q 410 417 451 417 m 363 729 l 154 729 q 119 771 113 729 q 169 813 128 813 l 378 813 q 411 771 419 813 q 363 729 404 729 m 339 354 q 289 313 331 313 l 79 313 q 46 354 38 313 q 94 396 53 396 l 304 396 q 339 354 346 396 m 583 563 q 535 521 576 521 l 326 521 q 292 563 285 521 q 340 604 299 604 l 549 604 q 583 563 590 604 m 913 667 q 864 625 906 625 l 656 625 q 622 667 615 625 q 671 708 631 708 l 879 708 q 913 667 921 708 m 826 417 l 618 417 q 586 458 578 417 q 633 500 593 500 l 842 500 q 876 458 883 500 q 826 417 868 417 m 779 729 l 571 729 q 536 771 529 729 q 586 813 544 813 l 794 813 q 828 771 836 813 q 779 729 821 729 m 756 354 q 706 313 747 313 l 496 313 q 463 354 454 313 q 511 396 469 396 l 721 396 q 756 354 763 396 m 1000 563 q 951 521 993 521 l 743 521 q 708 563 701 521 q 757 604 715 604 l 965 604 q 1000 563 1007 604 z "},"¿":{"ha":875,"x_min":3,"x_max":744,"o":"m 683 188 l 58 188 q 10 146 17 188 q 44 104 3 104 l 669 104 q 718 146 711 104 q 683 188 725 188 m 703 292 l 78 292 q 28 250 36 292 q 63 208 21 208 l 688 208 q 736 250 729 208 q 703 292 744 292 m 604 917 l 396 917 q 347 875 354 917 q 381 833 339 833 l 589 833 q 639 875 631 833 q 604 917 646 917 m 640 1125 l 432 1125 q 383 1083 390 1125 q 418 1042 376 1042 l 626 1042 q 675 1083 668 1042 q 640 1125 682 1125 m 622 1021 l 414 1021 q 365 979 372 1021 q 400 938 358 938 l 608 938 q 657 979 650 938 q 622 1021 664 1021 m 665 83 l 144 83 q 96 42 103 83 q 131 0 89 0 l 651 0 q 700 42 693 0 q 665 83 707 83 m 304 396 l 96 396 q 47 354 54 396 q 81 313 39 313 l 289 313 q 339 354 331 313 q 304 396 346 396 m 549 604 l 236 604 q 188 563 194 604 q 222 521 181 521 l 535 521 q 583 563 576 521 q 549 604 590 604 m 601 667 q 568 708 610 708 l 360 708 q 310 667 318 708 q 344 625 303 625 l 553 625 q 601 667 594 625 m 461 458 q 426 500 468 500 l 114 500 q 65 458 72 500 q 99 417 57 417 l 411 417 q 461 458 453 417 z "},"À":{"ha":875,"x_min":-43,"x_max":844,"o":"m 111 875 q 146 833 104 833 l 771 833 q 819 875 813 833 q 785 917 826 917 l 160 917 q 111 875 118 917 m 56 563 q 90 521 49 521 l 715 521 q 764 563 757 521 q 729 604 771 604 l 104 604 q 56 563 63 604 m 129 979 q 164 938 122 938 l 789 938 q 838 979 831 938 q 803 1021 844 1021 l 178 1021 q 129 979 136 1021 m 38 458 q 72 417 31 417 l 697 417 q 746 458 739 417 q 711 500 753 500 l 86 500 q 38 458 44 500 m 19 354 q 53 313 11 313 l 678 313 q 728 354 719 313 q 693 396 735 396 l 68 396 q 19 354 26 396 m 251 1083 q 286 1042 244 1042 l 703 1042 q 751 1083 744 1042 q 718 1125 760 1125 l 301 1125 q 251 1083 260 1125 m 381 42 q 415 0 374 0 l 624 0 q 672 42 665 0 q 638 83 679 83 l 429 83 q 381 42 388 83 m 490 667 q 525 625 483 625 l 733 625 q 782 667 775 625 q 749 708 790 708 l 540 708 q 490 667 499 708 m 399 146 q 433 104 392 104 l 642 104 q 690 146 683 104 q 657 188 699 188 l 449 188 q 399 146 407 188 m 93 771 q 126 729 85 729 l 335 729 q 385 771 376 729 q 350 813 392 813 l 142 813 q 93 771 100 813 m 510 771 q 543 729 501 729 l 751 729 q 801 771 793 729 q 767 813 808 813 l 558 813 q 510 771 517 813 m -36 42 q -1 0 -43 0 l 207 0 q 256 42 249 0 q 221 83 263 83 l 13 83 q -36 42 -29 83 m 74 667 q 108 625 67 625 l 317 625 q 365 667 358 625 q 332 708 374 708 l 124 708 q 74 667 82 708 m 17 104 l 225 104 q 274 146 267 104 q 240 188 282 188 l 32 188 q -18 146 -10 188 q 17 104 -25 104 m 451 208 l 660 208 q 708 250 701 208 q 675 292 717 292 l 467 292 q 417 250 425 292 q 451 208 410 208 m 0 250 q 35 208 -7 208 l 243 208 q 292 250 285 208 q 258 292 300 292 l 50 292 q 0 250 8 292 m 307 1396 q 342 1354 300 1354 l 446 1354 q 494 1396 488 1354 q 460 1438 501 1438 l 356 1438 q 307 1396 314 1438 m 393 1292 q 426 1250 385 1250 l 531 1250 q 581 1292 572 1250 q 546 1333 588 1333 l 442 1333 q 393 1292 400 1333 z "},"Á":{"ha":875,"x_min":-43,"x_max":844,"o":"m 819 875 q 771 833 813 833 l 146 833 q 111 875 104 833 q 160 917 118 917 l 785 917 q 819 875 826 917 m 764 563 q 715 521 757 521 l 90 521 q 56 563 49 521 q 104 604 63 604 l 729 604 q 764 563 771 604 m 838 979 q 789 938 831 938 l 164 938 q 129 979 122 938 q 178 1021 136 1021 l 803 1021 q 838 979 844 1021 m 746 458 q 697 417 739 417 l 72 417 q 38 458 31 417 q 86 500 44 500 l 711 500 q 746 458 753 500 m 728 354 q 678 313 719 313 l 53 313 q 19 354 11 313 q 68 396 26 396 l 693 396 q 728 354 735 396 m 751 1083 q 703 1042 744 1042 l 286 1042 q 251 1083 244 1042 q 301 1125 260 1125 l 718 1125 q 751 1083 760 1125 m 256 42 q 207 0 249 0 l -1 0 q -36 42 -43 0 q 13 83 -29 83 l 221 83 q 256 42 263 83 m 365 667 q 317 625 358 625 l 108 625 q 74 667 67 625 q 124 708 82 708 l 332 708 q 365 667 374 708 m 274 146 q 225 104 267 104 l 17 104 q -18 146 -25 104 q 32 188 -10 188 l 240 188 q 274 146 282 188 m 801 771 q 751 729 793 729 l 543 729 q 510 771 501 729 q 558 813 517 813 l 767 813 q 801 771 808 813 m 385 771 q 335 729 376 729 l 126 729 q 93 771 85 729 q 142 813 100 813 l 350 813 q 385 771 392 813 m 672 42 q 624 0 665 0 l 415 0 q 381 42 374 0 q 429 83 388 83 l 638 83 q 672 42 679 83 m 782 667 q 733 625 775 625 l 525 625 q 490 667 483 625 q 540 708 499 708 l 749 708 q 782 667 790 708 m 642 104 l 433 104 q 399 146 392 104 q 449 188 407 188 l 657 188 q 690 146 699 188 q 642 104 683 104 m 243 208 l 35 208 q 0 250 -7 208 q 50 292 8 292 l 258 292 q 292 250 300 292 q 243 208 285 208 m 708 250 q 660 208 701 208 l 451 208 q 417 250 410 208 q 467 292 425 292 l 675 292 q 708 250 717 292 m 807 1396 q 758 1354 800 1354 l 654 1354 q 619 1396 613 1354 q 668 1438 626 1438 l 772 1438 q 807 1396 814 1438 m 685 1292 q 635 1250 676 1250 l 531 1250 q 497 1292 489 1250 q 546 1333 504 1333 l 650 1333 q 685 1292 692 1333 z "},"Â":{"ha":875,"x_min":-43,"x_max":844,"o":"m 111 875 q 146 833 104 833 l 771 833 q 819 875 813 833 q 785 917 826 917 l 160 917 q 111 875 118 917 m 56 563 q 90 521 49 521 l 715 521 q 764 563 757 521 q 729 604 771 604 l 104 604 q 56 563 63 604 m 129 979 q 164 938 122 938 l 789 938 q 838 979 831 938 q 803 1021 844 1021 l 178 1021 q 129 979 136 1021 m 38 458 q 72 417 31 417 l 697 417 q 746 458 739 417 q 711 500 753 500 l 86 500 q 38 458 44 500 m 19 354 q 53 313 11 313 l 678 313 q 728 354 719 313 q 693 396 735 396 l 68 396 q 19 354 26 396 m 251 1083 q 286 1042 244 1042 l 703 1042 q 751 1083 744 1042 q 718 1125 760 1125 l 301 1125 q 251 1083 260 1125 m 381 42 q 415 0 374 0 l 624 0 q 672 42 665 0 q 638 83 679 83 l 429 83 q 381 42 388 83 m 490 667 q 525 625 483 625 l 733 625 q 782 667 775 625 q 749 708 790 708 l 540 708 q 490 667 499 708 m 399 146 q 433 104 392 104 l 642 104 q 690 146 683 104 q 657 188 699 188 l 449 188 q 399 146 407 188 m 93 771 q 126 729 85 729 l 335 729 q 385 771 376 729 q 350 813 392 813 l 142 813 q 93 771 100 813 m 510 771 q 543 729 501 729 l 751 729 q 801 771 793 729 q 767 813 808 813 l 558 813 q 510 771 517 813 m -36 42 q -1 0 -43 0 l 207 0 q 256 42 249 0 q 221 83 263 83 l 13 83 q -36 42 -29 83 m 74 667 q 108 625 67 625 l 317 625 q 365 667 358 625 q 332 708 374 708 l 124 708 q 74 667 82 708 m 17 104 l 225 104 q 274 146 267 104 q 240 188 282 188 l 32 188 q -18 146 -10 188 q 17 104 -25 104 m 451 208 l 660 208 q 708 250 701 208 q 675 292 717 292 l 467 292 q 417 250 425 292 q 451 208 410 208 m 0 250 q 35 208 -7 208 l 243 208 q 292 250 285 208 q 258 292 300 292 l 50 292 q 0 250 8 292 m 474 1396 q 508 1354 467 1354 l 613 1354 q 661 1396 654 1354 q 626 1438 668 1438 l 522 1438 q 474 1396 481 1438 m 351 1292 q 385 1250 343 1250 l 697 1250 q 747 1292 739 1250 q 713 1333 754 1333 l 400 1333 q 351 1292 358 1333 z "},"Ã":{"ha":875,"x_min":-35,"x_max":854,"o":"m 119 875 q 154 833 113 833 l 779 833 q 828 875 821 833 q 794 917 836 917 l 169 917 q 119 875 128 917 m 65 563 q 99 521 57 521 l 724 521 q 774 563 765 521 q 739 604 781 604 l 114 604 q 65 563 72 604 m 139 979 q 172 938 131 938 l 797 938 q 847 979 839 938 q 813 1021 854 1021 l 188 1021 q 139 979 146 1021 m 47 458 q 81 417 39 417 l 706 417 q 756 458 747 417 q 721 500 763 500 l 96 500 q 47 458 54 500 m 28 354 q 63 313 21 313 l 688 313 q 736 354 729 313 q 703 396 744 396 l 78 396 q 28 354 36 396 m 261 1083 q 296 1042 254 1042 l 713 1042 q 761 1083 754 1042 q 726 1125 768 1125 l 310 1125 q 261 1083 268 1125 m 390 42 q 424 0 382 0 l 632 0 q 682 42 674 0 q 647 83 689 83 l 439 83 q 390 42 397 83 m 500 667 q 535 625 493 625 l 743 625 q 792 667 785 625 q 757 708 799 708 l 549 708 q 500 667 507 708 m 408 146 q 443 104 401 104 l 651 104 q 700 146 693 104 q 665 188 707 188 l 457 188 q 408 146 415 188 m 101 771 q 136 729 94 729 l 344 729 q 393 771 386 729 q 360 813 401 813 l 151 813 q 101 771 110 813 m 518 771 q 553 729 511 729 l 761 729 q 810 771 803 729 q 776 813 818 813 l 568 813 q 518 771 526 813 m -26 42 q 7 0 -35 0 l 215 0 q 265 42 257 0 q 231 83 272 83 l 22 83 q -26 42 -19 83 m 83 667 q 118 625 76 625 l 326 625 q 375 667 368 625 q 340 708 382 708 l 132 708 q 83 667 90 708 m 26 104 l 235 104 q 283 146 276 104 q 249 188 290 188 l 40 188 q -8 146 -1 188 q 26 104 -15 104 m 461 208 l 669 208 q 718 250 711 208 q 683 292 725 292 l 475 292 q 426 250 433 292 q 461 208 419 208 m 10 250 q 44 208 3 208 l 253 208 q 301 250 294 208 q 267 292 308 292 l 58 292 q 10 250 17 292 m 297 1292 q 332 1250 290 1250 l 749 1250 q 797 1292 790 1250 q 764 1333 806 1333 l 347 1333 q 297 1292 306 1333 z "},"Ä":{"ha":875,"x_min":-43,"x_max":844,"o":"m 111 875 q 146 833 104 833 l 771 833 q 819 875 813 833 q 785 917 826 917 l 160 917 q 111 875 118 917 m 56 563 q 90 521 49 521 l 715 521 q 764 563 757 521 q 729 604 771 604 l 104 604 q 56 563 63 604 m 129 979 q 164 938 122 938 l 789 938 q 838 979 831 938 q 803 1021 844 1021 l 178 1021 q 129 979 136 1021 m 38 458 q 72 417 31 417 l 697 417 q 746 458 739 417 q 711 500 753 500 l 86 500 q 38 458 44 500 m 19 354 q 53 313 11 313 l 678 313 q 728 354 719 313 q 693 396 735 396 l 68 396 q 19 354 26 396 m 251 1083 q 286 1042 244 1042 l 703 1042 q 751 1083 744 1042 q 718 1125 760 1125 l 301 1125 q 251 1083 260 1125 m 381 42 q 415 0 374 0 l 624 0 q 672 42 665 0 q 638 83 679 83 l 429 83 q 381 42 388 83 m 490 667 q 525 625 483 625 l 733 625 q 782 667 775 625 q 749 708 790 708 l 540 708 q 490 667 499 708 m 399 146 q 433 104 392 104 l 642 104 q 690 146 683 104 q 657 188 699 188 l 449 188 q 399 146 407 188 m 93 771 q 126 729 85 729 l 335 729 q 385 771 376 729 q 350 813 392 813 l 142 813 q 93 771 100 813 m 510 771 q 543 729 501 729 l 751 729 q 801 771 793 729 q 767 813 808 813 l 558 813 q 510 771 517 813 m -36 42 q -1 0 -43 0 l 207 0 q 256 42 249 0 q 221 83 263 83 l 13 83 q -36 42 -29 83 m 74 667 q 108 625 67 625 l 317 625 q 365 667 358 625 q 332 708 374 708 l 124 708 q 74 667 82 708 m 17 104 l 225 104 q 274 146 267 104 q 240 188 282 188 l 32 188 q -18 146 -10 188 q 17 104 -25 104 m 451 208 l 660 208 q 708 250 701 208 q 675 292 717 292 l 467 292 q 417 250 425 292 q 451 208 410 208 m 0 250 q 35 208 -7 208 l 243 208 q 292 250 285 208 q 258 292 300 292 l 50 292 q 0 250 8 292 m 307 1396 q 342 1354 300 1354 l 446 1354 q 494 1396 488 1354 q 460 1438 501 1438 l 356 1438 q 307 1396 314 1438 m 289 1292 q 322 1250 281 1250 l 426 1250 q 476 1292 468 1250 q 442 1333 483 1333 l 338 1333 q 289 1292 296 1333 m 619 1396 q 654 1354 613 1354 l 758 1354 q 807 1396 800 1354 q 772 1438 814 1438 l 668 1438 q 619 1396 626 1438 m 601 1292 q 635 1250 593 1250 l 739 1250 q 789 1292 781 1250 q 754 1333 796 1333 l 650 1333 q 601 1292 608 1333 z "},"Å":{"ha":875,"x_min":-43,"x_max":844,"o":"m 111 875 q 146 833 104 833 l 771 833 q 819 875 813 833 q 785 917 826 917 l 160 917 q 111 875 118 917 m 56 563 q 90 521 49 521 l 715 521 q 764 563 757 521 q 729 604 771 604 l 104 604 q 56 563 63 604 m 129 979 q 164 938 122 938 l 789 938 q 838 979 831 938 q 803 1021 844 1021 l 178 1021 q 129 979 136 1021 m 38 458 q 72 417 31 417 l 697 417 q 746 458 739 417 q 711 500 753 500 l 86 500 q 38 458 44 500 m 19 354 q 53 313 11 313 l 678 313 q 728 354 719 313 q 693 396 735 396 l 68 396 q 19 354 26 396 m 251 1083 q 286 1042 244 1042 l 703 1042 q 751 1083 744 1042 q 718 1125 760 1125 l 301 1125 q 251 1083 260 1125 m 381 42 q 415 0 374 0 l 624 0 q 672 42 665 0 q 638 83 679 83 l 429 83 q 381 42 388 83 m 490 667 q 525 625 483 625 l 733 625 q 782 667 775 625 q 749 708 790 708 l 540 708 q 490 667 499 708 m 399 146 q 433 104 392 104 l 642 104 q 690 146 683 104 q 657 188 699 188 l 449 188 q 399 146 407 188 m 93 771 q 126 729 85 729 l 335 729 q 385 771 376 729 q 350 813 392 813 l 142 813 q 93 771 100 813 m 510 771 q 543 729 501 729 l 751 729 q 801 771 793 729 q 767 813 808 813 l 558 813 q 510 771 517 813 m -36 42 q -1 0 -43 0 l 207 0 q 256 42 249 0 q 221 83 263 83 l 13 83 q -36 42 -29 83 m 74 667 q 108 625 67 625 l 317 625 q 365 667 358 625 q 332 708 374 708 l 124 708 q 74 667 82 708 m 17 104 l 225 104 q 274 146 267 104 q 240 188 282 188 l 32 188 q -18 146 -10 188 q 17 104 -25 104 m 451 208 l 660 208 q 708 250 701 208 q 675 292 717 292 l 467 292 q 417 250 425 292 q 451 208 410 208 m 0 250 q 35 208 -7 208 l 243 208 q 292 250 285 208 q 258 292 300 292 l 50 292 q 0 250 8 292 m 271 1188 q 304 1146 263 1146 l 408 1146 q 458 1188 450 1146 q 424 1229 465 1229 l 319 1229 q 271 1188 278 1229 m 289 1292 q 322 1250 281 1250 l 426 1250 q 476 1292 468 1250 q 442 1333 483 1333 l 338 1333 q 289 1292 296 1333 m 601 1292 q 635 1250 593 1250 l 739 1250 q 789 1292 781 1250 q 754 1333 796 1333 l 650 1333 q 601 1292 608 1333 m 411 1396 q 446 1354 404 1354 l 654 1354 q 703 1396 696 1354 q 668 1438 710 1438 l 460 1438 q 411 1396 418 1438 m 583 1188 q 617 1146 575 1146 l 721 1146 q 771 1188 763 1146 q 736 1229 778 1229 l 632 1229 q 583 1188 590 1229 z "},"Æ":{"ha":1292,"x_min":-15,"x_max":1307,"o":"m 139 875 q 172 833 131 833 l 1214 833 q 1264 875 1256 833 q 1229 917 1271 917 l 188 917 q 139 875 146 917 m 192 938 l 1233 938 q 1282 979 1275 938 q 1247 1021 1289 1021 l 206 1021 q 157 979 164 1021 q 192 938 150 938 m 99 417 l 1140 417 q 1190 458 1182 417 q 1156 500 1197 500 l 114 500 q 65 458 72 500 q 99 417 57 417 m 83 563 q 118 521 76 521 l 1160 521 q 1208 563 1201 521 q 1174 604 1215 604 l 132 604 q 83 563 90 604 m 279 1083 q 314 1042 272 1042 l 1251 1042 q 1300 1083 1293 1042 q 1265 1125 1307 1125 l 328 1125 q 279 1083 286 1125 m 408 42 q 443 0 401 0 l 1068 0 q 1117 42 1110 0 q 1082 83 1124 83 l 457 83 q 408 42 415 83 m 101 667 q 136 625 94 625 l 344 625 q 393 667 386 625 q 360 708 401 708 l 151 708 q 101 667 110 708 m -8 42 q 26 0 -15 0 l 235 0 q 283 42 276 0 q 249 83 290 83 l 40 83 q -8 42 -1 83 m 28 250 q 63 208 21 208 l 271 208 q 319 250 313 208 q 286 292 328 292 l 78 292 q 28 250 36 292 m 119 771 q 154 729 113 729 l 363 729 q 411 771 404 729 q 378 813 419 813 l 169 813 q 119 771 128 813 m 44 104 l 253 104 q 301 146 294 104 q 267 188 308 188 l 58 188 q 10 146 17 188 q 44 104 3 104 m 426 146 q 461 104 419 104 l 1086 104 q 1135 146 1128 104 q 1100 188 1142 188 l 475 188 q 426 146 433 188 m 444 250 q 479 208 438 208 l 1104 208 q 1153 250 1146 208 q 1119 292 1161 292 l 494 292 q 444 250 453 292 m 47 354 q 81 313 39 313 l 706 313 q 756 354 747 313 q 721 396 763 396 l 96 396 q 47 354 54 396 m 518 667 q 553 625 511 625 l 1178 625 q 1226 667 1219 625 q 1193 708 1235 708 l 568 708 q 518 667 526 708 m 536 771 q 571 729 529 729 l 779 729 q 828 771 821 729 q 794 813 836 813 l 586 813 q 536 771 544 813 z "},"Ç":{"ha":875,"x_min":39,"x_max":910,"o":"m 210 833 l 835 833 q 883 875 876 833 q 849 917 890 917 l 224 917 q 175 875 182 917 q 210 833 168 833 m 228 938 l 853 938 q 901 979 894 938 q 868 1021 910 1021 l 243 1021 q 193 979 201 1021 q 228 938 186 938 m 99 208 l 724 208 q 774 250 765 208 q 739 292 781 292 l 114 292 q 65 250 72 292 q 99 208 57 208 m 81 104 l 706 104 q 754 146 747 104 q 721 188 763 188 l 96 188 q 46 146 54 188 q 81 104 39 104 m 119 563 q 154 521 113 521 l 363 521 q 411 563 404 521 q 378 604 419 604 l 169 604 q 119 563 128 604 m 139 667 q 172 625 131 625 l 381 625 q 431 667 422 625 q 396 708 438 708 l 188 708 q 139 667 146 708 m 192 729 l 400 729 q 449 771 442 729 q 414 813 456 813 l 206 813 q 157 771 164 813 q 192 729 150 729 m 83 354 q 118 313 76 313 l 326 313 q 375 354 368 313 q 340 396 382 396 l 132 396 q 83 354 90 396 m 101 458 q 136 417 94 417 l 344 417 q 393 458 386 417 q 358 500 400 500 l 150 500 q 101 458 108 500 m 500 354 q 535 313 493 313 l 743 313 q 792 354 785 313 q 757 396 799 396 l 549 396 q 500 354 507 396 m 574 771 q 608 729 567 729 l 817 729 q 865 771 858 729 q 831 813 872 813 l 622 813 q 574 771 581 813 m 132 42 q 167 0 125 0 l 583 0 q 632 42 625 0 q 599 83 640 83 l 182 83 q 132 42 140 83 m 315 1083 q 350 1042 308 1042 l 767 1042 q 815 1083 808 1042 q 782 1125 824 1125 l 365 1125 q 315 1083 324 1125 m 406 -415 l 197 -415 q 164 -374 156 -415 q 213 -332 171 -332 l 421 -332 q 456 -374 463 -332 q 406 -415 447 -415 m 474 -271 q 424 -312 465 -312 l 215 -312 q 182 -271 174 -312 q 231 -229 189 -229 l 439 -229 q 474 -271 481 -229 m 406 -62 q 357 -104 399 -104 l 253 -104 q 218 -62 211 -104 q 267 -21 225 -21 l 371 -21 q 406 -62 413 -21 m 492 -167 q 442 -208 483 -208 l 233 -208 q 200 -167 192 -208 q 249 -125 207 -125 l 457 -125 q 492 -167 499 -125 z "},"È":{"ha":875,"x_min":-25,"x_max":864,"o":"m 307 1396 q 342 1354 300 1354 l 446 1354 q 494 1396 488 1354 q 460 1438 501 1438 l 356 1438 q 307 1396 314 1438 m 393 1292 q 426 1250 385 1250 l 531 1250 q 581 1292 572 1250 q 546 1333 588 1333 l 442 1333 q 393 1292 400 1333 m 146 833 l 771 833 q 819 875 813 833 q 785 917 826 917 l 160 917 q 111 875 118 917 q 146 833 104 833 m 164 938 l 789 938 q 838 979 831 938 q 803 1021 844 1021 l 178 1021 q 129 979 136 1021 q 164 938 122 938 m 108 625 l 733 625 q 782 667 775 625 q 749 708 790 708 l 124 708 q 74 667 82 708 q 108 625 67 625 m 90 521 l 715 521 q 764 563 757 521 q 729 604 771 604 l 104 604 q 56 563 63 604 q 90 521 49 521 m 72 417 l 697 417 q 746 458 739 417 q 711 500 753 500 l 86 500 q 38 458 44 500 q 72 417 31 417 m 35 208 l 660 208 q 708 250 701 208 q 675 292 717 292 l 50 292 q 0 250 8 292 q 35 208 -7 208 m 17 104 l 642 104 q 690 146 683 104 q 657 188 699 188 l 32 188 q -18 146 -10 188 q 17 104 -25 104 m 19 354 q 53 313 11 313 l 261 313 q 311 354 303 313 q 276 396 318 396 l 68 396 q 19 354 26 396 m 126 729 l 335 729 q 385 771 376 729 q 350 813 392 813 l 142 813 q 93 771 100 813 q 126 729 85 729 m 68 42 q 103 0 61 0 l 624 0 q 672 42 665 0 q 638 83 679 83 l 117 83 q 68 42 75 83 m 251 1083 q 286 1042 244 1042 l 807 1042 q 856 1083 849 1042 q 822 1125 864 1125 l 301 1125 q 251 1083 260 1125 z "},"É":{"ha":875,"x_min":-25,"x_max":864,"o":"m 807 1396 q 758 1354 800 1354 l 654 1354 q 619 1396 613 1354 q 668 1438 626 1438 l 772 1438 q 807 1396 814 1438 m 685 1292 q 635 1250 676 1250 l 531 1250 q 497 1292 489 1250 q 546 1333 504 1333 l 650 1333 q 685 1292 692 1333 m 146 833 l 771 833 q 819 875 813 833 q 785 917 826 917 l 160 917 q 111 875 118 917 q 146 833 104 833 m 164 938 l 789 938 q 838 979 831 938 q 803 1021 844 1021 l 178 1021 q 129 979 136 1021 q 164 938 122 938 m 108 625 l 733 625 q 782 667 775 625 q 749 708 790 708 l 124 708 q 74 667 82 708 q 108 625 67 625 m 90 521 l 715 521 q 764 563 757 521 q 729 604 771 604 l 104 604 q 56 563 63 604 q 90 521 49 521 m 72 417 l 697 417 q 746 458 739 417 q 711 500 753 500 l 86 500 q 38 458 44 500 q 72 417 31 417 m 35 208 l 660 208 q 708 250 701 208 q 675 292 717 292 l 50 292 q 0 250 8 292 q 35 208 -7 208 m 17 104 l 642 104 q 690 146 683 104 q 657 188 699 188 l 32 188 q -18 146 -10 188 q 17 104 -25 104 m 19 354 q 53 313 11 313 l 261 313 q 311 354 303 313 q 276 396 318 396 l 68 396 q 19 354 26 396 m 126 729 l 335 729 q 385 771 376 729 q 350 813 392 813 l 142 813 q 93 771 100 813 q 126 729 85 729 m 68 42 q 103 0 61 0 l 624 0 q 672 42 665 0 q 638 83 679 83 l 117 83 q 68 42 75 83 m 251 1083 q 286 1042 244 1042 l 807 1042 q 856 1083 849 1042 q 822 1125 864 1125 l 301 1125 q 251 1083 260 1125 z "},"Ê":{"ha":875,"x_min":-25,"x_max":864,"o":"m 474 1396 q 508 1354 467 1354 l 613 1354 q 661 1396 654 1354 q 626 1438 668 1438 l 522 1438 q 474 1396 481 1438 m 351 1292 q 385 1250 343 1250 l 697 1250 q 747 1292 739 1250 q 713 1333 754 1333 l 400 1333 q 351 1292 358 1333 m 146 833 l 771 833 q 819 875 813 833 q 785 917 826 917 l 160 917 q 111 875 118 917 q 146 833 104 833 m 164 938 l 789 938 q 838 979 831 938 q 803 1021 844 1021 l 178 1021 q 129 979 136 1021 q 164 938 122 938 m 108 625 l 733 625 q 782 667 775 625 q 749 708 790 708 l 124 708 q 74 667 82 708 q 108 625 67 625 m 90 521 l 715 521 q 764 563 757 521 q 729 604 771 604 l 104 604 q 56 563 63 604 q 90 521 49 521 m 72 417 l 697 417 q 746 458 739 417 q 711 500 753 500 l 86 500 q 38 458 44 500 q 72 417 31 417 m 35 208 l 660 208 q 708 250 701 208 q 675 292 717 292 l 50 292 q 0 250 8 292 q 35 208 -7 208 m 17 104 l 642 104 q 690 146 683 104 q 657 188 699 188 l 32 188 q -18 146 -10 188 q 17 104 -25 104 m 19 354 q 53 313 11 313 l 261 313 q 311 354 303 313 q 276 396 318 396 l 68 396 q 19 354 26 396 m 126 729 l 335 729 q 385 771 376 729 q 350 813 392 813 l 142 813 q 93 771 100 813 q 126 729 85 729 m 68 42 q 103 0 61 0 l 624 0 q 672 42 665 0 q 638 83 679 83 l 117 83 q 68 42 75 83 m 251 1083 q 286 1042 244 1042 l 807 1042 q 856 1083 849 1042 q 822 1125 864 1125 l 301 1125 q 251 1083 260 1125 z "},"Ë":{"ha":875,"x_min":-25,"x_max":864,"o":"m 307 1396 q 342 1354 300 1354 l 446 1354 q 494 1396 488 1354 q 460 1438 501 1438 l 356 1438 q 307 1396 314 1438 m 289 1292 q 322 1250 281 1250 l 426 1250 q 476 1292 468 1250 q 442 1333 483 1333 l 338 1333 q 289 1292 296 1333 m 619 1396 q 654 1354 613 1354 l 758 1354 q 807 1396 800 1354 q 772 1438 814 1438 l 668 1438 q 619 1396 626 1438 m 601 1292 q 635 1250 593 1250 l 739 1250 q 789 1292 781 1250 q 754 1333 796 1333 l 650 1333 q 601 1292 608 1333 m 146 833 l 771 833 q 819 875 813 833 q 785 917 826 917 l 160 917 q 111 875 118 917 q 146 833 104 833 m 164 938 l 789 938 q 838 979 831 938 q 803 1021 844 1021 l 178 1021 q 129 979 136 1021 q 164 938 122 938 m 108 625 l 733 625 q 782 667 775 625 q 749 708 790 708 l 124 708 q 74 667 82 708 q 108 625 67 625 m 90 521 l 715 521 q 764 563 757 521 q 729 604 771 604 l 104 604 q 56 563 63 604 q 90 521 49 521 m 72 417 l 697 417 q 746 458 739 417 q 711 500 753 500 l 86 500 q 38 458 44 500 q 72 417 31 417 m 35 208 l 660 208 q 708 250 701 208 q 675 292 717 292 l 50 292 q 0 250 8 292 q 35 208 -7 208 m 17 104 l 642 104 q 690 146 683 104 q 657 188 699 188 l 32 188 q -18 146 -10 188 q 17 104 -25 104 m 19 354 q 53 313 11 313 l 261 313 q 311 354 303 313 q 276 396 318 396 l 68 396 q 19 354 26 396 m 126 729 l 335 729 q 385 771 376 729 q 350 813 392 813 l 142 813 q 93 771 100 813 q 126 729 85 729 m 68 42 q 103 0 61 0 l 624 0 q 672 42 665 0 q 638 83 679 83 l 117 83 q 68 42 75 83 m 251 1083 q 286 1042 244 1042 l 807 1042 q 856 1083 849 1042 q 822 1125 864 1125 l 301 1125 q 251 1083 260 1125 z "},"Ì":{"ha":667,"x_min":-43,"x_max":656,"o":"m 307 1396 q 342 1354 300 1354 l 446 1354 q 494 1396 488 1354 q 460 1438 501 1438 l 356 1438 q 307 1396 314 1438 m 393 1292 q 426 1250 385 1250 l 531 1250 q 581 1292 572 1250 q 546 1333 588 1333 l 442 1333 q 393 1292 400 1333 m 142 458 q 176 417 135 417 l 385 417 q 433 458 426 417 q 399 500 440 500 l 190 500 q 142 458 149 500 m 160 563 q 194 521 153 521 l 403 521 q 451 563 444 521 q 417 604 458 604 l 208 604 q 160 563 167 604 m 213 625 l 421 625 q 469 667 463 625 q 436 708 478 708 l 228 708 q 178 667 186 708 q 213 625 171 625 m 111 875 q 146 833 104 833 l 563 833 q 611 875 604 833 q 576 917 618 917 l 160 917 q 111 875 118 917 m 129 979 q 164 938 122 938 l 581 938 q 629 979 622 938 q 594 1021 636 1021 l 178 1021 q 129 979 136 1021 m 182 1042 l 599 1042 q 647 1083 640 1042 q 614 1125 656 1125 l 197 1125 q 147 1083 156 1125 q 182 1042 140 1042 m 197 771 q 231 729 189 729 l 439 729 q 489 771 481 729 q 454 813 496 813 l 246 813 q 197 771 204 813 m 157 313 l 365 313 q 415 354 407 313 q 381 396 422 396 l 172 396 q 124 354 131 396 q 157 313 115 313 m -36 42 q -1 0 -43 0 l 415 0 q 464 42 457 0 q 429 83 471 83 l 13 83 q -36 42 -29 83 m 17 104 l 433 104 q 482 146 475 104 q 449 188 490 188 l 32 188 q -18 146 -10 188 q 17 104 -25 104 m 0 250 q 35 208 -7 208 l 451 208 q 500 250 493 208 q 467 292 508 292 l 50 292 q 0 250 8 292 z "},"Í":{"ha":667,"x_min":-43,"x_max":656,"o":"m 599 1396 q 550 1354 592 1354 l 446 1354 q 411 1396 404 1354 q 460 1438 418 1438 l 564 1438 q 599 1396 606 1438 m 476 1292 q 426 1250 468 1250 l 322 1250 q 289 1292 281 1250 q 338 1333 296 1333 l 442 1333 q 476 1292 483 1333 m 433 458 q 385 417 426 417 l 176 417 q 142 458 135 417 q 190 500 149 500 l 399 500 q 433 458 440 500 m 451 563 q 403 521 444 521 l 194 521 q 160 563 153 521 q 208 604 167 604 l 417 604 q 451 563 458 604 m 421 625 l 213 625 q 178 667 171 625 q 228 708 186 708 l 436 708 q 469 667 478 708 q 421 625 463 625 m 611 875 q 563 833 604 833 l 146 833 q 111 875 104 833 q 160 917 118 917 l 576 917 q 611 875 618 917 m 629 979 q 581 938 622 938 l 164 938 q 129 979 122 938 q 178 1021 136 1021 l 594 1021 q 629 979 636 1021 m 599 1042 l 182 1042 q 147 1083 140 1042 q 197 1125 156 1125 l 614 1125 q 647 1083 656 1125 q 599 1042 640 1042 m 489 771 q 439 729 481 729 l 231 729 q 197 771 189 729 q 246 813 204 813 l 454 813 q 489 771 496 813 m 365 313 l 157 313 q 124 354 115 313 q 172 396 131 396 l 381 396 q 415 354 422 396 q 365 313 407 313 m 464 42 q 415 0 457 0 l -1 0 q -36 42 -43 0 q 13 83 -29 83 l 429 83 q 464 42 471 83 m 433 104 l 17 104 q -18 146 -25 104 q 32 188 -10 188 l 449 188 q 482 146 490 188 q 433 104 475 104 m 500 250 q 451 208 493 208 l 35 208 q 0 250 -7 208 q 50 292 8 292 l 467 292 q 500 250 508 292 z "},"Î":{"ha":667,"x_min":-43,"x_max":656,"o":"m 433 458 q 385 417 426 417 l 176 417 q 142 458 135 417 q 190 500 149 500 l 399 500 q 433 458 440 500 m 451 563 q 403 521 444 521 l 194 521 q 160 563 153 521 q 208 604 167 604 l 417 604 q 451 563 458 604 m 421 625 l 213 625 q 178 667 171 625 q 228 708 186 708 l 436 708 q 469 667 478 708 q 421 625 463 625 m 611 875 q 563 833 604 833 l 146 833 q 111 875 104 833 q 160 917 118 917 l 576 917 q 611 875 618 917 m 629 979 q 581 938 622 938 l 164 938 q 129 979 122 938 q 178 1021 136 1021 l 594 1021 q 629 979 636 1021 m 599 1042 l 182 1042 q 147 1083 140 1042 q 197 1125 156 1125 l 614 1125 q 647 1083 656 1125 q 599 1042 640 1042 m 489 771 q 439 729 481 729 l 231 729 q 197 771 189 729 q 246 813 204 813 l 454 813 q 489 771 496 813 m 365 313 l 157 313 q 124 354 115 313 q 172 396 131 396 l 381 396 q 415 354 422 396 q 365 313 407 313 m 464 42 q 415 0 457 0 l -1 0 q -36 42 -43 0 q 13 83 -29 83 l 429 83 q 464 42 471 83 m 433 104 l 17 104 q -18 146 -25 104 q 32 188 -10 188 l 449 188 q 482 146 490 188 q 433 104 475 104 m 500 250 q 451 208 493 208 l 35 208 q 0 250 -7 208 q 50 292 8 292 l 467 292 q 500 250 508 292 m 369 1396 q 404 1354 363 1354 l 508 1354 q 557 1396 550 1354 q 522 1438 564 1438 l 418 1438 q 369 1396 376 1438 m 247 1292 q 281 1250 239 1250 l 593 1250 q 643 1292 635 1250 q 608 1333 650 1333 l 296 1333 q 247 1292 254 1333 z "},"Ï":{"ha":667,"x_min":-43,"x_max":710,"o":"m 142 458 q 176 417 135 417 l 385 417 q 433 458 426 417 q 399 500 440 500 l 190 500 q 142 458 149 500 m 160 563 q 194 521 153 521 l 403 521 q 451 563 444 521 q 417 604 458 604 l 208 604 q 160 563 167 604 m 213 625 l 421 625 q 469 667 463 625 q 436 708 478 708 l 228 708 q 178 667 186 708 q 213 625 171 625 m 111 875 q 146 833 104 833 l 563 833 q 611 875 604 833 q 576 917 618 917 l 160 917 q 111 875 118 917 m 129 979 q 164 938 122 938 l 581 938 q 629 979 622 938 q 594 1021 636 1021 l 178 1021 q 129 979 136 1021 m 182 1042 l 599 1042 q 647 1083 640 1042 q 614 1125 656 1125 l 197 1125 q 147 1083 156 1125 q 182 1042 140 1042 m 197 771 q 231 729 189 729 l 439 729 q 489 771 481 729 q 454 813 496 813 l 246 813 q 197 771 204 813 m 157 313 l 365 313 q 415 354 407 313 q 381 396 422 396 l 172 396 q 124 354 131 396 q 157 313 115 313 m -36 42 q -1 0 -43 0 l 415 0 q 464 42 457 0 q 429 83 471 83 l 13 83 q -36 42 -29 83 m 17 104 l 433 104 q 482 146 475 104 q 449 188 490 188 l 32 188 q -18 146 -10 188 q 17 104 -25 104 m 0 250 q 35 208 -7 208 l 451 208 q 500 250 493 208 q 467 292 508 292 l 50 292 q 0 250 8 292 m 203 1396 q 238 1354 196 1354 l 342 1354 q 390 1396 383 1354 q 356 1438 397 1438 l 251 1438 q 203 1396 210 1438 m 185 1292 q 218 1250 176 1250 l 322 1250 q 372 1292 364 1250 q 338 1333 379 1333 l 233 1333 q 185 1292 192 1333 m 515 1396 q 550 1354 508 1354 l 654 1354 q 703 1396 696 1354 q 668 1438 710 1438 l 564 1438 q 515 1396 522 1438 m 497 1292 q 531 1250 489 1250 l 635 1250 q 685 1292 676 1250 q 650 1333 692 1333 l 546 1333 q 497 1292 504 1333 z "},"Ð":{"ha":875,"x_min":-26,"x_max":872,"o":"m 172 833 l 797 833 q 847 875 839 833 q 813 917 854 917 l 188 917 q 139 875 146 917 q 172 833 131 833 m 192 938 l 817 938 q 865 979 858 938 q 831 1021 872 1021 l 206 1021 q 157 979 164 1021 q 192 938 150 938 m 63 208 l 688 208 q 736 250 729 208 q 703 292 744 292 l 78 292 q 28 250 36 292 q 63 208 21 208 m 44 104 l 669 104 q 718 146 711 104 q 683 188 725 188 l 58 188 q 10 146 17 188 q 44 104 3 104 m 0 563 q 35 521 -7 521 l 410 521 q 458 563 451 521 q 424 604 465 604 l 49 604 q 0 563 7 604 m 18 667 q 53 625 11 625 l 428 625 q 476 667 469 625 q 443 708 485 708 l 68 708 q 18 667 26 708 m 154 729 l 363 729 q 411 771 404 729 q 378 813 419 813 l 169 813 q 119 771 128 813 q 154 729 113 729 m 500 563 q 535 521 493 521 l 743 521 q 792 563 785 521 q 757 604 799 604 l 549 604 q 500 563 507 604 m 518 667 q 553 625 511 625 l 761 625 q 810 667 803 625 q 776 708 818 708 l 568 708 q 518 667 526 708 m 571 729 l 779 729 q 828 771 821 729 q 794 813 836 813 l 586 813 q 536 771 544 813 q 571 729 529 729 m 47 354 q 81 313 39 313 l 289 313 q 339 354 331 313 q 304 396 346 396 l 96 396 q 47 354 54 396 m -18 458 q 15 417 -26 417 l 390 417 q 440 458 432 417 q 406 500 447 500 l 31 500 q -18 458 -11 500 m 464 354 q 497 313 456 313 l 706 313 q 756 354 747 313 q 721 396 763 396 l 513 396 q 464 354 471 396 m 482 458 q 515 417 474 417 l 724 417 q 774 458 765 417 q 739 500 781 500 l 531 500 q 482 458 489 500 m 175 1083 q 210 1042 168 1042 l 731 1042 q 779 1083 772 1042 q 744 1125 786 1125 l 224 1125 q 175 1083 182 1125 m -8 42 q 26 0 -15 0 l 547 0 q 596 42 589 0 q 561 83 603 83 l 40 83 q -8 42 -1 83 z "},"Ñ":{"ha":875,"x_min":-35,"x_max":854,"o":"m 297 1292 q 332 1250 290 1250 l 749 1250 q 797 1292 790 1250 q 764 1333 806 1333 l 347 1333 q 297 1292 306 1333 m 154 833 l 779 833 q 828 875 821 833 q 794 917 836 917 l 169 917 q 119 875 128 917 q 154 833 113 833 m 172 938 l 797 938 q 847 979 839 938 q 813 1021 854 1021 l 188 1021 q 139 979 146 1021 q 172 938 131 938 m 47 458 q 81 417 39 417 l 289 417 q 339 458 331 417 q 304 500 346 500 l 96 500 q 47 458 54 500 m 65 563 q 99 521 57 521 l 307 521 q 357 563 349 521 q 322 604 364 604 l 114 604 q 65 563 72 604 m 118 625 l 326 625 q 375 667 368 625 q 340 708 382 708 l 132 708 q 83 667 90 708 q 118 625 76 625 m 464 458 q 497 417 456 417 l 706 417 q 756 458 747 417 q 721 500 763 500 l 513 500 q 464 458 471 500 m 482 563 q 515 521 474 521 l 724 521 q 774 563 765 521 q 739 604 781 604 l 531 604 q 482 563 489 604 m 535 625 l 743 625 q 792 667 785 625 q 757 708 799 708 l 549 708 q 500 667 507 708 q 535 625 493 625 m 101 771 q 136 729 94 729 l 344 729 q 393 771 386 729 q 360 813 401 813 l 151 813 q 101 771 110 813 m 553 729 l 761 729 q 810 771 803 729 q 776 813 818 813 l 568 813 q 518 771 526 813 q 553 729 511 729 m -26 42 q 7 0 -35 0 l 215 0 q 265 42 257 0 q 231 83 272 83 l 22 83 q -26 42 -19 83 m -8 146 q 26 104 -15 104 l 235 104 q 283 146 276 104 q 249 188 290 188 l 40 188 q -8 146 -1 188 m 44 208 l 253 208 q 301 250 294 208 q 267 292 308 292 l 58 292 q 10 250 17 292 q 44 208 3 208 m 390 42 q 424 0 382 0 l 632 0 q 682 42 674 0 q 647 83 689 83 l 439 83 q 390 42 397 83 m 408 146 q 443 104 401 104 l 651 104 q 700 146 693 104 q 665 188 707 188 l 457 188 q 408 146 415 188 m 461 208 l 669 208 q 718 250 711 208 q 683 292 725 292 l 475 292 q 426 250 433 292 q 461 208 419 208 m 28 354 q 63 313 21 313 l 271 313 q 319 354 313 313 q 286 396 328 396 l 78 396 q 28 354 36 396 m 479 313 l 688 313 q 736 354 729 313 q 703 396 744 396 l 494 396 q 444 354 453 396 q 479 313 438 313 m 157 1083 q 192 1042 150 1042 l 713 1042 q 761 1083 754 1042 q 726 1125 768 1125 l 206 1125 q 157 1083 164 1125 z "},"Ò":{"ha":875,"x_min":-25,"x_max":844,"o":"m 307 1396 q 342 1354 300 1354 l 446 1354 q 494 1396 488 1354 q 460 1438 501 1438 l 356 1438 q 307 1396 314 1438 m 393 1292 q 426 1250 385 1250 l 531 1250 q 581 1292 572 1250 q 546 1333 588 1333 l 442 1333 q 393 1292 400 1333 m 146 833 l 771 833 q 819 875 813 833 q 785 917 826 917 l 160 917 q 111 875 118 917 q 146 833 104 833 m 164 938 l 789 938 q 838 979 831 938 q 803 1021 844 1021 l 178 1021 q 129 979 136 1021 q 164 938 122 938 m 17 104 l 642 104 q 690 146 683 104 q 657 188 699 188 l 32 188 q -18 146 -10 188 q 17 104 -25 104 m 35 208 l 660 208 q 708 250 701 208 q 675 292 717 292 l 50 292 q 0 250 8 292 q 35 208 -7 208 m 38 458 q 72 417 31 417 l 281 417 q 329 458 322 417 q 294 500 336 500 l 86 500 q 38 458 44 500 m 56 563 q 90 521 49 521 l 299 521 q 347 563 340 521 q 313 604 354 604 l 104 604 q 56 563 63 604 m 108 625 l 317 625 q 365 667 358 625 q 332 708 374 708 l 124 708 q 74 667 82 708 q 108 625 67 625 m 454 458 q 489 417 447 417 l 697 417 q 746 458 739 417 q 711 500 753 500 l 503 500 q 454 458 461 500 m 472 563 q 507 521 465 521 l 715 521 q 764 563 757 521 q 729 604 771 604 l 521 604 q 472 563 479 604 m 525 625 l 733 625 q 782 667 775 625 q 749 708 790 708 l 540 708 q 490 667 499 708 q 525 625 483 625 m 93 771 q 126 729 85 729 l 335 729 q 385 771 376 729 q 350 813 392 813 l 142 813 q 93 771 100 813 m 543 729 l 751 729 q 801 771 793 729 q 767 813 808 813 l 558 813 q 510 771 517 813 q 543 729 501 729 m 19 354 q 53 313 11 313 l 261 313 q 311 354 303 313 q 276 396 318 396 l 68 396 q 19 354 26 396 m 469 313 l 678 313 q 728 354 719 313 q 693 396 735 396 l 485 396 q 436 354 443 396 q 469 313 428 313 m 251 1083 q 286 1042 244 1042 l 703 1042 q 751 1083 744 1042 q 718 1125 760 1125 l 301 1125 q 251 1083 260 1125 m 68 42 q 103 0 61 0 l 519 0 q 568 42 561 0 q 533 83 575 83 l 117 83 q 68 42 75 83 z "},"Ó":{"ha":875,"x_min":-25,"x_max":844,"o":"m 807 1396 q 758 1354 800 1354 l 654 1354 q 619 1396 613 1354 q 668 1438 626 1438 l 772 1438 q 807 1396 814 1438 m 685 1292 q 635 1250 676 1250 l 531 1250 q 497 1292 489 1250 q 546 1333 504 1333 l 650 1333 q 685 1292 692 1333 m 146 833 l 771 833 q 819 875 813 833 q 785 917 826 917 l 160 917 q 111 875 118 917 q 146 833 104 833 m 164 938 l 789 938 q 838 979 831 938 q 803 1021 844 1021 l 178 1021 q 129 979 136 1021 q 164 938 122 938 m 17 104 l 642 104 q 690 146 683 104 q 657 188 699 188 l 32 188 q -18 146 -10 188 q 17 104 -25 104 m 35 208 l 660 208 q 708 250 701 208 q 675 292 717 292 l 50 292 q 0 250 8 292 q 35 208 -7 208 m 38 458 q 72 417 31 417 l 281 417 q 329 458 322 417 q 294 500 336 500 l 86 500 q 38 458 44 500 m 56 563 q 90 521 49 521 l 299 521 q 347 563 340 521 q 313 604 354 604 l 104 604 q 56 563 63 604 m 108 625 l 317 625 q 365 667 358 625 q 332 708 374 708 l 124 708 q 74 667 82 708 q 108 625 67 625 m 454 458 q 489 417 447 417 l 697 417 q 746 458 739 417 q 711 500 753 500 l 503 500 q 454 458 461 500 m 472 563 q 507 521 465 521 l 715 521 q 764 563 757 521 q 729 604 771 604 l 521 604 q 472 563 479 604 m 525 625 l 733 625 q 782 667 775 625 q 749 708 790 708 l 540 708 q 490 667 499 708 q 525 625 483 625 m 93 771 q 126 729 85 729 l 335 729 q 385 771 376 729 q 350 813 392 813 l 142 813 q 93 771 100 813 m 543 729 l 751 729 q 801 771 793 729 q 767 813 808 813 l 558 813 q 510 771 517 813 q 543 729 501 729 m 19 354 q 53 313 11 313 l 261 313 q 311 354 303 313 q 276 396 318 396 l 68 396 q 19 354 26 396 m 469 313 l 678 313 q 728 354 719 313 q 693 396 735 396 l 485 396 q 436 354 443 396 q 469 313 428 313 m 251 1083 q 286 1042 244 1042 l 703 1042 q 751 1083 744 1042 q 718 1125 760 1125 l 301 1125 q 251 1083 260 1125 m 68 42 q 103 0 61 0 l 519 0 q 568 42 561 0 q 533 83 575 83 l 117 83 q 68 42 75 83 z "},"Ô":{"ha":875,"x_min":-25,"x_max":844,"o":"m 474 1396 q 508 1354 467 1354 l 613 1354 q 661 1396 654 1354 q 626 1438 668 1438 l 522 1438 q 474 1396 481 1438 m 351 1292 q 385 1250 343 1250 l 697 1250 q 747 1292 739 1250 q 713 1333 754 1333 l 400 1333 q 351 1292 358 1333 m 146 833 l 771 833 q 819 875 813 833 q 785 917 826 917 l 160 917 q 111 875 118 917 q 146 833 104 833 m 164 938 l 789 938 q 838 979 831 938 q 803 1021 844 1021 l 178 1021 q 129 979 136 1021 q 164 938 122 938 m 17 104 l 642 104 q 690 146 683 104 q 657 188 699 188 l 32 188 q -18 146 -10 188 q 17 104 -25 104 m 35 208 l 660 208 q 708 250 701 208 q 675 292 717 292 l 50 292 q 0 250 8 292 q 35 208 -7 208 m 38 458 q 72 417 31 417 l 281 417 q 329 458 322 417 q 294 500 336 500 l 86 500 q 38 458 44 500 m 56 563 q 90 521 49 521 l 299 521 q 347 563 340 521 q 313 604 354 604 l 104 604 q 56 563 63 604 m 108 625 l 317 625 q 365 667 358 625 q 332 708 374 708 l 124 708 q 74 667 82 708 q 108 625 67 625 m 454 458 q 489 417 447 417 l 697 417 q 746 458 739 417 q 711 500 753 500 l 503 500 q 454 458 461 500 m 472 563 q 507 521 465 521 l 715 521 q 764 563 757 521 q 729 604 771 604 l 521 604 q 472 563 479 604 m 525 625 l 733 625 q 782 667 775 625 q 749 708 790 708 l 540 708 q 490 667 499 708 q 525 625 483 625 m 93 771 q 126 729 85 729 l 335 729 q 385 771 376 729 q 350 813 392 813 l 142 813 q 93 771 100 813 m 543 729 l 751 729 q 801 771 793 729 q 767 813 808 813 l 558 813 q 510 771 517 813 q 543 729 501 729 m 19 354 q 53 313 11 313 l 261 313 q 311 354 303 313 q 276 396 318 396 l 68 396 q 19 354 26 396 m 469 313 l 678 313 q 728 354 719 313 q 693 396 735 396 l 485 396 q 436 354 443 396 q 469 313 428 313 m 251 1083 q 286 1042 244 1042 l 703 1042 q 751 1083 744 1042 q 718 1125 760 1125 l 301 1125 q 251 1083 260 1125 m 68 42 q 103 0 61 0 l 519 0 q 568 42 561 0 q 533 83 575 83 l 117 83 q 68 42 75 83 z "},"Õ":{"ha":875,"x_min":-15,"x_max":854,"o":"m 297 1292 q 332 1250 290 1250 l 749 1250 q 797 1292 790 1250 q 764 1333 806 1333 l 347 1333 q 297 1292 306 1333 m 154 833 l 779 833 q 828 875 821 833 q 794 917 836 917 l 169 917 q 119 875 128 917 q 154 833 113 833 m 172 938 l 797 938 q 847 979 839 938 q 813 1021 854 1021 l 188 1021 q 139 979 146 1021 q 172 938 131 938 m 26 104 l 651 104 q 700 146 693 104 q 665 188 707 188 l 40 188 q -8 146 -1 188 q 26 104 -15 104 m 44 208 l 669 208 q 718 250 711 208 q 683 292 725 292 l 58 292 q 10 250 17 292 q 44 208 3 208 m 47 458 q 81 417 39 417 l 289 417 q 339 458 331 417 q 304 500 346 500 l 96 500 q 47 458 54 500 m 65 563 q 99 521 57 521 l 307 521 q 357 563 349 521 q 322 604 364 604 l 114 604 q 65 563 72 604 m 118 625 l 326 625 q 375 667 368 625 q 340 708 382 708 l 132 708 q 83 667 90 708 q 118 625 76 625 m 464 458 q 497 417 456 417 l 706 417 q 756 458 747 417 q 721 500 763 500 l 513 500 q 464 458 471 500 m 482 563 q 515 521 474 521 l 724 521 q 774 563 765 521 q 739 604 781 604 l 531 604 q 482 563 489 604 m 535 625 l 743 625 q 792 667 785 625 q 757 708 799 708 l 549 708 q 500 667 507 708 q 535 625 493 625 m 101 771 q 136 729 94 729 l 344 729 q 393 771 386 729 q 360 813 401 813 l 151 813 q 101 771 110 813 m 553 729 l 761 729 q 810 771 803 729 q 776 813 818 813 l 568 813 q 518 771 526 813 q 553 729 511 729 m 28 354 q 63 313 21 313 l 271 313 q 319 354 313 313 q 286 396 328 396 l 78 396 q 28 354 36 396 m 479 313 l 688 313 q 736 354 729 313 q 703 396 744 396 l 494 396 q 444 354 453 396 q 479 313 438 313 m 261 1083 q 296 1042 254 1042 l 713 1042 q 761 1083 754 1042 q 726 1125 768 1125 l 310 1125 q 261 1083 268 1125 m 78 42 q 111 0 69 0 l 528 0 q 578 42 569 0 q 543 83 585 83 l 126 83 q 78 42 85 83 z "},"Ö":{"ha":875,"x_min":-25,"x_max":844,"o":"m 307 1396 q 342 1354 300 1354 l 446 1354 q 494 1396 488 1354 q 460 1438 501 1438 l 356 1438 q 307 1396 314 1438 m 289 1292 q 322 1250 281 1250 l 426 1250 q 476 1292 468 1250 q 442 1333 483 1333 l 338 1333 q 289 1292 296 1333 m 619 1396 q 654 1354 613 1354 l 758 1354 q 807 1396 800 1354 q 772 1438 814 1438 l 668 1438 q 619 1396 626 1438 m 601 1292 q 635 1250 593 1250 l 739 1250 q 789 1292 781 1250 q 754 1333 796 1333 l 650 1333 q 601 1292 608 1333 m 146 833 l 771 833 q 819 875 813 833 q 785 917 826 917 l 160 917 q 111 875 118 917 q 146 833 104 833 m 164 938 l 789 938 q 838 979 831 938 q 803 1021 844 1021 l 178 1021 q 129 979 136 1021 q 164 938 122 938 m 17 104 l 642 104 q 690 146 683 104 q 657 188 699 188 l 32 188 q -18 146 -10 188 q 17 104 -25 104 m 35 208 l 660 208 q 708 250 701 208 q 675 292 717 292 l 50 292 q 0 250 8 292 q 35 208 -7 208 m 38 458 q 72 417 31 417 l 281 417 q 329 458 322 417 q 294 500 336 500 l 86 500 q 38 458 44 500 m 56 563 q 90 521 49 521 l 299 521 q 347 563 340 521 q 313 604 354 604 l 104 604 q 56 563 63 604 m 108 625 l 317 625 q 365 667 358 625 q 332 708 374 708 l 124 708 q 74 667 82 708 q 108 625 67 625 m 454 458 q 489 417 447 417 l 697 417 q 746 458 739 417 q 711 500 753 500 l 503 500 q 454 458 461 500 m 472 563 q 507 521 465 521 l 715 521 q 764 563 757 521 q 729 604 771 604 l 521 604 q 472 563 479 604 m 525 625 l 733 625 q 782 667 775 625 q 749 708 790 708 l 540 708 q 490 667 499 708 q 525 625 483 625 m 93 771 q 126 729 85 729 l 335 729 q 385 771 376 729 q 350 813 392 813 l 142 813 q 93 771 100 813 m 543 729 l 751 729 q 801 771 793 729 q 767 813 808 813 l 558 813 q 510 771 517 813 q 543 729 501 729 m 19 354 q 53 313 11 313 l 261 313 q 311 354 303 313 q 276 396 318 396 l 68 396 q 19 354 26 396 m 469 313 l 678 313 q 728 354 719 313 q 693 396 735 396 l 485 396 q 436 354 443 396 q 469 313 428 313 m 251 1083 q 286 1042 244 1042 l 703 1042 q 751 1083 744 1042 q 718 1125 760 1125 l 301 1125 q 251 1083 260 1125 m 68 42 q 103 0 61 0 l 519 0 q 568 42 561 0 q 533 83 575 83 l 117 83 q 68 42 75 83 z "},"×":{"ha":875,"x_min":11,"x_max":854,"o":"m 292 563 q 326 521 285 521 l 535 521 q 583 563 576 521 q 549 604 590 604 l 340 604 q 292 563 299 604 m 224 771 q 258 729 217 729 l 363 729 q 411 771 404 729 q 378 813 419 813 l 274 813 q 224 771 232 813 m 344 625 l 553 625 q 601 667 594 625 q 568 708 610 708 l 360 708 q 310 667 318 708 q 344 625 303 625 m 274 458 q 307 417 265 417 l 515 417 q 565 458 557 417 q 531 500 572 500 l 322 500 q 274 458 281 500 m 536 771 q 571 729 529 729 l 675 729 q 724 771 717 729 q 690 813 732 813 l 586 813 q 536 771 544 813 m 151 354 q 185 313 143 313 l 289 313 q 339 354 331 313 q 304 396 346 396 l 200 396 q 151 354 158 396 m 464 354 q 497 313 456 313 l 601 313 q 651 354 643 313 q 617 396 658 396 l 513 396 q 464 354 471 396 m 139 875 q 172 833 131 833 l 276 833 q 326 875 318 833 q 292 917 333 917 l 188 917 q 139 875 146 917 m 660 875 q 693 833 651 833 l 797 833 q 847 875 839 833 q 813 917 854 917 l 708 917 q 660 875 667 917 m 18 250 q 53 208 11 208 l 157 208 q 206 250 199 208 q 172 292 214 292 l 68 292 q 18 250 26 292 m 549 250 q 583 208 542 208 l 688 208 q 736 250 729 208 q 703 292 744 292 l 599 292 q 549 250 557 292 z "},"Ø":{"ha":875,"x_min":-15,"x_max":890,"o":"m 157 979 q 192 938 150 938 l 817 938 q 865 979 858 938 q 831 1021 872 1021 l 206 1021 q 157 979 164 1021 m 10 146 q 44 104 3 104 l 669 104 q 718 146 711 104 q 683 188 725 188 l 58 188 q 10 146 17 188 m 132 250 q 167 208 125 208 l 688 208 q 736 250 729 208 q 703 292 744 292 l 182 292 q 132 250 140 292 m 139 875 q 172 833 131 833 l 693 833 q 743 875 735 833 q 708 917 750 917 l 188 917 q 139 875 146 917 m 47 354 q 81 313 39 313 l 289 313 q 339 354 331 313 q 304 396 346 396 l 96 396 q 47 354 54 396 m 101 667 q 136 625 94 625 l 344 625 q 393 667 386 625 q 360 708 401 708 l 151 708 q 101 667 110 708 m 571 729 l 779 729 q 828 771 821 729 q 794 813 836 813 l 586 813 q 536 771 544 813 q 571 729 529 729 m 83 563 q 118 521 76 521 l 326 521 q 375 563 368 521 q 340 604 382 604 l 132 604 q 83 563 90 604 m 304 42 q 339 0 297 0 l 547 0 q 596 42 589 0 q 561 83 603 83 l 353 83 q 304 42 311 83 m 464 354 q 497 313 456 313 l 706 313 q 756 354 747 313 q 721 396 763 396 l 513 396 q 464 354 471 396 m 500 563 q 535 521 493 521 l 743 521 q 792 563 785 521 q 757 604 799 604 l 549 604 q 500 563 507 604 m 279 1083 q 314 1042 272 1042 l 522 1042 q 571 1083 564 1042 q 536 1125 578 1125 l 328 1125 q 279 1083 286 1125 m 119 771 q 154 729 113 729 l 363 729 q 411 771 404 729 q 378 813 419 813 l 169 813 q 119 771 128 813 m 482 458 q 515 417 474 417 l 724 417 q 774 458 765 417 q 739 500 781 500 l 531 500 q 482 458 489 500 m 99 417 l 307 417 q 357 458 349 417 q 322 500 364 500 l 114 500 q 65 458 72 500 q 99 417 57 417 m 553 625 l 761 625 q 810 667 803 625 q 776 708 818 708 l 568 708 q 518 667 526 708 q 553 625 511 625 m 696 1083 q 731 1042 689 1042 l 835 1042 q 883 1083 876 1042 q 849 1125 890 1125 l 744 1125 q 696 1083 703 1125 m -8 42 q 26 0 -15 0 l 131 0 q 179 42 172 0 q 144 83 186 83 l 40 83 q -8 42 -1 83 z "},"Ù":{"ha":875,"x_min":-25,"x_max":864,"o":"m 307 1396 q 342 1354 300 1354 l 446 1354 q 494 1396 488 1354 q 460 1438 501 1438 l 356 1438 q 307 1396 314 1438 m 393 1292 q 426 1250 385 1250 l 531 1250 q 581 1292 572 1250 q 546 1333 588 1333 l 442 1333 q 393 1292 400 1333 m 17 104 l 642 104 q 690 146 683 104 q 657 188 699 188 l 32 188 q -18 146 -10 188 q 17 104 -25 104 m 35 208 l 660 208 q 708 250 701 208 q 675 292 717 292 l 50 292 q 0 250 8 292 q 35 208 -7 208 m 19 354 q 53 313 11 313 l 261 313 q 311 354 303 313 q 276 396 318 396 l 68 396 q 19 354 26 396 m 38 458 q 72 417 31 417 l 281 417 q 329 458 322 417 q 294 500 336 500 l 86 500 q 38 458 44 500 m 90 521 l 299 521 q 347 563 340 521 q 313 604 354 604 l 104 604 q 56 563 63 604 q 90 521 49 521 m 108 625 l 317 625 q 365 667 358 625 q 332 708 374 708 l 124 708 q 74 667 82 708 q 108 625 67 625 m 436 354 q 469 313 428 313 l 678 313 q 728 354 719 313 q 693 396 735 396 l 485 396 q 436 354 443 396 m 454 458 q 489 417 447 417 l 697 417 q 746 458 739 417 q 711 500 753 500 l 503 500 q 454 458 461 500 m 507 521 l 715 521 q 764 563 757 521 q 729 604 771 604 l 521 604 q 472 563 479 604 q 507 521 465 521 m 525 625 l 733 625 q 782 667 775 625 q 749 708 790 708 l 540 708 q 490 667 499 708 q 525 625 483 625 m 510 771 q 543 729 501 729 l 751 729 q 801 771 793 729 q 767 813 808 813 l 558 813 q 510 771 517 813 m 528 875 q 563 833 521 833 l 771 833 q 819 875 813 833 q 785 917 826 917 l 576 917 q 528 875 535 917 m 581 938 l 789 938 q 838 979 831 938 q 803 1021 844 1021 l 594 1021 q 546 979 553 1021 q 581 938 539 938 m 599 1042 l 807 1042 q 856 1083 849 1042 q 822 1125 864 1125 l 614 1125 q 564 1083 572 1125 q 599 1042 557 1042 m 93 771 q 126 729 85 729 l 335 729 q 385 771 376 729 q 350 813 392 813 l 142 813 q 93 771 100 813 m 111 875 q 146 833 104 833 l 354 833 q 403 875 396 833 q 368 917 410 917 l 160 917 q 111 875 118 917 m 164 938 l 372 938 q 421 979 414 938 q 386 1021 428 1021 l 178 1021 q 129 979 136 1021 q 164 938 122 938 m 182 1042 l 390 1042 q 439 1083 432 1042 q 406 1125 447 1125 l 197 1125 q 147 1083 156 1125 q 182 1042 140 1042 m 68 42 q 103 0 61 0 l 519 0 q 568 42 561 0 q 533 83 575 83 l 117 83 q 68 42 75 83 z "},"Ú":{"ha":875,"x_min":-25,"x_max":864,"o":"m 807 1396 q 758 1354 800 1354 l 654 1354 q 619 1396 613 1354 q 668 1438 626 1438 l 772 1438 q 807 1396 814 1438 m 685 1292 q 635 1250 676 1250 l 531 1250 q 497 1292 489 1250 q 546 1333 504 1333 l 650 1333 q 685 1292 692 1333 m 17 104 l 642 104 q 690 146 683 104 q 657 188 699 188 l 32 188 q -18 146 -10 188 q 17 104 -25 104 m 35 208 l 660 208 q 708 250 701 208 q 675 292 717 292 l 50 292 q 0 250 8 292 q 35 208 -7 208 m 19 354 q 53 313 11 313 l 261 313 q 311 354 303 313 q 276 396 318 396 l 68 396 q 19 354 26 396 m 38 458 q 72 417 31 417 l 281 417 q 329 458 322 417 q 294 500 336 500 l 86 500 q 38 458 44 500 m 90 521 l 299 521 q 347 563 340 521 q 313 604 354 604 l 104 604 q 56 563 63 604 q 90 521 49 521 m 108 625 l 317 625 q 365 667 358 625 q 332 708 374 708 l 124 708 q 74 667 82 708 q 108 625 67 625 m 436 354 q 469 313 428 313 l 678 313 q 728 354 719 313 q 693 396 735 396 l 485 396 q 436 354 443 396 m 454 458 q 489 417 447 417 l 697 417 q 746 458 739 417 q 711 500 753 500 l 503 500 q 454 458 461 500 m 507 521 l 715 521 q 764 563 757 521 q 729 604 771 604 l 521 604 q 472 563 479 604 q 507 521 465 521 m 525 625 l 733 625 q 782 667 775 625 q 749 708 790 708 l 540 708 q 490 667 499 708 q 525 625 483 625 m 510 771 q 543 729 501 729 l 751 729 q 801 771 793 729 q 767 813 808 813 l 558 813 q 510 771 517 813 m 528 875 q 563 833 521 833 l 771 833 q 819 875 813 833 q 785 917 826 917 l 576 917 q 528 875 535 917 m 581 938 l 789 938 q 838 979 831 938 q 803 1021 844 1021 l 594 1021 q 546 979 553 1021 q 581 938 539 938 m 599 1042 l 807 1042 q 856 1083 849 1042 q 822 1125 864 1125 l 614 1125 q 564 1083 572 1125 q 599 1042 557 1042 m 93 771 q 126 729 85 729 l 335 729 q 385 771 376 729 q 350 813 392 813 l 142 813 q 93 771 100 813 m 111 875 q 146 833 104 833 l 354 833 q 403 875 396 833 q 368 917 410 917 l 160 917 q 111 875 118 917 m 164 938 l 372 938 q 421 979 414 938 q 386 1021 428 1021 l 178 1021 q 129 979 136 1021 q 164 938 122 938 m 182 1042 l 390 1042 q 439 1083 432 1042 q 406 1125 447 1125 l 197 1125 q 147 1083 156 1125 q 182 1042 140 1042 m 68 42 q 103 0 61 0 l 519 0 q 568 42 561 0 q 533 83 575 83 l 117 83 q 68 42 75 83 z "}}}
